<svg xmlns="http://www.w3.org/2000/svg" width="18" height="18" viewBox="0 0 18 18" fill="none">
  <path d="M12.75 15.9338L12.7515 11.4338C11.6879 12.288 10.3641 12.7525 9 12.7501C7.63651 12.7523 6.31327 12.2882 5.25 11.4346L5.25225 15.9346C5.2525 16.0374 5.28094 16.1383 5.33448 16.2261C5.38803 16.3139 5.46462 16.3853 5.55594 16.4327C5.64726 16.48 5.74981 16.5014 5.85243 16.4945C5.95506 16.4876 6.05383 16.4527 6.138 16.3936L9.00075 14.3783L11.8643 16.3936C11.9485 16.4529 12.0474 16.488 12.1502 16.495C12.253 16.502 12.3557 16.4806 12.4472 16.4331C12.5387 16.3857 12.6154 16.314 12.6689 16.226C12.7224 16.1379 12.75 16.0369 12.75 15.9338Z" fill="#E9EFFA"/>
  <path d="M14.25 6.75C14.25 6.06056 14.1142 5.37787 13.8504 4.74091C13.5865 4.10395 13.1998 3.5252 12.7123 3.03769C12.2248 2.55018 11.646 2.16347 11.0091 1.89963C10.3721 1.6358 9.68944 1.5 9 1.5C8.31056 1.5 7.62787 1.6358 6.99091 1.89963C6.35395 2.16347 5.7752 2.55018 5.28769 3.03769C4.80018 3.5252 4.41347 4.10395 4.14963 4.74091C3.8858 5.37787 3.75 6.06056 3.75 6.75C3.75 8.14239 4.30312 9.47774 5.28769 10.4623C6.27226 11.4469 7.60761 12 9 12C10.3924 12 11.7277 11.4469 12.7123 10.4623C13.6969 9.47774 14.25 8.14239 14.25 6.75ZM9.17175 4.2315L9.85575 5.62125L11.3888 5.8425C11.5463 5.865 11.6085 6.0585 11.4952 6.16875L10.386 7.24875L10.6485 8.77575C10.6546 8.81093 10.6507 8.84711 10.6372 8.88019C10.6238 8.91327 10.6014 8.94193 10.5725 8.96292C10.5436 8.98392 10.5094 8.99641 10.4738 8.99899C10.4382 9.00156 10.4026 8.99412 10.371 8.9775L9 8.256L7.62975 8.9775C7.59815 8.99412 7.56253 9.00156 7.52692 8.99899C7.49131 8.99641 7.45714 8.98392 7.42826 8.96292C7.39938 8.94193 7.37696 8.91327 7.36352 8.88019C7.35009 8.84711 7.34619 8.81093 7.35225 8.77575L7.61475 7.2495L6.50475 6.1695C6.47895 6.14459 6.46068 6.11293 6.45202 6.07813C6.44335 6.04333 6.44465 6.0068 6.45575 5.9727C6.46686 5.9386 6.48733 5.90831 6.51482 5.88529C6.54232 5.86227 6.57573 5.84744 6.61125 5.8425L8.14425 5.62125L8.82825 4.2315C8.84399 4.19937 8.86843 4.17229 8.89879 4.15336C8.92915 4.13442 8.96422 4.12438 9 4.12438C9.03578 4.12438 9.07085 4.13442 9.10121 4.15336C9.13157 4.17229 9.15601 4.19937 9.17175 4.2315Z" fill="#E9EFFA"/>
</svg>