<svg xmlns="http://www.w3.org/2000/svg" width="18" height="18" viewBox="0 0 18 18" fill="none">
  <path d="M13.875 15C13.875 15.0995 13.8355 15.1948 13.7652 15.2652C13.6948 15.3355 13.5995 15.375 13.5 15.375L9.201 15.375C8.98627 15.7865 8.71404 16.1653 8.3925 16.5H13.5C13.8978 16.5 14.2794 16.342 14.5607 16.0607C14.842 15.7794 15 15.3978 15 15L15 7.371C14.9999 6.97321 14.8418 6.59174 14.5605 6.3105L10.1887 1.9395C10.1772 1.92872 10.1649 1.9187 10.152 1.9095C10.1427 1.90234 10.1337 1.89483 10.125 1.887C10.0734 1.8383 10.0185 1.7932 9.96075 1.752C9.94155 1.73961 9.9215 1.72858 9.90075 1.719L9.86475 1.701L9.82725 1.67925C9.78675 1.656 9.7455 1.632 9.70275 1.614C9.5534 1.55435 9.39533 1.51939 9.23475 1.5105C9.21975 1.50975 9.20475 1.5075 9.1905 1.50525C9.17014 1.50211 9.14959 1.50035 9.129 1.5L4.5 1.5C4.10218 1.5 3.72064 1.65804 3.43934 1.93934C3.15804 2.22064 3 2.60218 3 3L3 8.6235C3.36083 8.47293 3.73859 8.36666 4.125 8.307L4.125 3C4.125 2.90054 4.16451 2.80516 4.23483 2.73484C4.30516 2.66451 4.40054 2.625 4.5 2.625L9 2.625V6C9 6.39782 9.15804 6.77936 9.43934 7.06066C9.72064 7.34196 10.1022 7.5 10.5 7.5H13.875L13.875 15ZM10.125 3.46575L13.0335 6.375H10.5C10.4005 6.375 10.3052 6.33549 10.2348 6.26517C10.1645 6.19484 10.125 6.09946 10.125 6V3.46575Z" fill="#1E63D0"/>
  <path d="M9 13.125C9 12.5833 8.8933 12.0469 8.686 11.5464C8.4787 11.046 8.17486 10.5912 7.79182 10.2082C7.40877 9.82514 6.95404 9.5213 6.45357 9.314C5.9531 9.1067 5.4167 9 4.875 9C4.3333 9 3.7969 9.1067 3.29643 9.314C2.79596 9.5213 2.34123 9.82514 1.95818 10.2082C1.57514 10.5912 1.2713 11.046 1.064 11.5464C0.856696 12.0469 0.75 12.5833 0.75 13.125C0.75 14.219 1.1846 15.2682 1.95818 16.0418C2.73177 16.8154 3.78098 17.25 4.875 17.25C5.96902 17.25 7.01823 16.8154 7.79182 16.0418C8.5654 15.2682 9 14.219 9 13.125ZM5.25 13.5L5.25075 15.3773C5.25075 15.4767 5.21124 15.5721 5.14092 15.6424C5.07059 15.7127 4.97521 15.7523 4.87575 15.7523C4.77629 15.7523 4.68091 15.7127 4.61059 15.6424C4.54026 15.5721 4.50075 15.4767 4.50075 15.3773L4.50075 13.5H2.622C2.52254 13.5 2.42716 13.4605 2.35684 13.3902C2.28651 13.3198 2.247 13.2245 2.247 13.125C2.247 13.0255 2.28651 12.9302 2.35684 12.8598C2.42716 12.7895 2.52254 12.75 2.622 12.75H4.5V10.875C4.5 10.7755 4.53951 10.6802 4.60984 10.6098C4.68016 10.5395 4.77554 10.5 4.875 10.5C4.97446 10.5 5.06984 10.5395 5.14017 10.6098C5.21049 10.6802 5.25 10.7755 5.25 10.875L5.25 12.75H7.12275C7.22221 12.75 7.31759 12.7895 7.38792 12.8598C7.45824 12.9302 7.49775 13.0255 7.49775 13.125C7.49775 13.2245 7.45824 13.3198 7.38792 13.3902C7.31759 13.4605 7.22221 13.5 7.12275 13.5H5.25Z" fill="#1E63D0"/>
</svg>