<svg xmlns="http://www.w3.org/2000/svg" width="18" height="18" viewBox="0 0 18 18" fill="none">
  <path d="M13.125 9C14.219 9 15.2682 9.4346 16.0418 10.2082C16.8154 10.9818 17.25 12.031 17.25 13.125C17.25 14.219 16.8154 15.2682 16.0418 16.0418C15.2682 16.8154 14.219 17.25 13.125 17.25C12.031 17.25 10.9818 16.8154 10.2082 16.0418C9.4346 15.2682 9 14.219 9 13.125C9 12.031 9.4346 10.9818 10.2082 10.2082C10.9818 9.4346 12.031 9 13.125 9ZM3.375 7.029L3.375 13.3125C3.37503 13.642 3.499 13.9595 3.72229 14.2018C3.94557 14.4441 4.25184 14.5936 4.58025 14.6205L4.6875 14.625H8.4855C8.6145 15.0255 8.7945 15.4035 9.01725 15.7507L4.6875 15.75C4.0649 15.75 3.46588 15.5118 3.01333 15.0842C2.56078 14.6567 2.289 14.0721 2.25375 13.4505L2.25 13.3125L2.25 7.029C2.61393 7.15786 3.01107 7.15786 3.375 7.029ZM13.875 15.0015H12.375L12.3803 15.0885C12.4028 15.2783 12.497 15.4522 12.6435 15.5749C12.79 15.6976 12.9778 15.7598 13.1686 15.7487C13.3594 15.7376 13.5387 15.654 13.67 15.5152C13.8013 15.3763 13.8746 15.1926 13.875 15.0015ZM13.1273 10.5L13.002 10.5052C12.2993 10.569 11.7495 11.0782 11.6453 11.7315L11.6318 11.8477L11.6273 12.0007V12.9705L10.9853 13.611C10.9367 13.6595 10.9025 13.7204 10.8862 13.7871C10.8699 13.8537 10.8722 13.9236 10.8928 13.989C10.9135 14.0545 10.9517 14.113 11.0033 14.1582C11.0549 14.2034 11.1179 14.2336 11.1855 14.2455L11.25 14.2515H15C15.0688 14.2517 15.1363 14.2329 15.1951 14.1973C15.254 14.1617 15.3019 14.1106 15.3336 14.0496C15.3654 13.9886 15.3797 13.92 15.3751 13.8514C15.3705 13.7828 15.3471 13.7167 15.3075 13.6605L15.2655 13.611L14.6288 12.9742V11.9602L14.625 11.85C14.5665 11.091 13.917 10.5 13.1273 10.5ZM9.60525 9.75225C9.28575 10.0853 9.01275 10.4648 8.79825 10.8773H6.561C6.41848 10.8772 6.28129 10.8231 6.17716 10.7258C6.07302 10.6285 6.0097 10.4953 5.99998 10.3531C5.99027 10.2109 6.03489 10.0703 6.12482 9.95978C6.21476 9.84922 6.34331 9.77693 6.4845 9.7575L6.561 9.75225H9.60525ZM13.3125 2.25C13.9351 2.24996 14.5341 2.48817 14.9867 2.91575C15.4392 3.34334 15.711 3.9279 15.7463 4.5495L15.75 4.6875V9.0165C15.3993 8.79197 15.0212 8.6135 14.625 8.4855V4.6875C14.625 4.35811 14.5011 4.04076 14.278 3.79846C14.0549 3.55615 13.7488 3.4066 13.4205 3.3795L13.3125 3.375L4.6875 3.375C4.2375 3.375 3.84 3.6015 3.60375 3.94725C3.24048 3.75293 2.81834 3.69926 2.418 3.7965C2.58869 3.36253 2.88019 2.98658 3.25795 2.71315C3.63571 2.43973 4.08393 2.28031 4.5495 2.25375L4.6875 2.25L13.3125 2.25ZM11.439 7.122C11.5815 7.12204 11.7187 7.17618 11.8228 7.27348C11.927 7.37078 11.9903 7.50397 12 7.64616C12.0097 7.78835 11.9651 7.92892 11.8752 8.03947C11.7852 8.15003 11.6567 8.22232 11.5155 8.24175L11.439 8.247H6.561C6.41848 8.24696 6.28129 8.19282 6.17716 8.09552C6.07302 7.99822 6.0097 7.86503 5.99998 7.72284C5.99027 7.58065 6.03489 7.44008 6.12482 7.32953C6.21476 7.21897 6.34331 7.14668 6.4845 7.12725L6.561 7.122H11.439ZM2.8125 4.5C3.06114 4.5 3.2996 4.59877 3.47541 4.77459C3.65123 4.9504 3.75 5.18886 3.75 5.4375C3.75 5.68614 3.65123 5.9246 3.47541 6.10041C3.2996 6.27623 3.06114 6.375 2.8125 6.375C2.56386 6.375 2.3254 6.27623 2.14959 6.10041C1.97377 5.9246 1.875 5.68614 1.875 5.4375C1.875 5.18886 1.97377 4.9504 2.14959 4.77459C2.3254 4.59877 2.56386 4.5 2.8125 4.5Z" fill="#1E63D0"/>
</svg>