<svg xmlns="http://www.w3.org/2000/svg" width="18" height="18" viewBox="0 0 18 18" fill="none">
  <path d="M3.75 3.1875C3.75 2.73995 3.92779 2.31072 4.24426 1.99426C4.56073 1.67779 4.98995 1.5 5.4375 1.5L11.8125 1.5C12.2601 1.5 12.6893 1.67779 13.0057 1.99426C13.3222 2.31072 13.5 2.73995 13.5 3.1875L13.5 9H16.125V11.4375C16.125 12.084 15.8682 12.704 15.4111 13.1611C14.954 13.6182 14.334 13.875 13.6875 13.875H9.693C9.75037 13.5029 9.76472 13.1254 9.73575 12.75H12.375L12.375 3.1875C12.375 3.03832 12.3157 2.89524 12.2102 2.78975C12.1048 2.68426 11.9617 2.625 11.8125 2.625L5.4375 2.625C5.28832 2.625 5.14524 2.68426 5.03975 2.78975C4.93426 2.89524 4.875 3.03832 4.875 3.1875L4.875 8.25C4.49621 8.24978 4.11868 8.29357 3.75 8.3805L3.75 3.1875ZM13.5 12.75H13.6875C14.0356 12.75 14.3694 12.6117 14.6156 12.3656C14.8617 12.1194 15 11.7856 15 11.4375V10.125H13.5V12.75ZM10.6875 10.125H8.718C8.37118 9.68137 7.95053 9.30081 7.4745 9H10.6875C10.8367 9 10.9798 9.05926 11.0852 9.16475C11.1907 9.27024 11.25 9.41332 11.25 9.5625C11.25 9.71168 11.1907 9.85476 11.0852 9.96025C10.9798 10.0657 10.8367 10.125 10.6875 10.125ZM6 4.3125C6 4.16332 6.05926 4.02024 6.16475 3.91475C6.27024 3.80926 6.41332 3.75 6.5625 3.75L10.6875 3.75C10.8367 3.75 10.9798 3.80926 11.0852 3.91475C11.1907 4.02024 11.25 4.16332 11.25 4.3125C11.25 4.46168 11.1907 4.60476 11.0852 4.71025C10.9798 4.81574 10.8367 4.875 10.6875 4.875L6.5625 4.875C6.41332 4.875 6.27024 4.81574 6.16475 4.71025C6.05926 4.60476 6 4.46168 6 4.3125ZM6 6.9375C6 6.78832 6.05926 6.64524 6.16475 6.53975C6.27024 6.43426 6.41332 6.375 6.5625 6.375H10.6875C10.8367 6.375 10.9798 6.43426 11.0852 6.53975C11.1907 6.64524 11.25 6.78832 11.25 6.9375C11.25 7.08668 11.1907 7.22976 11.0852 7.33525C10.9798 7.44074 10.8367 7.5 10.6875 7.5H6.5625C6.41332 7.5 6.27024 7.44074 6.16475 7.33525C6.05926 7.22976 6 7.08668 6 6.9375ZM9 13.125C9 12.5833 8.8933 12.0469 8.686 11.5464C8.4787 11.046 8.17486 10.5912 7.79182 10.2082C7.40877 9.82514 6.95404 9.5213 6.45357 9.314C5.9531 9.1067 5.4167 9 4.875 9C4.3333 9 3.7969 9.1067 3.29643 9.314C2.79596 9.5213 2.34123 9.82514 1.95818 10.2082C1.57514 10.5912 1.2713 11.046 1.064 11.5464C0.856696 12.0469 0.75 12.5833 0.75 13.125C0.75 14.219 1.1846 15.2682 1.95818 16.0418C2.73177 16.8154 3.78098 17.25 4.875 17.25C5.96902 17.25 7.01823 16.8154 7.79182 16.0418C8.5654 15.2682 9 14.219 9 13.125ZM5.25 13.5L5.25075 15.3773C5.25075 15.4767 5.21124 15.5721 5.14092 15.6424C5.07059 15.7127 4.97521 15.7523 4.87575 15.7523C4.77629 15.7523 4.68091 15.7127 4.61059 15.6424C4.54026 15.5721 4.50075 15.4767 4.50075 15.3773V13.5H2.622C2.52254 13.5 2.42716 13.4605 2.35684 13.3902C2.28651 13.3198 2.247 13.2245 2.247 13.125C2.247 13.0255 2.28651 12.9302 2.35684 12.8598C2.42716 12.7895 2.52254 12.75 2.622 12.75H4.5V10.875C4.5 10.7755 4.53951 10.6802 4.60984 10.6098C4.68016 10.5395 4.77554 10.5 4.875 10.5C4.97446 10.5 5.06984 10.5395 5.14017 10.6098C5.21049 10.6802 5.25 10.7755 5.25 10.875L5.25 12.75H7.12275C7.22221 12.75 7.31759 12.7895 7.38792 12.8598C7.45824 12.9302 7.49775 13.0255 7.49775 13.125C7.49775 13.2245 7.45824 13.3198 7.38792 13.3902C7.31759 13.4605 7.22221 13.5 7.12275 13.5H5.25Z" fill="#1E63D0"/>
</svg>