<svg width="21" height="20" viewBox="0 0 21 20" fill="none" xmlns="http://www.w3.org/2000/svg">
<g id="Person Add">
<path id="Shape" d="M9.84322 3C7.89398 3 6.31381 4.58017 6.31381 6.52941C6.31381 8.47865 7.89398 10.0588 9.84322 10.0588C11.7925 10.0588 13.3726 8.47865 13.3726 6.52941C13.3726 4.58017 11.7925 3 9.84322 3ZM7.19616 6.52941C7.19616 5.06748 8.38129 3.88235 9.84322 3.88235C11.3051 3.88235 12.4903 5.06748 12.4903 6.52941C12.4903 7.99134 11.3051 9.17647 9.84322 9.17647C8.38129 9.17647 7.19616 7.99134 7.19616 6.52941ZM5.43915 10.9412C4.46365 10.9412 3.66675 11.7237 3.66675 12.7059C3.66675 14.1981 4.40158 15.3232 5.55057 16.0558C6.68172 16.7771 8.20668 17.1177 9.84322 17.1177C10.2057 17.1177 10.5628 17.1009 10.9113 17.0671C10.7017 16.8063 10.5186 16.5234 10.3659 16.2225C10.1944 16.231 10.0201 16.2353 9.84322 16.2353C8.31224 16.2353 6.96956 15.9141 6.02494 15.3118C5.09816 14.7209 4.5491 13.8607 4.5491 12.7059C4.5491 12.2177 4.94427 11.8235 5.43915 11.8235L10.3724 11.8235C10.5338 11.5078 10.7287 11.2122 10.9525 10.9412L5.43915 10.9412ZM14.6962 18C16.8891 18 18.6667 16.2223 18.6667 14.0294C18.6667 11.8365 16.8891 10.0588 14.6962 10.0588C12.5033 10.0588 10.7256 11.8365 10.7256 14.0294C10.7256 16.2223 12.5033 18 14.6962 18ZM14.6962 11.8235C14.9398 11.8235 15.1373 12.0211 15.1373 12.2647V13.5882H16.4609C16.7045 13.5882 16.902 13.7858 16.902 14.0294C16.902 14.2731 16.7045 14.4706 16.4609 14.4706H15.1373V15.7941C15.1373 16.0378 14.9398 16.2353 14.6962 16.2353C14.4525 16.2353 14.255 16.0378 14.255 15.7941V14.4706H12.9315C12.6878 14.4706 12.4903 14.2731 12.4903 14.0294C12.4903 13.7858 12.6878 13.5882 12.9315 13.5882H14.255V12.2647C14.255 12.0211 14.4525 11.8235 14.6962 11.8235Z" fill="#485566"/>
</g>
</svg>
