<svg xmlns="http://www.w3.org/2000/svg" width="18" height="18" viewBox="0 0 18 18" fill="none">
  <path d="M4.3125 2.25C3.76549 2.25 3.24089 2.4673 2.85409 2.85409C2.4673 3.24089 2.25 3.76549 2.25 4.3125L2.25 13.6875C2.25 14.2345 2.4673 14.7591 2.85409 15.1459C3.24089 15.5327 3.76549 15.75 4.3125 15.75H9.0165C8.79171 15.3994 8.61299 15.0213 8.48475 14.625H4.3125C3.795 14.625 3.375 14.205 3.375 13.6875L3.375 4.3125C3.375 3.795 3.795 3.375 4.3125 3.375L13.6875 3.375C14.205 3.375 14.625 3.795 14.625 4.3125V8.48475C15.0213 8.61299 15.3994 8.79171 15.75 9.0165V4.3125C15.75 3.76549 15.5327 3.24089 15.1459 2.85409C14.7591 2.4673 14.2345 2.25 13.6875 2.25L4.3125 2.25Z" fill="#1E63D0"/>
  <path d="M13.4678 8.262C13.5 8.17683 13.511 8.0851 13.4999 7.99472C13.4888 7.90434 13.4559 7.81802 13.404 7.74319C13.3521 7.66835 13.2828 7.60725 13.2021 7.56515C13.1213 7.52305 13.0316 7.5012 12.9405 7.5015L9.1875 7.5015C9.03832 7.5015 8.89524 7.56076 8.78975 7.66625C8.68426 7.77174 8.625 7.91482 8.625 8.064C8.625 8.21318 8.68426 8.35626 8.78975 8.46175C8.89524 8.56724 9.03832 8.6265 9.1875 8.6265H11.244C11.9465 8.33246 12.7082 8.2076 13.4678 8.262ZM6.1875 6.3765C5.73995 6.3765 5.31073 6.55429 4.99426 6.87076C4.67779 7.18723 4.5 7.61645 4.5 8.064C4.5 8.51155 4.67779 8.94078 4.99426 9.25724C5.31073 9.57371 5.73995 9.7515 6.1875 9.7515C6.63505 9.7515 7.06428 9.57371 7.38074 9.25724C7.69721 8.94078 7.875 8.51155 7.875 8.064C7.875 7.61645 7.69721 7.18723 7.38074 6.87076C7.06428 6.55429 6.63505 6.3765 6.1875 6.3765ZM5.625 8.064C5.625 7.91482 5.68426 7.77174 5.78975 7.66625C5.89524 7.56076 6.03832 7.5015 6.1875 7.5015C6.33668 7.5015 6.47976 7.56076 6.58525 7.66625C6.69074 7.77174 6.75 7.91482 6.75 8.064C6.75 8.21318 6.69074 8.35626 6.58525 8.46175C6.47976 8.56724 6.33668 8.6265 6.1875 8.6265C6.03832 8.6265 5.89524 8.56724 5.78975 8.46175C5.68426 8.35626 5.625 8.21318 5.625 8.064ZM4.5 12.1875C4.5 11.9659 4.54365 11.7465 4.62845 11.5417C4.71326 11.337 4.83756 11.151 4.99426 10.9943C5.15096 10.8376 5.33698 10.7133 5.54172 10.6285C5.74646 10.5436 5.96589 10.5 6.1875 10.5C6.40911 10.5 6.62854 10.5436 6.83328 10.6285C7.03802 10.7133 7.22404 10.8376 7.38074 10.9943C7.53744 11.151 7.66174 11.337 7.74655 11.5417C7.83135 11.7465 7.875 11.9659 7.875 12.1875C7.875 12.6351 7.69721 13.0643 7.38074 13.3807C7.06428 13.6972 6.63505 13.875 6.1875 13.875C5.73995 13.875 5.31073 13.6972 4.99426 13.3807C4.67779 13.0643 4.5 12.6351 4.5 12.1875ZM6.1875 11.625C6.03832 11.625 5.89524 11.6843 5.78975 11.7898C5.68426 11.8952 5.625 12.0383 5.625 12.1875C5.625 12.3367 5.68426 12.4798 5.78975 12.5852C5.89524 12.6907 6.03832 12.75 6.1875 12.75C6.33668 12.75 6.47976 12.6907 6.58525 12.5852C6.69074 12.4798 6.75 12.3367 6.75 12.1875C6.75 12.0383 6.69074 11.8952 6.58525 11.7898C6.47976 11.6843 6.33668 11.625 6.1875 11.625ZM12.9405 5.625L5.0655 5.625C4.91632 5.625 4.77324 5.56574 4.66775 5.46025C4.56226 5.35476 4.503 5.21168 4.503 5.0625C4.503 4.91332 4.56226 4.77024 4.66775 4.66475C4.77324 4.55926 4.91632 4.5 5.0655 4.5L12.9405 4.5C13.0897 4.5 13.2328 4.55926 13.3382 4.66475C13.4437 4.77024 13.503 4.91332 13.503 5.0625C13.503 5.21168 13.4437 5.35476 13.3382 5.46025C13.2328 5.56574 13.0897 5.625 12.9405 5.625ZM17.25 13.125C17.25 12.031 16.8154 10.9818 16.0418 10.2082C15.2682 9.4346 14.219 9 13.125 9C12.031 9 10.9818 9.4346 10.2082 10.2082C9.4346 10.9818 9 12.031 9 13.125C9 14.219 9.4346 15.2682 10.2082 16.0418C10.9818 16.8154 12.031 17.25 13.125 17.25C14.219 17.25 15.2682 16.8154 16.0418 16.0418C16.8154 15.2682 17.25 14.219 17.25 13.125ZM13.5008 15.3773C13.5008 15.4767 13.4612 15.5721 13.3909 15.6424C13.3206 15.7127 13.2252 15.7523 13.1258 15.7523C13.0263 15.7523 12.9309 15.7127 12.8606 15.6424C12.7903 15.5721 12.7508 15.4767 12.7508 15.3773V13.5L10.872 13.5C10.7725 13.5 10.6772 13.4605 10.6068 13.3902C10.5365 13.3198 10.497 13.2245 10.497 13.125C10.497 13.0255 10.5365 12.9302 10.6068 12.8598C10.6772 12.7895 10.7725 12.75 10.872 12.75L12.75 12.75L12.75 10.875C12.75 10.7755 12.7895 10.6802 12.8598 10.6098C12.9302 10.5395 13.0255 10.5 13.125 10.5C13.2245 10.5 13.3198 10.5395 13.3902 10.6098C13.4605 10.6802 13.5 10.7755 13.5 10.875L13.5 12.75H15.3773C15.4767 12.75 15.5721 12.7895 15.6424 12.8598C15.7127 12.9302 15.7523 13.0255 15.7523 13.125C15.7523 13.2245 15.7127 13.3198 15.6424 13.3902C15.5721 13.4605 15.4767 13.5 15.3773 13.5H13.5008V15.3773Z" fill="#1E63D0"/>
</svg>