<svg xmlns="http://www.w3.org/2000/svg" width="18" height="18" viewBox="0 0 18 18" fill="none">
  <path d="M2.25 3.9375C2.25 3.48995 2.42779 3.06072 2.74426 2.74426C3.06072 2.42779 3.48995 2.25 3.9375 2.25L14.0625 2.25C14.5101 2.25 14.9393 2.42779 15.2557 2.74426C15.5722 3.06072 15.75 3.48995 15.75 3.9375V9.0165C15.3994 8.79171 15.0213 8.61299 14.625 8.48475V3.9375C14.625 3.78832 14.5657 3.64524 14.4602 3.53975C14.3548 3.43426 14.2117 3.375 14.0625 3.375L3.9375 3.375C3.78832 3.375 3.64524 3.43426 3.53975 3.53975C3.43426 3.64524 3.375 3.78832 3.375 3.9375L3.375 14.0625C3.375 14.373 3.627 14.625 3.9375 14.625H8.48475C8.6145 15.0255 8.79375 15.4028 9.0165 15.75H3.9375C3.48995 15.75 3.06072 15.5722 2.74426 15.2557C2.42779 14.9393 2.25 14.5101 2.25 14.0625L2.25 3.9375ZM8.085 5.79C8.19034 5.89547 8.24951 6.03844 8.24951 6.1875C8.24951 6.33656 8.19034 6.47953 8.085 6.585L6.585 8.085C6.47953 8.19034 6.33656 8.24951 6.1875 8.24951C6.03844 8.24951 5.89547 8.19034 5.79 8.085L5.04 7.335C4.94064 7.22837 4.88655 7.08733 4.88912 6.94161C4.89169 6.79588 4.95072 6.65684 5.05378 6.55378C5.15684 6.45072 5.29588 6.39169 5.44161 6.38912C5.58733 6.38655 5.72837 6.44064 5.835 6.54L6.1875 6.8925L7.29 5.79C7.39547 5.68466 7.53844 5.62549 7.6875 5.62549C7.83656 5.62549 7.97953 5.68466 8.085 5.79ZM8.085 9.915C8.19034 10.0205 8.24951 10.1634 8.24951 10.3125C8.24951 10.4616 8.19034 10.6045 8.085 10.71L6.585 12.21C6.47953 12.3153 6.33656 12.3745 6.1875 12.3745C6.03844 12.3745 5.89547 12.3153 5.79 12.21L5.04 11.46C4.98473 11.4085 4.94041 11.3464 4.90966 11.2774C4.87892 11.2084 4.86239 11.1339 4.86106 11.0584C4.85972 10.9829 4.87362 10.9078 4.90191 10.8378C4.9302 10.7678 4.97231 10.7041 5.02572 10.6507C5.07914 10.5973 5.14276 10.5552 5.2128 10.5269C5.28284 10.4986 5.35786 10.4847 5.43339 10.4861C5.50892 10.4874 5.5834 10.5039 5.6524 10.5347C5.7214 10.5654 5.7835 10.6097 5.835 10.665L6.1875 11.0175L7.29 9.915C7.39547 9.80966 7.53844 9.75049 7.6875 9.75049C7.83656 9.75049 7.97953 9.80966 8.085 9.915ZM13.125 9C14.219 9 15.2682 9.4346 16.0418 10.2082C16.8154 10.9818 17.25 12.031 17.25 13.125C17.25 14.219 16.8154 15.2682 16.0418 16.0418C15.2682 16.8154 14.219 17.25 13.125 17.25C12.031 17.25 10.9818 16.8154 10.2082 16.0418C9.4346 15.2682 9 14.219 9 13.125C9 12.031 9.4346 10.9818 10.2082 10.2082C10.9818 9.4346 12.031 9 13.125 9ZM13.5007 15.3773V13.5H15.3773C15.4767 13.5 15.5721 13.4605 15.6424 13.3902C15.7127 13.3198 15.7523 13.2245 15.7523 13.125C15.7523 13.0255 15.7127 12.9302 15.6424 12.8598C15.5721 12.7895 15.4767 12.75 15.3773 12.75H13.5V10.875C13.5 10.7755 13.4605 10.6802 13.3902 10.6098C13.3198 10.5395 13.2245 10.5 13.125 10.5C13.0255 10.5 12.9302 10.5395 12.8598 10.6098C12.7895 10.6802 12.75 10.7755 12.75 10.875V12.75H10.872C10.7725 12.75 10.6772 12.7895 10.6068 12.8598C10.5365 12.9302 10.497 13.0255 10.497 13.125C10.497 13.2245 10.5365 13.3198 10.6068 13.3902C10.6772 13.4605 10.7725 13.5 10.872 13.5H12.7507V15.3773C12.7507 15.4767 12.7903 15.5721 12.8606 15.6424C12.9309 15.7127 13.0263 15.7523 13.1257 15.7523C13.2252 15.7523 13.3206 15.7127 13.3909 15.6424C13.4612 15.5721 13.5007 15.4767 13.5007 15.3773ZM9.9375 6.375C9.78832 6.375 9.64524 6.43426 9.53975 6.53975C9.43426 6.64524 9.375 6.78832 9.375 6.9375C9.375 7.08668 9.43426 7.22976 9.53975 7.33525C9.64524 7.44074 9.78832 7.5 9.9375 7.5H12.5625C12.7117 7.5 12.8548 7.44074 12.9602 7.33525C13.0657 7.22976 13.125 7.08668 13.125 6.9375C13.125 6.78832 13.0657 6.64524 12.9602 6.53975C12.8548 6.43426 12.7117 6.375 12.5625 6.375H9.9375Z" fill="#1E63D0"/>
</svg>