<svg xmlns="http://www.w3.org/2000/svg" width="20" height="20" viewBox="0 0 20 20" fill="none">
  <mask id="mask0_135_26391" style="mask-type:alpha" maskUnits="userSpaceOnUse" x="0" y="0" width="20" height="20">
    <rect width="20" height="20" fill="#D9D9D9"/>
  </mask>
  <g mask="url(#mask0_135_26391)">
    <path d="M9.45842 10.5415H5.95841C5.80494 10.5415 5.6763 10.4899 5.57248 10.3869C5.46866 10.2839 5.41675 10.1562 5.41675 10.0039C5.41675 9.85162 5.46866 9.72258 5.57248 9.61682C5.6763 9.51105 5.80494 9.45817 5.95841 9.45817H9.45842V5.95817C9.45842 5.8047 9.50993 5.67605 9.61296 5.57223C9.71598 5.46841 9.84365 5.4165 9.99596 5.4165C10.1483 5.4165 10.2773 5.46841 10.3831 5.57223C10.4888 5.67605 10.5417 5.8047 10.5417 5.95817V9.45817H14.0417C14.1952 9.45817 14.3238 9.50969 14.4276 9.61271C14.5315 9.71574 14.5834 9.84341 14.5834 9.99571C14.5834 10.148 14.5315 10.2771 14.4276 10.3828C14.3238 10.4886 14.1952 10.5415 14.0417 10.5415H10.5417V14.0415C10.5417 14.1949 10.4902 14.3236 10.3872 14.4274C10.2841 14.5312 10.1565 14.5831 10.0042 14.5831C9.85186 14.5831 9.72282 14.5312 9.61706 14.4274C9.5113 14.3236 9.45842 14.1949 9.45842 14.0415V10.5415Z" fill="#1E63D0"/>
  </g>
</svg>