<svg xmlns="http://www.w3.org/2000/svg" width="29" height="30" viewBox="0 0 29 30" fill="none">
  <path d="M24.7007 19.9021V19.8001C24.7007 19.3227 24.5111 18.8648 24.1735 18.5272C23.8359 18.1897 23.378 18 22.9006 18H6.09966C5.62225 18 5.16438 18.1897 4.8268 18.5272C4.48921 18.8648 4.29956 19.3227 4.29956 19.8001V19.9021L5.0556 23.6523C5.82129 25.5287 7.12857 27.1346 8.81068 28.2649C10.4928 29.3953 12.4735 29.999 14.5001 29.999C16.5268 29.999 18.5075 29.3953 20.1896 28.2649C21.8717 27.1346 23.179 25.5287 23.9447 23.6523L24.7007 19.9021Z" fill="#BFD9EF"/>
  <path d="M3.70036 4.80078V13.2013H3.10033C1.77426 13.2013 0.700195 11.3231 0.700195 9.00102C0.700195 6.67889 1.77426 4.80078 3.10033 4.80078H3.70036Z" fill="#B0CADC"/>
  <path d="M25.3008 4.80078V13.2013H25.9008C27.2269 13.2013 28.3009 11.3231 28.3009 9.00102C28.3009 6.67889 27.2269 4.80078 25.9008 4.80078H25.3008Z" fill="#B0CADC"/>
  <path d="M25.9009 8.40047V13.2007C25.9009 14.4739 25.3951 15.6948 24.4949 16.595C23.5947 17.4953 22.3737 18.001 21.1006 18.001H7.89988C6.62677 18.001 5.4058 17.4953 4.50558 16.595C3.60535 15.6948 3.09961 14.4739 3.09961 13.2007V4.80027C3.09961 3.52716 3.60535 2.30619 4.50558 1.40597C5.4058 0.505741 6.62677 0 7.89988 0H19.9006H20.5006C23.4831 0 25.9009 2.4178 25.9009 5.4003V8.40047Z" fill="#D7E9FF"/>
  <path d="M23.501 8.40098V13.2013C23.501 13.8378 23.2481 14.4483 22.798 14.8984C22.3479 15.3485 21.7374 15.6014 21.1009 15.6014H7.90013C7.26358 15.6014 6.6531 15.3485 6.20298 14.8984C5.75287 14.4483 5.5 13.8378 5.5 13.2013V7.20092C5.5 6.56436 5.75287 5.95388 6.20298 5.50376C6.6531 5.05365 7.26358 4.80078 7.90013 4.80078H19.9008H21.1009C22.4264 4.80078 23.501 5.87536 23.501 7.20092V8.40098Z" fill="#193870"/>
  <path d="M9.40023 10.1994C10.2287 10.1994 10.9003 9.52778 10.9003 8.6993C10.9003 7.87083 10.2287 7.19922 9.40023 7.19922C8.57176 7.19922 7.90015 7.87083 7.90015 8.6993C7.90015 9.52778 8.57176 10.1994 9.40023 10.1994Z" fill="#21DBDB"/>
  <path d="M19.6007 10.1994C20.4291 10.1994 21.1008 9.52778 21.1008 8.6993C21.1008 7.87083 20.4291 7.19922 19.6007 7.19922C18.7722 7.19922 18.1006 7.87083 18.1006 8.6993C18.1006 9.52778 18.7722 10.1994 19.6007 10.1994Z" fill="#21DBDB"/>
  <path d="M13.3002 10.8008H15.7004C15.8595 10.8008 16.0121 10.864 16.1247 10.9765C16.2372 11.0891 16.3004 11.2417 16.3004 11.4008C16.3004 11.8782 16.1107 12.3361 15.7732 12.6737C15.4356 13.0113 14.9777 13.2009 14.5003 13.2009C14.0229 13.2009 13.565 13.0113 13.2274 12.6737C12.8898 12.3361 12.7002 11.8782 12.7002 11.4008C12.7002 11.2417 12.7634 11.0891 12.8759 10.9765C12.9885 10.864 13.1411 10.8008 13.3002 10.8008Z" fill="#21DBDB"/>
  <path d="M5.12587 23.4464C4.32482 25.7332 2.42032 28.5017 1.38886 28.1759C0.3574 27.8501 0.587813 24.5493 1.38886 22.2632C2.1899 19.977 3.26756 19.5714 4.29962 19.9014C5.33168 20.2315 5.93351 21.1603 5.12587 23.4464Z" fill="#D7E9FF"/>
  <path d="M23.8745 23.4464C24.6755 25.7332 26.58 28.4999 27.6109 28.1759C28.6417 27.8519 28.4125 24.5493 27.6109 22.2632C26.8092 19.977 25.7328 19.5714 24.7007 19.9014C23.6686 20.2315 23.0668 21.1603 23.8745 23.4464Z" fill="#D7E9FF"/>
  <path d="M14.4997 25.8003C15.8253 25.8003 16.8999 24.7257 16.8999 23.4001C16.8999 22.0746 15.8253 21 14.4997 21C13.1742 21 12.0996 22.0746 12.0996 23.4001C12.0996 24.7257 13.1742 25.8003 14.4997 25.8003Z" fill="#193870"/>
</svg>