<svg xmlns="http://www.w3.org/2000/svg" width="16" height="17" viewBox="0 0 16 17" fill="none">
  <path d="M6.55739 3.95312C6.58681 4.74383 6.45275 5.53211 6.1636 6.26863C5.87444 7.00516 5.43641 7.6741 4.87691 8.2336C4.31741 8.7931 3.64847 9.23113 2.91194 9.52029C2.17542 9.80944 1.38714 9.9435 0.596436 9.91408C1.38714 9.88467 2.17542 10.0187 2.91194 10.3079C3.64847 10.597 4.31741 11.0351 4.87691 11.5946C5.43641 12.1541 5.87444 12.823 6.1636 13.5595C6.45275 14.2961 6.58681 15.0843 6.55739 15.875C6.52797 15.0843 6.66203 14.2961 6.95119 13.5595C7.24034 12.823 7.67837 12.1541 8.23787 11.5946C8.79737 11.0351 9.46631 10.597 10.2028 10.3079C10.9394 10.0187 11.7276 9.88467 12.5183 9.91408C11.7276 9.9435 10.9394 9.80944 10.2028 9.52029C9.46631 9.23113 8.79737 8.7931 8.23787 8.2336C7.67837 7.6741 7.24034 7.00516 6.95119 6.26863C6.66203 5.5321 6.52797 4.74383 6.55739 3.95312Z" fill="white"/>
  <path d="M12.6107 1.23828C12.6261 1.65228 12.5559 2.065 12.4045 2.45063C12.2531 2.83626 12.0237 3.18651 11.7308 3.47945C11.4378 3.77239 11.0876 4.00174 10.702 4.15313C10.3163 4.30453 9.90362 4.37472 9.48962 4.35932C9.90362 4.34391 10.3163 4.4141 10.702 4.5655C11.0876 4.71689 11.4378 4.94624 11.7308 5.23918C12.0237 5.53212 12.2531 5.88236 12.4045 6.26799C12.5559 6.65363 12.6261 7.06635 12.6107 7.48035C12.5953 7.06635 12.6654 6.65363 12.8168 6.268C12.9682 5.88237 13.1976 5.53212 13.4905 5.23918C13.7835 4.94624 14.1337 4.7169 14.5193 4.5655C14.905 4.4141 15.3177 4.34391 15.7317 4.35932C15.3177 4.37472 14.905 4.30453 14.5193 4.15313C14.1337 4.00173 13.7835 3.77239 13.4905 3.47945C13.1976 3.1865 12.9682 2.83626 12.8168 2.45063C12.6654 2.065 12.5953 1.65228 12.6107 1.23828Z" fill="white"/>
</svg>