<svg width="18" height="18" viewBox="0 0 18 18" fill="none" xmlns="http://www.w3.org/2000/svg">
<path d="M6.75 3.92383C6.75 3.47628 6.92779 3.04705 7.24426 2.73059C7.56073 2.41412 7.98995 2.23633 8.4375 2.23633H9.5625C10.0101 2.23633 10.4393 2.41412 10.7557 2.73059C11.0722 3.04705 11.25 3.47628 11.25 3.92383V15.7513H6.75V3.92383ZM5.625 7.50133H3.9375C3.48995 7.50133 3.06072 7.67912 2.74426 7.99559C2.42779 8.31205 2.25 8.74128 2.25 9.18883V15.1888C2.25 15.5001 2.502 15.7513 2.8125 15.7513H5.625V7.50133ZM12.375 15.7513H15.1875C15.3367 15.7513 15.4798 15.6921 15.5852 15.5866C15.6907 15.4811 15.75 15.338 15.75 15.1888V6.93883C15.75 6.49128 15.5722 6.06205 15.2557 5.74559C14.9393 5.42912 14.5101 5.25133 14.0625 5.25133H12.375V15.7513Z" fill="#1E63D0"/>
</svg>
