<svg xmlns="http://www.w3.org/2000/svg" width="18" height="18" viewBox="0 0 18 18" fill="none">
  <path d="M9 1.5V6C9 6.39782 8.84196 6.77936 8.56066 7.06066C8.27936 7.34196 7.89782 7.5 7.5 7.5H3V15.375C3 15.6734 3.11853 15.9595 3.32951 16.1705C3.54048 16.3815 3.82663 16.5 4.125 16.5H8.25V10.5C8.25 10.1022 8.40804 9.72064 8.68934 9.43934C8.97064 9.15804 9.35218 9 9.75 9H15V2.625C15 2.32663 14.8815 2.04048 14.6705 1.8295C14.4595 1.61853 14.1734 1.5 13.875 1.5H9Z" fill="#E9EFFA"/>
  <path d="M7.875 1.875V6C7.875 6.09946 7.83549 6.19484 7.76517 6.26517C7.69484 6.33549 7.59946 6.375 7.5 6.375H3.375L7.875 1.875ZM12.5625 13.125C12.5625 12.9758 12.6218 12.8327 12.7273 12.7273C12.8327 12.6218 12.9758 12.5625 13.125 12.5625C13.2742 12.5625 13.4173 12.6218 13.5227 12.7273C13.6282 12.8327 13.6875 12.9758 13.6875 13.125V15.75C13.6875 15.8992 13.6282 16.0423 13.5227 16.1477C13.4173 16.2532 13.2742 16.3125 13.125 16.3125C12.9758 16.3125 12.8327 16.2532 12.7273 16.1477C12.6218 16.0423 12.5625 15.8992 12.5625 15.75V13.125ZM12.5625 11.4375C12.5625 11.5867 12.6218 11.7298 12.7273 11.8352C12.8327 11.9407 12.9758 12 13.125 12C13.2742 12 13.4173 11.9407 13.5227 11.8352C13.6282 11.7298 13.6875 11.5867 13.6875 11.4375C13.6875 11.2883 13.6282 11.1452 13.5227 11.0398C13.4173 10.9343 13.2742 10.875 13.125 10.875C12.9758 10.875 12.8327 10.9343 12.7273 11.0398C12.6218 11.1452 12.5625 11.2883 12.5625 11.4375ZM14.625 10.3125C14.625 10.4617 14.6843 10.6048 14.7898 10.7102C14.8952 10.8157 15.0383 10.875 15.1875 10.875H16.125V16.125H15.1875C15.0383 16.125 14.8952 16.1843 14.7898 16.2898C14.6843 16.3952 14.625 16.5383 14.625 16.6875C14.625 16.8367 14.6843 16.9798 14.7898 17.0852C14.8952 17.1907 15.0383 17.25 15.1875 17.25H16.125C16.4234 17.25 16.7095 17.1315 16.9205 16.9205C17.1315 16.7095 17.25 16.4234 17.25 16.125V10.875C17.25 10.5766 17.1315 10.2905 16.9205 10.0795C16.7095 9.86853 16.4234 9.75 16.125 9.75H15.1875C15.0383 9.75 14.8952 9.80926 14.7898 9.91475C14.6843 10.0202 14.625 10.1633 14.625 10.3125ZM11.0625 10.875C11.2117 10.875 11.3548 10.8157 11.4602 10.7102C11.5657 10.6048 11.625 10.4617 11.625 10.3125C11.625 10.1633 11.5657 10.0202 11.4602 9.91475C11.3548 9.80926 11.2117 9.75 11.0625 9.75H10.125C9.82663 9.75 9.54048 9.86853 9.3295 10.0795C9.11853 10.2905 9 10.5766 9 10.875V16.125C9 16.4234 9.11853 16.7095 9.3295 16.9205C9.54048 17.1315 9.82663 17.25 10.125 17.25H11.0625C11.2117 17.25 11.3548 17.1907 11.4602 17.0852C11.5657 16.9798 11.625 16.8367 11.625 16.6875C11.625 16.5383 11.5657 16.3952 11.4602 16.2898C11.3548 16.1843 11.2117 16.125 11.0625 16.125H10.125V10.875H11.0625Z" fill="#E9EFFA"/>
</svg>