<svg width="17" height="16" viewBox="0 0 17 16" fill="none" xmlns="http://www.w3.org/2000/svg">
<path d="M2.83013 3.19922C2.16739 3.19922 1.63013 3.73648 1.63013 4.39922V5.99922C1.63013 6.66196 2.16739 7.19922 2.83013 7.19922H4.43013C5.09287 7.19922 5.63013 6.66196 5.63013 5.99922V4.39922C5.63013 3.73648 5.09287 3.19922 4.43013 3.19922H2.83013ZM2.43013 4.39922C2.43013 4.1783 2.60921 3.99922 2.83013 3.99922H4.43013C4.65104 3.99922 4.83013 4.1783 4.83013 4.39922V5.99922C4.83013 6.22013 4.65104 6.39922 4.43013 6.39922H2.83013C2.60921 6.39922 2.43013 6.22013 2.43013 5.99922V4.39922ZM7.63013 3.99922C7.40921 3.99922 7.23013 4.1783 7.23013 4.39922C7.23013 4.62013 7.40921 4.79922 7.63013 4.79922H14.0301C14.251 4.79922 14.4301 4.62013 14.4301 4.39922C14.4301 4.1783 14.251 3.99922 14.0301 3.99922H7.63013ZM7.63013 5.59922C7.40921 5.59922 7.23013 5.7783 7.23013 5.99922C7.23013 6.22013 7.40921 6.39922 7.63013 6.39922H12.4301C12.651 6.39922 12.8301 6.22013 12.8301 5.99922C12.8301 5.7783 12.651 5.59922 12.4301 5.59922H7.63013ZM2.83013 8.79922C2.16739 8.79922 1.63013 9.33648 1.63013 9.99922V11.5992C1.63013 12.262 2.16739 12.7992 2.83013 12.7992H4.43013C5.09287 12.7992 5.63013 12.262 5.63013 11.5992V9.99922C5.63013 9.33648 5.09287 8.79922 4.43013 8.79922H2.83013ZM2.43013 9.99922C2.43013 9.77831 2.60921 9.59922 2.83013 9.59922H4.43013C4.65104 9.59922 4.83013 9.77831 4.83013 9.99922V11.5992C4.83013 11.8201 4.65104 11.9992 4.43013 11.9992H2.83013C2.60921 11.9992 2.43013 11.8201 2.43013 11.5992V9.99922ZM7.63013 9.59922C7.40921 9.59922 7.23013 9.77831 7.23013 9.99922C7.23013 10.2201 7.40921 10.3992 7.63013 10.3992H14.0301C14.251 10.3992 14.4301 10.2201 14.4301 9.99922C14.4301 9.77831 14.251 9.59922 14.0301 9.59922H7.63013ZM7.63013 11.1992C7.40921 11.1992 7.23013 11.3783 7.23013 11.5992C7.23013 11.8201 7.40921 11.9992 7.63013 11.9992H12.4301C12.651 11.9992 12.8301 11.8201 12.8301 11.5992C12.8301 11.3783 12.651 11.1992 12.4301 11.1992H7.63013Z" fill="#485566"/>
</svg>
