<svg xmlns="http://www.w3.org/2000/svg" width="17" height="16" viewBox="0 0 17 16" fill="none">
  <path fill-rule="evenodd" clip-rule="evenodd" d="M2.87 4.078C2.87 2.967 3.73 2 4.87 2H12.87C14.01 2 14.87 2.967 14.87 4.078V10.471C14.87 11.582 14.01 12.549 12.87 12.549H9.53699V12.589C9.53699 13.699 8.67699 14.667 7.53699 14.667H4.87C3.73 14.667 2.87 13.7 2.87 12.588V4.078ZM8.203 3.333H4.87C4.537 3.333 4.203 3.631 4.203 4.078V12.588C4.203 13.036 4.537 13.333 4.87 13.333H7.53699C7.86899 13.333 8.203 13.036 8.203 12.588V3.333ZM9.53699 3.333V11.216H12.87C13.203 11.216 13.537 10.919 13.537 10.471V4.078C13.537 3.631 13.203 3.333 12.87 3.333H9.53699Z" fill="#485566"/>
</svg>