<svg xmlns="http://www.w3.org/2000/svg" width="18" height="18" viewBox="0 0 18 18" fill="none">
  <path d="M6.77988 14.2524H11.2169C11.1282 14.7767 10.8568 15.2526 10.4507 15.5958C10.0446 15.939 9.53008 16.1273 8.99838 16.1273C8.46669 16.1273 7.95218 15.939 7.54608 15.5958C7.13999 15.2526 6.86854 14.7767 6.77988 14.2524ZM8.99838 1.50244C10.4902 1.50244 11.921 2.09507 12.9759 3.14997C14.0308 4.20486 14.6234 5.6356 14.6234 7.12744V10.1274L15.6869 12.4974C15.7352 12.6058 15.7557 12.7246 15.7465 12.8429C15.7373 12.9613 15.6987 13.0754 15.6342 13.175C15.5697 13.2747 15.4813 13.3566 15.3771 13.4134C15.2728 13.4701 15.1561 13.5 15.0374 13.5002H2.96238C2.84353 13.5002 2.72658 13.4704 2.62216 13.4136C2.51774 13.3569 2.42919 13.2749 2.36456 13.1751C2.29993 13.0754 2.26127 12.9611 2.25212 12.8426C2.24296 12.7241 2.26359 12.6052 2.31213 12.4967L3.37338 10.1267V7.11769L3.37713 6.93019C3.42844 5.47358 4.04313 4.09375 5.09171 3.08141C6.14029 2.06907 7.54087 1.50251 8.99838 1.50244Z" fill="white"/>
</svg>