<svg width="18" height="18" viewBox="0 0 18 18" fill="none" xmlns="http://www.w3.org/2000/svg">
<path d="M9 6V1.5H4.5C4.10218 1.5 3.72064 1.65804 3.43934 1.93934C3.15804 2.22064 3 2.60218 3 3V15C3 15.3978 3.15804 15.7794 3.43934 16.0607C3.72064 16.342 4.10218 16.5 4.5 16.5H13.5C13.8978 16.5 14.2794 16.342 14.5607 16.0607C14.842 15.7794 15 15.3978 15 15V7.5H10.5C10.1022 7.5 9.72064 7.34196 9.43934 7.06066C9.15804 6.77936 9 6.39782 9 6ZM5.25 9.1875C5.25 9.03832 5.30926 8.89524 5.41475 8.78975C5.52024 8.68426 5.66332 8.625 5.8125 8.625C5.96168 8.625 6.10476 8.68426 6.21025 8.78975C6.31574 8.89524 6.375 9.03832 6.375 9.1875C6.375 9.33668 6.31574 9.47976 6.21025 9.58525C6.10476 9.69074 5.96168 9.75 5.8125 9.75C5.66332 9.75 5.52024 9.69074 5.41475 9.58525C5.30926 9.47976 5.25 9.33668 5.25 9.1875ZM5.25 11.4375C5.25 11.2883 5.30926 11.1452 5.41475 11.0398C5.52024 10.9343 5.66332 10.875 5.8125 10.875C5.96168 10.875 6.10476 10.9343 6.21025 11.0398C6.31574 11.1452 6.375 11.2883 6.375 11.4375C6.375 11.5867 6.31574 11.7298 6.21025 11.8352C6.10476 11.9407 5.96168 12 5.8125 12C5.66332 12 5.52024 11.9407 5.41475 11.8352C5.30926 11.7298 5.25 11.5867 5.25 11.4375ZM5.25 13.6875C5.25 13.5383 5.30926 13.3952 5.41475 13.2898C5.52024 13.1843 5.66332 13.125 5.8125 13.125C5.96168 13.125 6.10476 13.1843 6.21025 13.2898C6.31574 13.3952 6.375 13.5383 6.375 13.6875C6.375 13.8367 6.31574 13.9798 6.21025 14.0852C6.10476 14.1907 5.96168 14.25 5.8125 14.25C5.66332 14.25 5.52024 14.1907 5.41475 14.0852C5.30926 13.9798 5.25 13.8367 5.25 13.6875ZM7.5 9.1875C7.5 9.03832 7.55926 8.89524 7.66475 8.78975C7.77024 8.68426 7.91332 8.625 8.0625 8.625H12.1875C12.3367 8.625 12.4798 8.68426 12.5852 8.78975C12.6907 8.89524 12.75 9.03832 12.75 9.1875C12.75 9.33668 12.6907 9.47976 12.5852 9.58525C12.4798 9.69074 12.3367 9.75 12.1875 9.75H8.0625C7.91332 9.75 7.77024 9.69074 7.66475 9.58525C7.55926 9.47976 7.5 9.33668 7.5 9.1875ZM7.5 11.4375C7.5 11.2883 7.55926 11.1452 7.66475 11.0398C7.77024 10.9343 7.91332 10.875 8.0625 10.875H12.1875C12.3367 10.875 12.4798 10.9343 12.5852 11.0398C12.6907 11.1452 12.75 11.2883 12.75 11.4375C12.75 11.5867 12.6907 11.7298 12.5852 11.8352C12.4798 11.9407 12.3367 12 12.1875 12H8.0625C7.91332 12 7.77024 11.9407 7.66475 11.8352C7.55926 11.7298 7.5 11.5867 7.5 11.4375ZM7.5 13.6875C7.5 13.5383 7.55926 13.3952 7.66475 13.2898C7.77024 13.1843 7.91332 13.125 8.0625 13.125H12.1875C12.3367 13.125 12.4798 13.1843 12.5852 13.2898C12.6907 13.3952 12.75 13.5383 12.75 13.6875C12.75 13.8367 12.6907 13.9798 12.5852 14.0852C12.4798 14.1907 12.3367 14.25 12.1875 14.25H8.0625C7.91332 14.25 7.77024 14.1907 7.66475 14.0852C7.55926 13.9798 7.5 13.8367 7.5 13.6875ZM10.125 6V1.875L14.625 6.375H10.5C10.4005 6.375 10.3052 6.33549 10.2348 6.26517C10.1645 6.19484 10.125 6.09946 10.125 6Z" fill="#1E63D0"/>
</svg>
