<svg xmlns="http://www.w3.org/2000/svg" width="17" height="16" viewBox="0 0 17 16" fill="none">
  <path fill-rule="evenodd" clip-rule="evenodd" d="M2.6001 4.078C2.6001 2.967 3.4601 2 4.6001 2H12.6001C13.7401 2 14.6001 2.967 14.6001 4.078V10.471C14.6001 11.582 13.7401 12.549 12.6001 12.549H9.2671V12.589C9.2671 13.699 8.4071 14.667 7.2671 14.667H4.6001C3.4601 14.667 2.6001 13.7 2.6001 12.588V4.078ZM7.9331 3.333H4.6001C4.2671 3.333 3.9331 3.631 3.9331 4.078V12.588C3.9331 13.036 4.2671 13.333 4.6001 13.333H7.2671C7.5991 13.333 7.9331 13.036 7.9331 12.588V3.333ZM9.2671 3.333V11.216H12.6001C12.9331 11.216 13.2671 10.919 13.2671 10.471V4.078C13.2671 3.631 12.9331 3.333 12.6001 3.333H9.2671Z" fill="#485566"/>
</svg>