<svg width="17" height="16" viewBox="0 0 17 16" fill="none" xmlns="http://www.w3.org/2000/svg">
<g id="Book">
<path id="Shape" d="M3.57007 3.19961V12.7996C3.57007 13.6833 4.28641 14.3996 5.17007 14.3996H12.7701C12.991 14.3996 13.1701 14.2205 13.1701 13.9996C13.1701 13.7787 12.991 13.5996 12.7701 13.5996H5.17007C4.72824 13.5996 4.37007 13.2414 4.37007 12.7996H12.3701C12.8119 12.7996 13.1701 12.4414 13.1701 11.9996V3.19961C13.1701 2.31595 12.4537 1.59961 11.5701 1.59961H5.17007C4.28641 1.59961 3.57007 2.31595 3.57007 3.19961ZM11.5701 2.39961C12.0119 2.39961 12.3701 2.75778 12.3701 3.19961V11.9996H4.37007V3.19961C4.37007 2.75778 4.72824 2.39961 5.17007 2.39961H11.5701ZM8.97007 4.59961C8.97007 4.26824 8.70144 3.99961 8.37007 3.99961C8.0387 3.99961 7.77007 4.26824 7.77007 4.59961C7.77007 4.93098 8.0387 5.19961 8.37007 5.19961C8.70144 5.19961 8.97007 4.93098 8.97007 4.59961ZM8.77007 9.99961C8.77007 10.2205 8.59098 10.3996 8.37007 10.3996C8.14915 10.3996 7.97007 10.2205 7.97007 9.99961V6.79961C7.97007 6.5787 8.14915 6.39961 8.37007 6.39961C8.59098 6.39961 8.77007 6.5787 8.77007 6.79961V9.99961Z" fill="#1E63D0"/>
</g>
</svg>
