<svg xmlns="http://www.w3.org/2000/svg" width="14" height="14" viewBox="0 0 14 14" fill="none">
  <path fill-rule="evenodd" clip-rule="evenodd" d="M4.53375 1.66519C4.82815 1.66519 5.06655 1.90439 5.06655 2.19879V2.73239H9.33375V2.19879C9.33097 2.12703 9.3427 2.05545 9.36824 1.98833C9.39379 1.92122 9.43261 1.85995 9.4824 1.80819C9.53219 1.75644 9.59191 1.71527 9.65798 1.68715C9.72406 1.65903 9.79513 1.64453 9.86695 1.64453C9.93876 1.64453 10.0098 1.65903 10.0759 1.68715C10.142 1.71527 10.2017 1.75644 10.2515 1.80819C10.3013 1.85995 10.3401 1.92122 10.3657 1.98833C10.3912 2.05545 10.4029 2.12703 10.4001 2.19879V2.79879C11.3201 3.03639 12.0001 3.87079 12.0001 4.86519V10.1988C12.0001 10.7647 11.7754 11.3073 11.3752 11.7075C10.9751 12.1076 10.4324 12.3324 9.86655 12.3324H4.53375C3.96788 12.3324 3.42519 12.1076 3.02506 11.7075C2.62494 11.3073 2.40015 10.7647 2.40015 10.1988V4.86519C2.40015 3.87159 3.08015 3.03639 4.00015 2.79959V2.19879C4.00015 1.90439 4.23855 1.66519 4.53375 1.66519ZM4.53375 3.79879C3.94415 3.79879 3.46655 4.27639 3.46655 4.86519V5.39879H10.9337V4.86519C10.9337 4.27639 10.4561 3.79879 9.86655 3.79879H4.53375ZM10.9337 6.46519H3.46655V10.1988C3.46655 10.7876 3.94415 11.2652 4.53375 11.2652H9.86655C10.4561 11.2652 10.9337 10.7876 10.9337 10.1988V6.46519Z" fill="#485566"/>
</svg>