<svg xmlns="http://www.w3.org/2000/svg" width="20" height="20" viewBox="0 0 20 20" fill="none">
  <mask id="mask0_1229_28224" style="mask-type:alpha" maskUnits="userSpaceOnUse" x="0" y="0" width="20" height="20">
    <rect width="20" height="20" fill="#D9D9D9"/>
  </mask>
  <g mask="url(#mask0_1229_28224)">
    <path d="M12.1648 14.9998C11.6542 14.9998 11.2191 14.8216 10.8596 14.4652C10.5001 14.1088 10.3204 13.6753 10.3204 13.1647C10.3204 12.6541 10.4985 12.2191 10.8549 11.8596C11.2113 11.5001 11.6448 11.3203 12.1554 11.3203C12.666 11.3203 13.1011 11.4985 13.4606 11.8549C13.8201 12.2113 13.9998 12.6447 13.9998 13.1554C13.9998 13.666 13.8216 14.101 13.4653 14.4605C13.1089 14.82 12.6754 14.9998 12.1648 14.9998ZM4.75625 17.5831C4.38114 17.5831 4.06407 17.4511 3.80505 17.1873C3.54602 16.9234 3.4165 16.6087 3.4165 16.2433V5.75621C3.4165 5.39082 3.54602 5.07618 3.80505 4.81229C4.06407 4.5484 4.38114 4.41646 4.75625 4.41646H6.57677V2.32031H7.69213V4.41646H12.3395V2.32031H13.4229V4.41646H15.2434C15.6185 4.41646 15.9356 4.5484 16.1946 4.81229C16.4536 5.07618 16.5831 5.39082 16.5831 5.75621V16.2433C16.5831 16.6087 16.4536 16.9234 16.1946 17.1873C15.9356 17.4511 15.6185 17.5831 15.2434 17.5831H4.75625ZM4.75625 16.4998H15.2434C15.3075 16.4998 15.3663 16.4731 15.4197 16.4196C15.4731 16.3662 15.4998 16.3074 15.4998 16.2433V9.25621H4.49982V16.2433C4.49982 16.3074 4.52652 16.3662 4.57994 16.4196C4.63337 16.4731 4.69214 16.4998 4.75625 16.4998ZM4.49982 8.1729H15.4998V5.75621C15.4998 5.6921 15.4731 5.63333 15.4197 5.5799C15.3663 5.52648 15.3075 5.49977 15.2434 5.49977H4.75625C4.69214 5.49977 4.63337 5.52648 4.57994 5.5799C4.52652 5.63333 4.49982 5.6921 4.49982 5.75621V8.1729Z" fill="#485566"/>
  </g>
</svg>