<svg width="21" height="20" viewBox="0 0 21 20" fill="none" xmlns="http://www.w3.org/2000/svg">
<path d="M15.66 1.94176L18.3092 4.59093C18.4833 4.76504 18.6214 4.97174 18.7156 5.19922C18.8099 5.42671 18.8583 5.67053 18.8583 5.91676C18.8583 6.16299 18.8099 6.40681 18.7156 6.6343C18.6214 6.86179 18.4833 7.06848 18.3092 7.24259L16.1558 9.39593C16.5994 9.46313 17.0042 9.68717 17.2968 10.0274C17.5893 10.3676 17.7501 10.8014 17.75 11.2501V15.6251C17.75 16.1224 17.5525 16.5993 17.2008 16.9509C16.8492 17.3026 16.3723 17.5001 15.875 17.5001H4.625C4.12772 17.5001 3.65081 17.3026 3.29917 16.9509C2.94754 16.5993 2.75 16.1224 2.75 15.6251V4.37509C2.75 3.87781 2.94754 3.4009 3.29917 3.04927C3.65081 2.69764 4.12772 2.50009 4.625 2.50009H9C9.44892 2.50008 9.88294 2.66113 10.2232 2.95397C10.5634 3.24681 10.7873 3.65201 10.8542 4.09593L13.0083 1.94176C13.1824 1.76765 13.3891 1.62954 13.6166 1.53531C13.8441 1.44108 14.0879 1.39258 14.3342 1.39258C14.5804 1.39258 14.8242 1.44108 15.0517 1.53531C15.2792 1.62954 15.4859 1.76765 15.66 1.94176ZM4 15.6251C4 15.9701 4.28 16.2501 4.625 16.2501L9.62417 16.2493L9.625 10.6243H4V15.6251ZM10.8742 16.2493H15.875C16.0408 16.2493 16.1997 16.1834 16.3169 16.0662C16.4342 15.949 16.5 15.79 16.5 15.6243V11.2501C16.5 11.0843 16.4342 10.9254 16.3169 10.8082C16.1997 10.6909 16.0408 10.6251 15.875 10.6251H10.8742V16.2493ZM9 3.74926H4.625C4.45924 3.74926 4.30027 3.81511 4.18306 3.93232C4.06585 4.04953 4 4.2085 4 4.37426V9.37426H9.625V4.37426C9.625 4.2085 9.55915 4.04953 9.44194 3.93232C9.32473 3.81511 9.16576 3.74926 9 3.74926ZM10.875 7.75759V9.37426H12.4917L10.875 7.75759ZM13.8917 2.82593L11.2433 5.47426C11.1853 5.5323 11.1392 5.60122 11.1077 5.67707C11.0763 5.75293 11.0601 5.83423 11.0601 5.91634C11.0601 5.99845 11.0763 6.07976 11.1077 6.15561C11.1392 6.23147 11.1853 6.30039 11.2433 6.35843L13.8925 9.00759C14.0097 9.12464 14.1685 9.19038 14.3342 9.19038C14.4998 9.19038 14.6586 9.12464 14.7758 9.00759L17.4258 6.35843C17.5429 6.24124 17.6086 6.08239 17.6086 5.91676C17.6086 5.75114 17.5429 5.59228 17.4258 5.47509L14.7758 2.82509C14.6586 2.70805 14.4998 2.64231 14.3342 2.64231C14.1685 2.64231 14.0097 2.70805 13.8925 2.82509L13.8917 2.82593Z" fill="#A3ADBD"/>
</svg>
