<svg xmlns="http://www.w3.org/2000/svg" width="18" height="18" viewBox="0 0 18 18" fill="none">
  <path d="M11.7802 3.21974C11.9208 3.36039 11.9998 3.55112 11.9998 3.74999C11.9998 3.94887 11.9208 4.1396 11.7802 4.28024L7.06046 8.99999L11.7802 13.7197C11.9168 13.8612 11.9924 14.0506 11.9907 14.2473C11.989 14.4439 11.9101 14.6321 11.7711 14.7711C11.632 14.9102 11.4439 14.989 11.2473 14.9907C11.0506 14.9925 10.8612 14.9169 10.7197 14.7802L5.46971 9.53024C5.32911 9.3896 5.25012 9.19887 5.25012 8.99999C5.25012 8.80112 5.32911 8.61039 5.46971 8.46974L10.7197 3.21974C10.8604 3.07914 11.0511 3.00015 11.25 3.00015C11.4488 3.00015 11.6396 3.07914 11.7802 3.21974Z" fill="#485566"/>
</svg>