<svg xmlns="http://www.w3.org/2000/svg" width="18" height="18" viewBox="0 0 18 18" fill="none">
  <path d="M6.21979 14.7803C6.07919 14.6396 6.0002 14.4489 6.0002 14.25C6.0002 14.0511 6.07919 13.8604 6.21979 13.7198L10.9395 9.00001L6.21979 4.28026C6.08317 4.13881 6.00757 3.94935 6.00928 3.75271C6.01099 3.55606 6.08987 3.36795 6.22892 3.22889C6.36798 3.08984 6.55609 3.01096 6.75274 3.00925C6.94939 3.00754 7.13884 3.08314 7.28029 3.21976L12.5303 8.46976C12.6709 8.6104 12.7499 8.80113 12.7499 9.00001C12.7499 9.19888 12.6709 9.38961 12.5303 9.53026L7.28029 14.7803C7.13964 14.9209 6.94891 14.9998 6.75004 14.9998C6.55117 14.9998 6.36043 14.9209 6.21979 14.7803Z" fill="#485566"/>
</svg>