<svg xmlns="http://www.w3.org/2000/svg" width="20" height="20" viewBox="0 0 20 20" fill="none">
  <mask id="mask0_1229_28230" style="mask-type:alpha" maskUnits="userSpaceOnUse" x="0" y="0" width="20" height="20">
    <rect width="20" height="20" fill="#D9D9D9"/>
  </mask>
  <g mask="url(#mask0_1229_28230)">
    <path d="M12.9357 13.3972L13.7097 12.6232L10.5415 9.45475V4.99982H9.45817V9.91969L12.9357 13.3972ZM10.0012 17.5831C8.95661 17.5831 7.97473 17.3858 7.05555 16.991C6.13636 16.5963 5.33085 16.0532 4.639 15.3617C3.94714 14.6701 3.40376 13.864 3.00886 12.9432C2.61396 12.0224 2.4165 11.0386 2.4165 9.99167C2.4165 8.94475 2.61387 7.96041 3.00859 7.03863C3.40331 6.11684 3.94643 5.31349 4.63796 4.62859C5.3295 3.94367 6.13566 3.40376 7.05644 3.00886C7.97722 2.61396 8.96106 2.4165 10.008 2.4165C11.0549 2.4165 12.0393 2.61553 12.9611 3.01359C13.883 3.41164 14.6849 3.95185 15.3668 4.63421C16.0488 5.31659 16.5886 6.11901 16.9864 7.04148C17.3842 7.96394 17.5831 8.94959 17.5831 9.99842C17.5831 11.043 17.3858 12.0249 16.991 12.9441C16.5963 13.8633 16.0567 14.6688 15.3721 15.3606C14.6875 16.0525 13.8836 16.5959 12.9604 16.9908C12.0373 17.3857 11.0509 17.5831 10.0012 17.5831ZM10.0098 16.4998C11.808 16.4998 13.3393 15.8644 14.6035 14.5936C15.8677 13.3227 16.4998 11.7882 16.4998 9.98988C16.4998 8.19159 15.8677 6.66034 14.6035 5.39613C13.3393 4.13192 11.808 3.49982 10.0098 3.49982C8.21146 3.49982 6.6769 4.13192 5.40607 5.39613C4.13523 6.66034 3.49982 8.19159 3.49982 9.98988C3.49982 11.7882 4.13523 13.3227 5.40607 14.5936C6.6769 15.8644 8.21146 16.4998 10.0098 16.4998Z" fill="#485566"/>
  </g>
</svg>