<svg xmlns="http://www.w3.org/2000/svg" width="20" height="20" viewBox="0 0 20 20" fill="none">
  <mask id="mask0_275_55841" style="mask-type:alpha" maskUnits="userSpaceOnUse" x="0" y="0" width="20" height="20">
    <rect width="20" height="20" fill="#D9D9D9"/>
  </mask>
  <g mask="url(#mask0_275_55841)">
    <path d="M9.99995 10.8863L7.2948 13.5915C7.17408 13.7122 7.02771 13.7712 6.8557 13.7686C6.6837 13.7659 6.53734 13.7042 6.41662 13.5835C6.29589 13.4628 6.23553 13.315 6.23553 13.1404C6.23553 12.9657 6.29589 12.818 6.41662 12.6973L9.11376 10.0001L6.4086 7.31583C6.28787 7.19511 6.22885 7.0474 6.23153 6.87272C6.2342 6.69804 6.29589 6.55034 6.41662 6.42962C6.53734 6.3089 6.68504 6.24854 6.85972 6.24854C7.03439 6.24854 7.18208 6.3089 7.3028 6.42962L9.99995 9.13479L12.6843 6.42962C12.805 6.3089 12.9514 6.24854 13.1234 6.24854C13.2954 6.24854 13.4417 6.3089 13.5624 6.42962C13.6917 6.5589 13.7563 6.70874 13.7563 6.87914C13.7563 7.04954 13.6917 7.19511 13.5624 7.31583L10.8653 10.0001L13.5705 12.7053C13.6912 12.826 13.7516 12.9724 13.7516 13.1444C13.7516 13.3164 13.6912 13.4628 13.5705 13.5835C13.4412 13.7127 13.2914 13.7774 13.1209 13.7774C12.9505 13.7774 12.805 13.7127 12.6843 13.5835L9.99995 10.8863Z" fill="#485566"/>
  </g>
</svg>