<svg xmlns="http://www.w3.org/2000/svg" width="16" height="16" viewBox="0 0 16 16" fill="none">
  <path d="M7.20002 3.99998C7.20002 2.67449 6.12551 1.59998 4.80002 1.59998C3.47454 1.59998 2.40002 2.67449 2.40002 3.99998C2.40002 5.18917 3.26494 6.17636 4.40002 6.36679V9.63316C3.26494 9.82359 2.40002 10.8108 2.40002 12C2.40002 13.3255 3.47454 14.4 4.80002 14.4C6.12551 14.4 7.20002 13.3255 7.20002 12C7.20002 10.8108 6.33511 9.82359 5.20002 9.63316V8.79998H9.60002C10.7046 8.79998 11.6 7.90454 11.6 6.79998V6.36679C12.7351 6.17636 13.6 5.18917 13.6 3.99998C13.6 2.67449 12.5255 1.59998 11.2 1.59998C9.87454 1.59998 8.80002 2.67449 8.80002 3.99998C8.80002 5.18917 9.66494 6.17636 10.8 6.36679V6.79998C10.8 7.46272 10.2628 7.99998 9.60002 7.99998H5.20002V6.36679C6.33511 6.17636 7.20002 5.18917 7.20002 3.99998ZM4.80002 5.59998C3.91637 5.59998 3.20002 4.88363 3.20002 3.99998C3.20002 3.11632 3.91637 2.39998 4.80002 2.39998C5.68368 2.39998 6.40002 3.11632 6.40002 3.99998C6.40002 4.88363 5.68368 5.59998 4.80002 5.59998ZM4.80002 13.6C3.91637 13.6 3.20002 12.8836 3.20002 12C3.20002 11.1163 3.91637 10.4 4.80002 10.4C5.68368 10.4 6.40002 11.1163 6.40002 12C6.40002 12.8836 5.68368 13.6 4.80002 13.6ZM12.8 3.99998C12.8 4.88363 12.0837 5.59998 11.2 5.59998C10.3164 5.59998 9.60002 4.88363 9.60002 3.99998C9.60002 3.11632 10.3164 2.39998 11.2 2.39998C12.0837 2.39998 12.8 3.11632 12.8 3.99998Z" fill="#1E63D0"/>
</svg>