<svg xmlns="http://www.w3.org/2000/svg" width="18" height="18" viewBox="0 0 18 18" fill="none">
  <path d="M5.28831 11.4339V7.06326H4.49609V11.7267C4.49609 12.6792 5.2682 13.4513 6.22064 13.4513H11.0979V12.5836H6.43801C5.80305 12.5836 5.28831 12.0689 5.28831 11.4339Z" fill="#485566"/>
  <path d="M7.05011 4.93842C7.05011 6.13989 6.07613 7.11387 4.87467 7.11387C3.6732 7.11387 2.69922 6.13989 2.69922 4.93842C2.69922 3.73695 3.6732 2.76297 4.87467 2.76297C6.07613 2.76297 7.05011 3.73695 7.05011 4.93842ZM3.50395 4.93842C3.50395 5.69545 4.11764 6.30914 4.87467 6.30914C5.63169 6.30914 6.24539 5.69545 6.24539 4.93842C6.24539 4.18139 5.63169 3.5677 4.87467 3.5677C4.11764 3.5677 3.50395 4.18139 3.50395 4.93842Z" fill="#485566"/>
  <path d="M15.3001 13.0618C15.3001 14.2633 14.3261 15.2373 13.1247 15.2373C11.9232 15.2373 10.9492 14.2633 10.9492 13.0618C10.9492 11.8604 11.9232 10.8864 13.1247 10.8864C14.3261 10.8864 15.3001 11.8604 15.3001 13.0618ZM11.7539 13.0618C11.7539 13.8189 12.3676 14.4326 13.1247 14.4326C13.8817 14.4326 14.4954 13.8189 14.4954 13.0618C14.4954 12.3048 13.8817 11.6911 13.1247 11.6911C12.3676 11.6911 11.7539 12.3048 11.7539 13.0618Z" fill="#485566"/>
</svg>