<svg xmlns="http://www.w3.org/2000/svg" width="18" height="18" viewBox="0 0 18 18" fill="none">
  <path d="M12.1875 1.50011C12.3233 1.50029 12.4544 1.5496 12.5567 1.63893C12.659 1.72825 12.7255 1.85157 12.744 1.98611L12.75 2.06261V2.62436H13.3118C13.7593 2.62436 14.1885 2.80215 14.505 3.11861C14.8215 3.43508 14.9993 3.8643 14.9993 4.31186V7.55786C14.6421 7.33296 14.2388 7.1913 13.8195 7.14337C13.4001 7.09544 12.9753 7.14247 12.5766 7.28097C12.1778 7.41948 11.8154 7.64591 11.516 7.9435C11.2167 8.24108 10.9881 8.6022 10.8472 9.00011H5.436L5.3595 9.00536C5.22487 9.02388 5.10149 9.09052 5.01218 9.19296C4.92287 9.2954 4.87367 9.4267 4.87367 9.56261C4.87367 9.69851 4.92287 9.82982 5.01218 9.93225C5.10149 10.0347 5.22487 10.1013 5.3595 10.1199L5.436 10.1251H10.6935C10.7406 10.8415 11.0605 11.5125 11.5875 12.0001H10.8742C10.377 12.0001 9.90006 12.1976 9.54842 12.5493C9.19679 12.9009 8.99925 13.3778 8.99925 13.8751V14.2501C8.99925 15.0751 9.31575 15.8641 9.879 16.5039H4.314C3.86645 16.5039 3.43722 16.3261 3.12076 16.0096C2.80429 15.6931 2.6265 15.2639 2.6265 14.8164L2.625 4.31261C2.625 3.86505 2.80279 3.43583 3.11926 3.11936C3.43573 2.8029 3.86495 2.62511 4.3125 2.62511L4.87275 2.62436V2.06261C4.87129 1.91907 4.92476 1.78041 5.0222 1.67502C5.11965 1.56962 5.2537 1.50547 5.39691 1.49569C5.54011 1.48591 5.68164 1.53125 5.79251 1.62243C5.90337 1.7136 5.97519 1.84371 5.99325 1.98611L5.9985 2.06261V2.62436H8.25V2.06261C8.24854 1.91907 8.30201 1.78041 8.39945 1.67502C8.4969 1.56962 8.63095 1.50547 8.77416 1.49569C8.91736 1.48591 9.05889 1.53125 9.16975 1.62243C9.28062 1.7136 9.35244 1.84371 9.3705 1.98611L9.37575 2.06261V2.62436H11.6242V2.06261C11.6242 1.91342 11.6835 1.77035 11.789 1.66486C11.8945 1.55937 12.0383 1.50011 12.1875 1.50011ZM8.43525 12.0001H5.436L5.3595 12.0054C5.22487 12.0239 5.10149 12.0905 5.01218 12.193C4.92287 12.2954 4.87367 12.4267 4.87367 12.5626C4.87367 12.6985 4.92287 12.8298 5.01218 12.9323C5.10149 13.0347 5.22487 13.1013 5.3595 13.1199L5.436 13.1251H8.43525L8.51175 13.1199C8.64638 13.1013 8.76976 13.0347 8.85907 12.9323C8.94838 12.8298 8.99758 12.6985 8.99758 12.5626C8.99758 12.4267 8.94838 12.2954 8.85907 12.193C8.76976 12.0905 8.64638 12.0239 8.51175 12.0054L8.43525 12.0001ZM12.1852 6.00011H5.43675L5.36025 6.00536C5.22562 6.02388 5.10224 6.09052 5.01293 6.19296C4.92362 6.2954 4.87442 6.4267 4.87442 6.56261C4.87442 6.69851 4.92362 6.82981 5.01293 6.93225C5.10224 7.03469 5.22562 7.10133 5.36025 7.11986L5.43675 7.12511H12.1868L12.2625 7.11986C12.3971 7.10133 12.5205 7.03469 12.6098 6.93225C12.6991 6.82981 12.7483 6.69851 12.7483 6.56261C12.7483 6.4267 12.6991 6.2954 12.6098 6.19296C12.5205 6.09052 12.3971 6.02388 12.2625 6.00536L12.1852 6.00011ZM13.5 7.87511C14.091 7.87511 14.6235 8.12336 15 8.52086C15.3622 8.90353 15.5636 9.41071 15.5625 9.93761C15.5634 10.4642 15.362 10.9711 15 11.3536C14.7654 11.602 14.4728 11.7883 14.1485 11.8956C13.8241 12.003 13.4782 12.0281 13.1417 11.9687C12.8052 11.9093 12.4888 11.7672 12.2208 11.5552C11.9529 11.3433 11.7418 11.068 11.6065 10.7543C11.4712 10.4406 11.4159 10.0981 11.4457 9.75776C11.4755 9.4174 11.5894 9.08977 11.7772 8.8043C11.9649 8.51884 12.2206 8.28449 12.5213 8.1223C12.822 7.96011 13.1583 7.87517 13.5 7.87511ZM9.75 13.8751C9.75 13.5767 9.86853 13.2906 10.0795 13.0796C10.2905 12.8686 10.5766 12.7501 10.875 12.7501H16.125C16.4234 12.7501 16.7095 12.8686 16.9205 13.0796C17.1315 13.2906 17.25 13.5767 17.25 13.8751V14.2501C17.25 15.7284 15.855 17.2501 13.5 17.2501C12.162 17.2501 11.1345 16.7596 10.4955 16.0651C10.0095 15.5364 9.75 14.8891 9.75 14.2501V13.8751Z" fill="#E9EFFA"/>
</svg>