<svg xmlns="http://www.w3.org/2000/svg" width="25" height="24" viewBox="0 0 25 24" fill="none">
  <mask id="mask0_1247_15651" style="mask-type:alpha" maskUnits="userSpaceOnUse" x="0" y="0" width="25" height="24">
    <rect x="0.5" width="24" height="24" fill="#D9D9D9"/>
  </mask>
  <g mask="url(#mask0_1247_15651)">
    <path d="M18.6085 17.7619H10.202C9.79305 17.7619 9.44693 17.6202 9.16359 17.3369C8.88026 17.0535 8.73859 16.7074 8.73859 16.2985V5.46338C8.73859 5.05446 8.88026 4.70833 9.16359 4.425C9.44693 4.14167 9.79305 4 10.202 4H15.2164C15.4115 4 15.5991 4.03789 15.7791 4.11366C15.9592 4.18942 16.1156 4.29372 16.2485 4.42656L19.6454 7.82341C19.7782 7.95626 19.8825 8.11272 19.9583 8.29279C20.034 8.47285 20.0719 8.66044 20.0719 8.85555V16.2985C20.0719 16.7074 19.9303 17.0535 19.6469 17.3369C19.3636 17.6202 19.0175 17.7619 18.6085 17.7619ZM18.8576 8.85711H16.1956C15.9205 8.85711 15.6883 8.7624 15.4989 8.57299C15.3095 8.38358 15.2148 8.15137 15.2148 7.87635V5.21427H10.202C10.1397 5.21427 10.0826 5.24021 10.0307 5.2921C9.97881 5.34401 9.95286 5.4011 9.95286 5.46338V16.2985C9.95286 16.3608 9.97881 16.4179 10.0307 16.4698C10.0826 16.5217 10.1397 16.5476 10.202 16.5476H18.6085C18.6708 16.5476 18.7279 16.5217 18.7798 16.4698C18.8317 16.4179 18.8576 16.3608 18.8576 16.2985V8.85711ZM6.96387 21C6.55495 21 6.20882 20.8583 5.92549 20.575C5.64216 20.2916 5.50049 19.9455 5.50049 19.5366V9.46429C5.50049 9.29201 5.55861 9.14776 5.67486 9.03152C5.79109 8.91527 5.93535 8.85715 6.10763 8.85715C6.27991 8.85715 6.42417 8.91527 6.54041 9.03152C6.65664 9.14776 6.71476 9.29201 6.71476 9.46429V19.5366C6.71476 19.5989 6.7407 19.656 6.79259 19.7079C6.8445 19.7598 6.90159 19.7857 6.96387 19.7857H14.6076C14.7799 19.7857 14.9242 19.8438 15.0404 19.9601C15.1566 20.0763 15.2148 20.2206 15.2148 20.3928C15.2148 20.5651 15.1566 20.7094 15.0404 20.8256C14.9242 20.9419 14.7799 21 14.6076 21L6.96387 21Z" fill="#A3ADBD"/>
  </g>
</svg>