<svg xmlns="http://www.w3.org/2000/svg" width="14" height="14" viewBox="0 0 14 14" fill="none">
  <path d="M2.56485 2.65639L2.60743 2.60739C2.68151 2.53329 2.77971 2.48824 2.88419 2.48043C2.98867 2.47261 3.09249 2.50255 3.17676 2.5648L3.22576 2.60739L6.99993 6.38097L10.7741 2.6068C10.8145 2.56504 10.8628 2.53173 10.9162 2.50883C10.9695 2.48592 11.027 2.47388 11.085 2.4734C11.1431 2.47293 11.2007 2.48402 11.2545 2.50605C11.3083 2.52807 11.3571 2.56058 11.3981 2.60168C11.4392 2.64277 11.4717 2.69164 11.4936 2.74541C11.5156 2.79919 11.5267 2.8568 11.5261 2.9149C11.5256 2.97299 11.5135 3.03039 11.4905 3.08375C11.4676 3.13712 11.4342 3.18538 11.3924 3.22572L7.61885 6.99989L11.393 10.7741C11.467 10.8482 11.512 10.9464 11.5197 11.0509C11.5274 11.1554 11.4973 11.2592 11.435 11.3434L11.3924 11.3924C11.3184 11.4665 11.2201 11.5115 11.1157 11.5193C11.0112 11.5272 10.9074 11.4972 10.8231 11.435L10.7741 11.3924L6.99993 7.6188L3.22576 11.393C3.14321 11.4726 3.03268 11.5167 2.91797 11.5156C2.80325 11.5146 2.69355 11.4685 2.61247 11.3874C2.53139 11.3062 2.48543 11.1964 2.48449 11.0817C2.48354 10.967 2.5277 10.8565 2.60743 10.7741L6.38101 6.99989L2.60685 3.22572C2.53284 3.15157 2.4879 3.05332 2.48019 2.94885C2.47248 2.84437 2.50252 2.74059 2.56485 2.65639Z" fill="#95A0B2"/>
</svg>