<svg xmlns="http://www.w3.org/2000/svg" width="25" height="24" viewBox="0 0 25 24" fill="none">
  <mask id="mask0_1247_15648" style="mask-type:alpha" maskUnits="userSpaceOnUse" x="0" y="0" width="25" height="24">
    <rect x="0.5" width="24" height="24" fill="#D9D9D9"/>
  </mask>
  <g mask="url(#mask0_1247_15648)">
    <path d="M7.8077 20.4998C7.31058 20.4998 6.88502 20.3228 6.53102 19.9688C6.17701 19.6148 6 19.1892 6 18.6921V5.99981H5.75C5.5375 5.99981 5.35938 5.9279 5.21563 5.78408C5.07188 5.64028 5 5.46208 5 5.24948C5 5.0369 5.07188 4.85882 5.21563 4.71523C5.35938 4.57163 5.5375 4.49983 5.75 4.49983H9.49997C9.49997 4.25497 9.58619 4.04632 9.75863 3.87388C9.93106 3.70145 10.1397 3.61523 10.3846 3.61523H14.6154C14.8602 3.61523 15.0689 3.70145 15.2413 3.87388C15.4138 4.04632 15.5 4.25497 15.5 4.49983H19.25C19.4625 4.49983 19.6406 4.57174 19.7843 4.71556C19.9281 4.85938 20 5.03758 20 5.25016C20 5.46276 19.9281 5.64085 19.7843 5.78443C19.6406 5.92802 19.4625 5.99981 19.25 5.99981H19V18.6921C19 19.1892 18.8229 19.6148 18.4689 19.9688C18.1149 20.3228 17.6894 20.4998 17.1922 20.4998H7.8077ZM17.5 5.99981H7.49997V18.6921C7.49997 18.7818 7.52883 18.8556 7.58652 18.9133C7.64422 18.971 7.71795 18.9998 7.8077 18.9998H17.1922C17.282 18.9998 17.3557 18.971 17.4134 18.9133C17.4711 18.8556 17.5 18.7818 17.5 18.6921V5.99981ZM10.6542 16.9998C10.8668 16.9998 11.0448 16.9279 11.1884 16.7842C11.332 16.6404 11.4038 16.4623 11.4038 16.2498V8.74979C11.4038 8.5373 11.3319 8.35918 11.1881 8.21543C11.0443 8.07168 10.8661 7.99981 10.6535 7.99981C10.4409 7.99981 10.2628 8.07168 10.1192 8.21543C9.97564 8.35918 9.90385 8.5373 9.90385 8.74979V16.2498C9.90385 16.4623 9.97576 16.6404 10.1196 16.7842C10.2634 16.9279 10.4416 16.9998 10.6542 16.9998ZM14.3464 16.9998C14.559 16.9998 14.7371 16.9279 14.8807 16.7842C15.0243 16.6404 15.0961 16.4623 15.0961 16.2498V8.74979C15.0961 8.5373 15.0242 8.35918 14.8804 8.21543C14.7366 8.07168 14.5584 7.99981 14.3458 7.99981C14.1332 7.99981 13.9551 8.07168 13.8115 8.21543C13.6679 8.35918 13.5961 8.5373 13.5961 8.74979V16.2498C13.5961 16.4623 13.668 16.6404 13.8118 16.7842C13.9557 16.9279 14.1339 16.9998 14.3464 16.9998Z" fill="#A3ADBD"/>
  </g>
</svg>