<svg width="20" height="20" viewBox="0 0 20 20" fill="none" xmlns="http://www.w3.org/2000/svg">
<path d="M7.08333 4.58301C6.86232 4.58301 6.65036 4.67081 6.49408 4.82709C6.3378 4.98337 6.25 5.19533 6.25 5.41634C6.25 5.63735 6.3378 5.84932 6.49408 6.0056C6.65036 6.16188 6.86232 6.24967 7.08333 6.24967C7.30435 6.24967 7.51631 6.16188 7.67259 6.0056C7.82887 5.84932 7.91667 5.63735 7.91667 5.41634C7.91667 5.19533 7.82887 4.98337 7.67259 4.82709C7.51631 4.67081 7.30435 4.58301 7.08333 4.58301ZM6.25 11.2497C6.25 11.0287 6.3378 10.8167 6.49408 10.6604C6.65036 10.5041 6.86232 10.4163 7.08333 10.4163C7.30435 10.4163 7.51631 10.5041 7.67259 10.6604C7.82887 10.8167 7.91667 11.0287 7.91667 11.2497C7.91667 11.4707 7.82887 11.6826 7.67259 11.8389C7.51631 11.9952 7.30435 12.083 7.08333 12.083C6.86232 12.083 6.65036 11.9952 6.49408 11.8389C6.3378 11.6826 6.25 11.4707 6.25 11.2497ZM7.08333 7.49967C6.86232 7.49967 6.65036 7.58747 6.49408 7.74375C6.3378 7.90003 6.25 8.11199 6.25 8.33301C6.25 8.55402 6.3378 8.76598 6.49408 8.92226C6.65036 9.07854 6.86232 9.16634 7.08333 9.16634C7.30435 9.16634 7.51631 9.07854 7.67259 8.92226C7.82887 8.76598 7.91667 8.55402 7.91667 8.33301C7.91667 8.11199 7.82887 7.90003 7.67259 7.74375C7.51631 7.58747 7.30435 7.49967 7.08333 7.49967ZM9.16667 5.41634C9.16667 5.19533 9.25446 4.98337 9.41074 4.82709C9.56702 4.67081 9.77899 4.58301 10 4.58301C10.221 4.58301 10.433 4.67081 10.5893 4.82709C10.7455 4.98337 10.8333 5.19533 10.8333 5.41634C10.8333 5.63735 10.7455 5.84932 10.5893 6.0056C10.433 6.16188 10.221 6.24967 10 6.24967C9.77899 6.24967 9.56702 6.16188 9.41074 6.0056C9.25446 5.84932 9.16667 5.63735 9.16667 5.41634ZM10 10.4163C9.77899 10.4163 9.56702 10.5041 9.41074 10.6604C9.25446 10.8167 9.16667 11.0287 9.16667 11.2497C9.16667 11.4707 9.25446 11.6826 9.41074 11.8389C9.56702 11.9952 9.77899 12.083 10 12.083C10.221 12.083 10.433 11.9952 10.5893 11.8389C10.7455 11.6826 10.8333 11.4707 10.8333 11.2497C10.8333 11.0287 10.7455 10.8167 10.5893 10.6604C10.433 10.5041 10.221 10.4163 10 10.4163ZM12.0833 11.2497C12.0833 11.0287 12.1711 10.8167 12.3274 10.6604C12.4837 10.5041 12.6957 10.4163 12.9167 10.4163C13.1377 10.4163 13.3496 10.5041 13.5059 10.6604C13.6622 10.8167 13.75 11.0287 13.75 11.2497C13.75 11.4707 13.6622 11.6826 13.5059 11.8389C13.3496 11.9952 13.1377 12.083 12.9167 12.083C12.6957 12.083 12.4837 11.9952 12.3274 11.8389C12.1711 11.6826 12.0833 11.4707 12.0833 11.2497ZM10 7.49967C9.77899 7.49967 9.56702 7.58747 9.41074 7.74375C9.25446 7.90003 9.16667 8.11199 9.16667 8.33301C9.16667 8.55402 9.25446 8.76598 9.41074 8.92226C9.56702 9.07854 9.77899 9.16634 10 9.16634C10.221 9.16634 10.433 9.07854 10.5893 8.92226C10.7455 8.76598 10.8333 8.55402 10.8333 8.33301C10.8333 8.11199 10.7455 7.90003 10.5893 7.74375C10.433 7.58747 10.221 7.49967 10 7.49967Z" fill="#A3ADBD"/>
<path d="M5.20703 1.66699C4.70975 1.66699 4.23284 1.86454 3.88121 2.21617C3.52958 2.5678 3.33203 3.04471 3.33203 3.54199V17.292C3.33203 17.637 3.61203 17.917 3.95703 17.917H16.0429C16.2086 17.917 16.3676 17.8511 16.4848 17.7339C16.602 17.6167 16.6679 17.4578 16.6679 17.292V9.79199C16.6679 9.54576 16.6194 9.30195 16.5251 9.07446C16.4309 8.84698 16.2928 8.64028 16.1187 8.46617C15.9446 8.29206 15.7379 8.15395 15.5104 8.05972C15.2829 7.96549 15.0391 7.91699 14.7929 7.91699H13.7487V3.54199C13.7487 3.04471 13.5512 2.5678 13.1995 2.21617C12.8479 1.86454 12.371 1.66699 11.8737 1.66699H5.20703ZM4.58203 3.54199C4.58203 3.37623 4.64788 3.21726 4.76509 3.10005C4.8823 2.98284 5.04127 2.91699 5.20703 2.91699H11.8737C12.0395 2.91699 12.1984 2.98284 12.3156 3.10005C12.4328 3.21726 12.4987 3.37623 12.4987 3.54199V8.54199C12.4987 8.88699 12.7787 9.16699 13.1237 9.16699H14.7929C14.9586 9.16699 15.1176 9.23284 15.2348 9.35005C15.352 9.46726 15.4179 9.62623 15.4179 9.79199V16.667H13.7487V14.3753C13.7487 14.2096 13.6828 14.0506 13.5656 13.9334C13.4484 13.8162 13.2895 13.7503 13.1237 13.7503H6.8737C6.70794 13.7503 6.54897 13.8162 6.43176 13.9334C6.31455 14.0506 6.2487 14.2096 6.2487 14.3753V16.667H4.58203V3.54199ZM12.4987 15.0003V16.667H10.6237V15.0003H12.4987ZM9.3737 15.0003V16.667H7.4987V15.0003H9.3737Z" fill="#A3ADBD"/>
</svg>
