<svg width="20" height="20" viewBox="0 0 20 20" fill="none" xmlns="http://www.w3.org/2000/svg">
<path d="M14.7943 11.6666C15.0405 11.6665 15.2843 11.7149 15.5117 11.809C15.7392 11.9031 15.9459 12.0412 16.12 12.2152C16.2942 12.3893 16.4323 12.5959 16.5265 12.8233C16.6208 13.0508 16.6693 13.2946 16.6693 13.5408V14.0199C16.6693 14.7649 16.4026 15.4866 15.9176 16.0516C14.6093 17.5799 12.6201 18.3341 9.99927 18.3341C7.3776 18.3341 5.38927 17.5799 4.08427 16.0508C3.60126 15.485 3.33591 14.7655 3.33594 14.0216V13.5408C3.33583 13.2946 3.38422 13.0508 3.47836 12.8233C3.5725 12.5958 3.71053 12.3891 3.88457 12.215C4.05862 12.0409 4.26526 11.9027 4.4927 11.8085C4.72014 11.7143 4.96391 11.6658 5.2101 11.6658H14.7943V11.6666ZM14.7943 12.9166H5.2101C5.12807 12.9165 5.04681 12.9325 4.97099 12.9639C4.89517 12.9952 4.82626 13.0411 4.76821 13.0991C4.71017 13.1571 4.66411 13.2259 4.6327 13.3017C4.60128 13.3775 4.5851 13.4587 4.5851 13.5408V14.0216C4.5851 14.4683 4.7451 14.8999 5.0351 15.2391C6.07927 16.4624 7.7176 17.0841 9.99927 17.0841C12.2809 17.0841 13.9209 16.4624 14.9676 15.2391C15.2584 14.8995 15.4183 14.4671 15.4184 14.0199V13.5408C15.4185 13.4587 15.4025 13.3775 15.3712 13.3016C15.3398 13.2258 15.2939 13.1569 15.2359 13.0989C15.1779 13.0408 15.1091 12.9948 15.0333 12.9633C14.9575 12.9319 14.8763 12.9158 14.7943 12.9158V12.9166ZM9.99927 1.66992C11.1043 1.66992 12.1641 2.10891 12.9455 2.89031C13.727 3.67171 14.1659 4.73152 14.1659 5.83659C14.1659 6.94166 13.727 8.00146 12.9455 8.78287C12.1641 9.56427 11.1043 10.0033 9.99927 10.0033C8.8942 10.0033 7.83439 9.56427 7.05299 8.78287C6.27159 8.00146 5.8326 6.94166 5.8326 5.83659C5.8326 4.73152 6.27159 3.67171 7.05299 2.89031C7.83439 2.10891 8.8942 1.66992 9.99927 1.66992ZM9.99927 2.91992C9.61625 2.91992 9.23698 2.99536 8.88311 3.14194C8.52924 3.28852 8.20771 3.50336 7.93688 3.77419C7.66604 4.04503 7.4512 4.36656 7.30462 4.72043C7.15805 5.07429 7.0826 5.45357 7.0826 5.83659C7.0826 6.21961 7.15805 6.59888 7.30462 6.95275C7.4512 7.30662 7.66604 7.62815 7.93688 7.89898C8.20771 8.16982 8.52924 8.38466 8.88311 8.53124C9.23698 8.67781 9.61625 8.75325 9.99927 8.75325C10.7728 8.75325 11.5147 8.44596 12.0617 7.89898C12.6086 7.352 12.9159 6.61014 12.9159 5.83659C12.9159 5.06304 12.6086 4.32117 12.0617 3.77419C11.5147 3.22721 10.7728 2.91992 9.99927 2.91992Z" fill="#A3ADBD"/>
</svg>
