<svg width="16" height="16" viewBox="0 0 16 16" fill="none" xmlns="http://www.w3.org/2000/svg">
<path d="M4.10436 12.9113H11.9009C12.0106 12.9115 12.1162 12.9533 12.1963 13.0282C12.2764 13.1032 12.325 13.2058 12.3324 13.3153C12.3398 13.4247 12.3054 13.5329 12.2362 13.618C12.1669 13.7031 12.0679 13.7587 11.9593 13.7737L11.9009 13.7777H4.10436C3.99382 13.7788 3.88703 13.7377 3.80586 13.6626C3.72469 13.5876 3.67528 13.4843 3.66775 13.374C3.66023 13.2637 3.69514 13.1547 3.76536 13.0694C3.83558 12.984 3.93578 12.9287 4.04544 12.9148L4.10436 12.9113ZM7.93564 2.2267L8.00322 2.22266C8.14469 2.22267 8.28124 2.27462 8.38696 2.36863C8.49268 2.46264 8.56023 2.59218 8.57678 2.73268L8.58082 2.80026V10.0724L10.4835 8.17029C10.5829 8.07084 10.7153 8.01109 10.8556 8.00227C10.996 7.99344 11.1348 8.03614 11.2459 8.12235L11.3002 8.17086C11.3997 8.27032 11.4594 8.40265 11.4682 8.54303C11.477 8.6834 11.4344 8.82217 11.3481 8.93331L11.3002 8.9876L8.41389 11.8733C8.31451 11.9729 8.18222 12.0327 8.04184 12.0417C7.90147 12.0506 7.76265 12.008 7.65145 11.9219L7.59716 11.8739L4.70681 8.9876C4.60211 8.8839 4.54101 8.7441 4.53602 8.59682C4.53102 8.44955 4.5825 8.30593 4.67993 8.19537C4.77735 8.0848 4.91335 8.01566 5.06008 8.00209C5.20682 7.98851 5.35319 8.03153 5.46925 8.12235L5.52354 8.17029L7.42561 10.0695V2.80026C7.42563 2.65879 7.47757 2.52224 7.57158 2.41652C7.66559 2.3108 7.79513 2.24325 7.93564 2.2267Z" fill="#485566"/>
</svg>
