<svg width="20" height="20" viewBox="0 0 20 20" fill="none" xmlns="http://www.w3.org/2000/svg">
<path d="M16.4596 3.33301C16.9569 3.33301 17.4338 3.53055 17.7855 3.88218C18.1371 4.23381 18.3346 4.71073 18.3346 5.20801V14.7955C18.3346 15.2928 18.1371 15.7697 17.7855 16.1213C17.4338 16.473 16.9569 16.6705 16.4596 16.6705H3.54297C3.29674 16.6705 3.05292 16.622 2.82544 16.5278C2.59795 16.4336 2.39125 16.2954 2.21714 16.1213C2.04303 15.9472 1.90492 15.7405 1.81069 15.513C1.71647 15.2856 1.66797 15.0417 1.66797 14.7955V5.20801C1.66797 4.71073 1.86551 4.23381 2.21714 3.88218C2.56877 3.53055 3.04569 3.33301 3.54297 3.33301H16.4596ZM16.4596 4.58301H3.54297C3.37721 4.58301 3.21824 4.64886 3.10103 4.76607C2.98382 4.88328 2.91797 5.04225 2.91797 5.20801V14.7955C2.91797 15.1405 3.19797 15.4205 3.54297 15.4205H16.4596C16.6254 15.4205 16.7844 15.3547 16.9016 15.2374C17.0188 15.1202 17.0846 14.9613 17.0846 14.7955V5.20801C17.0846 5.04225 17.0188 4.88328 16.9016 4.76607C16.7844 4.64886 16.6254 4.58301 16.4596 4.58301ZM8.1263 10.4163C8.29206 10.4163 8.45103 10.4822 8.56824 10.5994C8.68545 10.7166 8.7513 10.8756 8.7513 11.0413V11.4522L8.74464 11.5422C8.6088 12.4697 7.83297 12.9172 6.66797 12.9172C5.50297 12.9172 4.7263 12.4697 4.5913 11.5422L4.58464 11.4505V11.0413C4.58464 10.8756 4.65048 10.7166 4.76769 10.5994C4.8849 10.4822 5.04387 10.4163 5.20964 10.4163H8.1263ZM11.0446 10.8297H14.793C14.9513 10.8297 15.1038 10.8899 15.2195 10.998C15.3352 11.1061 15.4055 11.2541 15.4163 11.4121C15.4271 11.5701 15.3775 11.7263 15.2776 11.8491C15.1777 11.9719 15.0348 12.0523 14.878 12.0738L14.793 12.0797H11.0446C10.8863 12.0796 10.7339 12.0195 10.6181 11.9114C10.5024 11.8033 10.4321 11.6553 10.4213 11.4973C10.4105 11.3393 10.4601 11.1831 10.56 11.0603C10.6599 10.9374 10.8028 10.8571 10.9596 10.8355L11.0446 10.8297ZM6.66797 7.08467C6.99949 7.08467 7.31743 7.21637 7.55185 7.45079C7.78627 7.68521 7.91797 8.00315 7.91797 8.33467C7.91797 8.6662 7.78627 8.98414 7.55185 9.21856C7.31743 9.45298 6.99949 9.58467 6.66797 9.58467C6.33645 9.58467 6.01851 9.45298 5.78408 9.21856C5.54966 8.98414 5.41797 8.6662 5.41797 8.33467C5.41797 8.00315 5.54966 7.68521 5.78408 7.45079C6.01851 7.21637 6.33645 7.08467 6.66797 7.08467ZM11.0446 7.91634H14.793C14.9513 7.91639 15.1038 7.97655 15.2195 8.08465C15.3352 8.19276 15.4055 8.34076 15.4163 8.49874C15.4271 8.65673 15.3775 8.81292 15.2776 8.93576C15.1777 9.0586 15.0348 9.13892 14.878 9.16051L14.793 9.16634H11.0446C10.8863 9.16629 10.7339 9.10614 10.6181 8.99803C10.5024 8.88992 10.4321 8.74193 10.4213 8.58394C10.4105 8.42596 10.4601 8.26976 10.56 8.14693C10.6599 8.02409 10.8028 7.94376 10.9596 7.92217L11.0446 7.91634Z" fill="#A3ADBD"/>
</svg>
