<svg width="20" height="20" viewBox="0 0 20 20" fill="none" xmlns="http://www.w3.org/2000/svg">
<path d="M3.33203 3.95801C3.33203 3.79225 3.39788 3.63328 3.51509 3.51607C3.6323 3.39886 3.79127 3.33301 3.95703 3.33301H14.3737C14.5395 3.33301 14.6984 3.39886 14.8156 3.51607C14.9328 3.63328 14.9987 3.79225 14.9987 3.95801V5.62467C14.9987 5.79043 14.9328 5.94941 14.8156 6.06662C14.6984 6.18383 14.5395 6.24967 14.3737 6.24967C14.2079 6.24967 14.049 6.18383 13.9318 6.06662C13.8145 5.94941 13.7487 5.79043 13.7487 5.62467V4.58301H9.79036V12.0547C9.37858 12.8337 9.16399 13.7018 9.16536 14.583C9.16536 15.3213 9.31286 16.0247 9.58036 16.6663H7.29036C7.1246 16.6663 6.96563 16.6005 6.84842 16.4833C6.73121 16.3661 6.66536 16.2071 6.66536 16.0413C6.66536 15.8756 6.73121 15.7166 6.84842 15.5994C6.96563 15.4822 7.1246 15.4163 7.29036 15.4163H8.54036V4.58301H4.58203V5.62467C4.58203 5.79043 4.51618 5.94941 4.39897 6.06662C4.28176 6.18383 4.12279 6.24967 3.95703 6.24967C3.79127 6.24967 3.6323 6.18383 3.51509 6.06662C3.39788 5.94941 3.33203 5.79043 3.33203 5.62467V3.95801ZM19.1654 14.583C19.1654 13.3674 18.6825 12.2016 17.8229 11.3421C16.9634 10.4826 15.7976 9.99967 14.582 9.99967C13.3665 9.99967 12.2007 10.4826 11.3411 11.3421C10.4816 12.2016 9.9987 13.3674 9.9987 14.583C9.9987 15.7986 10.4816 16.9644 11.3411 17.8239C12.2007 18.6835 13.3665 19.1663 14.582 19.1663C15.7976 19.1663 16.9634 18.6835 17.8229 17.8239C18.6825 16.9644 19.1654 15.7986 19.1654 14.583ZM14.9987 14.9997L14.9995 17.0855C14.9995 17.196 14.9556 17.302 14.8775 17.3801C14.7994 17.4583 14.6934 17.5022 14.5829 17.5022C14.4724 17.5022 14.3664 17.4583 14.2882 17.3801C14.2101 17.302 14.1662 17.196 14.1662 17.0855V14.9997H12.0787C11.9682 14.9997 11.8622 14.9558 11.7841 14.8776C11.7059 14.7995 11.662 14.6935 11.662 14.583C11.662 14.4725 11.7059 14.3665 11.7841 14.2884C11.8622 14.2102 11.9682 14.1663 12.0787 14.1663H14.1654V12.083C14.1654 11.9725 14.2093 11.8665 14.2874 11.7884C14.3655 11.7102 14.4715 11.6663 14.582 11.6663C14.6925 11.6663 14.7985 11.7102 14.8767 11.7884C14.9548 11.8665 14.9987 11.9725 14.9987 12.083V14.1663H17.0795C17.19 14.1663 17.296 14.2102 17.3742 14.2884C17.4523 14.3665 17.4962 14.4725 17.4962 14.583C17.4962 14.6935 17.4523 14.7995 17.3742 14.8776C17.296 14.9558 17.19 14.9997 17.0795 14.9997H14.9987Z" fill="#A3ADBD"/>
</svg>
