<svg xmlns="http://www.w3.org/2000/svg" width="20" height="20" viewBox="0 0 20 20" fill="none">
  <path d="M14.7917 2.5C15.51 2.5 16.1988 2.78534 16.7067 3.29325C17.2147 3.80116 17.5 4.49004 17.5 5.20833V14.7917C17.5 15.51 17.2147 16.1988 16.7067 16.7067C16.1988 17.2147 15.51 17.5 14.7917 17.5H5.20833C4.49004 17.5 3.80116 17.2147 3.29325 16.7067C2.78534 16.1988 2.5 15.51 2.5 14.7917V5.20833C2.5 4.49004 2.78534 3.80116 3.29325 3.29325C3.80116 2.78534 4.49004 2.5 5.20833 2.5H14.7917ZM14.7917 3.75H5.20833C4.82156 3.75 4.45063 3.90365 4.17714 4.17714C3.90365 4.45063 3.75 4.82156 3.75 5.20833V14.7917C3.75 15.5967 4.40333 16.25 5.20833 16.25H14.7917C15.1784 16.25 15.5494 16.0964 15.8229 15.8229C16.0964 15.5494 16.25 15.1784 16.25 14.7917V5.20833C16.25 4.82156 16.0964 4.45063 15.8229 4.17714C15.5494 3.90365 15.1784 3.75 14.7917 3.75ZM6.45833 11.25C6.7346 11.25 6.99955 11.3597 7.1949 11.5551C7.39025 11.7504 7.5 12.0154 7.5 12.2917C7.5 12.5679 7.39025 12.8329 7.1949 13.0282C6.99955 13.2236 6.7346 13.3333 6.45833 13.3333C6.18207 13.3333 5.91711 13.2236 5.72176 13.0282C5.52641 12.8329 5.41667 12.5679 5.41667 12.2917C5.41667 12.0154 5.52641 11.7504 5.72176 11.5551C5.91711 11.3597 6.18207 11.25 6.45833 11.25ZM10 11.25C10.2763 11.25 10.5412 11.3597 10.7366 11.5551C10.9319 11.7504 11.0417 12.0154 11.0417 12.2917C11.0417 12.5679 10.9319 12.8329 10.7366 13.0282C10.5412 13.2236 10.2763 13.3333 10 13.3333C9.72373 13.3333 9.45878 13.2236 9.26343 13.0282C9.06808 12.8329 8.95833 12.5679 8.95833 12.2917C8.95833 12.0154 9.06808 11.7504 9.26343 11.5551C9.45878 11.3597 9.72373 11.25 10 11.25ZM6.45833 7.08333C6.7346 7.08333 6.99955 7.19308 7.1949 7.38843C7.39025 7.58378 7.5 7.84873 7.5 8.125C7.5 8.40127 7.39025 8.66622 7.1949 8.86157C6.99955 9.05692 6.7346 9.16667 6.45833 9.16667C6.18207 9.16667 5.91711 9.05692 5.72176 8.86157C5.52641 8.66622 5.41667 8.40127 5.41667 8.125C5.41667 7.84873 5.52641 7.58378 5.72176 7.38843C5.91711 7.19308 6.18207 7.08333 6.45833 7.08333ZM10 7.08333C10.2763 7.08333 10.5412 7.19308 10.7366 7.38843C10.9319 7.58378 11.0417 7.84873 11.0417 8.125C11.0417 8.40127 10.9319 8.66622 10.7366 8.86157C10.5412 9.05692 10.2763 9.16667 10 9.16667C9.72373 9.16667 9.45878 9.05692 9.26343 8.86157C9.06808 8.66622 8.95833 8.40127 8.95833 8.125C8.95833 7.84873 9.06808 7.58378 9.26343 7.38843C9.45878 7.19308 9.72373 7.08333 10 7.08333ZM13.5417 7.08333C13.8179 7.08333 14.0829 7.19308 14.2782 7.38843C14.4736 7.58378 14.5833 7.84873 14.5833 8.125C14.5833 8.40127 14.4736 8.66622 14.2782 8.86157C14.0829 9.05692 13.8179 9.16667 13.5417 9.16667C13.2654 9.16667 13.0004 9.05692 12.8051 8.86157C12.6097 8.66622 12.5 8.40127 12.5 8.125C12.5 7.84873 12.6097 7.58378 12.8051 7.38843C13.0004 7.19308 13.2654 7.08333 13.5417 7.08333Z" fill="#485566"/>
</svg>