<svg width="20" height="20" viewBox="0 0 20 20" fill="none" xmlns="http://www.w3.org/2000/svg">
<path d="M17.5 5.20833C17.5 4.49004 17.2147 3.80116 16.7067 3.29325C16.1988 2.78534 15.51 2.5 14.7917 2.5H5.20833C4.49004 2.5 3.80116 2.78534 3.29325 3.29325C2.78534 3.80116 2.5 4.49004 2.5 5.20833V14.7917C2.5 15.51 2.78534 16.1988 3.29325 16.7067C3.80116 17.2147 4.49004 17.5 5.20833 17.5H10.0183C9.76857 17.1104 9.56999 16.6903 9.4275 16.25H5.20833C4.82156 16.25 4.45063 16.0964 4.17714 15.8229C3.90365 15.5494 3.75 15.1784 3.75 14.7917V7.08333H16.25V9.4275C16.6903 9.56999 17.1104 9.76857 17.5 10.0183V5.20833ZM5.20833 3.75H14.7917C15.5967 3.75 16.25 4.40333 16.25 5.20833V5.83333H3.75V5.20833C3.75 4.40333 4.40333 3.75 5.20833 3.75Z" fill="#A3ADBD"/>
<path d="M19.1667 14.5833C19.1667 13.3678 18.6838 12.202 17.8242 11.3424C16.9647 10.4829 15.7989 10 14.5833 10C13.3678 10 12.202 10.4829 11.3424 11.3424C10.4829 12.202 10 13.3678 10 14.5833C10 15.7989 10.4829 16.9647 11.3424 17.8242C12.202 18.6838 13.3678 19.1667 14.5833 19.1667C15.7989 19.1667 16.9647 18.6838 17.8242 17.8242C18.6838 16.9647 19.1667 15.7989 19.1667 14.5833ZM14.5833 14.5833H16.25C16.3605 14.5833 16.4665 14.6272 16.5446 14.7054C16.6228 14.7835 16.6667 14.8895 16.6667 15C16.6667 15.1105 16.6228 15.2165 16.5446 15.2946C16.4665 15.3728 16.3605 15.4167 16.25 15.4167H14.1667C14.0574 15.4167 13.9526 15.3738 13.8747 15.2973C13.7967 15.2208 13.752 15.1167 13.75 15.0075V12.4992C13.75 12.3887 13.7939 12.2827 13.872 12.2045C13.9502 12.1264 14.0562 12.0825 14.1667 12.0825C14.2772 12.0825 14.3832 12.1264 14.4613 12.2045C14.5394 12.2827 14.5833 12.3887 14.5833 12.4992V14.5833Z" fill="#A3ADBD"/>
</svg>
