<svg width="20" height="20" viewBox="0 0 20 20" fill="none" xmlns="http://www.w3.org/2000/svg">
<path d="M14.7917 2.5C15.51 2.5 16.1988 2.78534 16.7067 3.29325C17.2147 3.80116 17.5 4.49004 17.5 5.20833V10.0183C17.1104 9.76857 16.6903 9.56999 16.25 9.4275V7.08333H3.75V14.7917C3.75 15.5967 4.40333 16.25 5.20833 16.25H9.4275C9.57167 16.695 9.77083 17.1142 10.0183 17.5H5.20833C4.49004 17.5 3.80116 17.2147 3.29325 16.7067C2.78534 16.1988 2.5 15.51 2.5 14.7917V5.20833C2.5 4.49004 2.78534 3.80116 3.29325 3.29325C3.80116 2.78534 4.49004 2.5 5.20833 2.5H14.7917ZM14.7917 3.75H5.20833C4.82156 3.75 4.45063 3.90365 4.17714 4.17714C3.90365 4.45063 3.75 4.82156 3.75 5.20833V5.83333H16.25V5.20833C16.25 4.82156 16.0964 4.45063 15.8229 4.17714C15.5494 3.90365 15.1784 3.75 14.7917 3.75Z" fill="#A3ADBD"/>
<path d="M19.1667 14.5833C19.1667 15.7989 18.6838 16.9647 17.8242 17.8242C16.9647 18.6838 15.7989 19.1667 14.5833 19.1667C13.3678 19.1667 12.202 18.6838 11.3424 17.8242C10.4829 16.9647 10 15.7989 10 14.5833C10 13.3678 10.4829 12.202 11.3424 11.3424C12.202 10.4829 13.3678 10 14.5833 10C15.7989 10 16.9647 10.4829 17.8242 11.3424C18.6838 12.202 19.1667 13.3678 19.1667 14.5833ZM17.3783 12.6217C17.3396 12.5829 17.2936 12.5521 17.243 12.5311C17.1924 12.5101 17.1381 12.4993 17.0833 12.4993C17.0285 12.4993 16.9743 12.5101 16.9236 12.5311C16.873 12.5521 16.827 12.5829 16.7883 12.6217L13.75 15.6608L12.3783 14.2883C12.3001 14.2101 12.194 14.1661 12.0833 14.1661C11.9727 14.1661 11.8666 14.2101 11.7883 14.2883C11.7101 14.3666 11.6661 14.4727 11.6661 14.5833C11.6661 14.694 11.7101 14.8001 11.7883 14.8783L13.455 16.545C13.4937 16.5838 13.5397 16.6146 13.5903 16.6356C13.6409 16.6566 13.6952 16.6674 13.75 16.6674C13.8048 16.6674 13.8591 16.6566 13.9097 16.6356C13.9603 16.6146 14.0063 16.5838 14.045 16.545L17.3783 13.2117C17.4171 13.173 17.4479 13.127 17.4689 13.0764C17.4899 13.0257 17.5007 12.9715 17.5007 12.9167C17.5007 12.8619 17.4899 12.8076 17.4689 12.757C17.4479 12.7064 17.4171 12.6604 17.3783 12.6217Z" fill="#A3ADBD"/>
</svg>
