<svg width="20" height="20" viewBox="0 0 20 20" fill="none" xmlns="http://www.w3.org/2000/svg">
<path d="M6.2526 10.835C6.1421 10.835 6.03612 10.8789 5.95798 10.957C5.87984 11.0351 5.83594 11.1411 5.83594 11.2516V13.7516C5.83594 13.8621 5.87984 13.9681 5.95798 14.0463C6.03612 14.1244 6.1421 14.1683 6.2526 14.1683C6.36311 14.1683 6.46909 14.1244 6.54723 14.0463C6.62537 13.9681 6.66927 13.8621 6.66927 13.7516V13.335H7.08344C7.41496 13.335 7.7329 13.2033 7.96732 12.9688C8.20174 12.7344 8.33344 12.4165 8.33344 12.085C8.33344 11.7534 8.20174 11.4355 7.96732 11.2011C7.7329 10.9667 7.41496 10.835 7.08344 10.835H6.2526ZM7.08344 12.5016H6.66927V11.6683H7.08344C7.19394 11.6683 7.29993 11.7122 7.37807 11.7903C7.45621 11.8685 7.5001 11.9745 7.5001 12.085C7.5001 12.1955 7.45621 12.3014 7.37807 12.3796C7.29993 12.4577 7.19394 12.5016 7.08344 12.5016ZM12.4984 11.2508C12.4987 11.1404 12.5427 11.0347 12.6208 10.9567C12.6989 10.8787 12.8047 10.835 12.9151 10.835H14.1693C14.2798 10.835 14.3858 10.8789 14.4639 10.957C14.542 11.0351 14.5859 11.1411 14.5859 11.2516C14.5859 11.3621 14.542 11.4681 14.4639 11.5463C14.3858 11.6244 14.2798 11.6683 14.1693 11.6683H13.3309L13.3301 12.5033H14.1693C14.2798 12.5033 14.3858 12.5472 14.4639 12.6253C14.542 12.7035 14.5859 12.8095 14.5859 12.92C14.5859 13.0305 14.542 13.1364 14.4639 13.2146C14.3858 13.2927 14.2798 13.3366 14.1693 13.3366H13.3301L13.3318 13.7508C13.3319 13.8055 13.3212 13.8597 13.3004 13.9103C13.2795 13.9609 13.2489 14.0069 13.2103 14.0457C13.1323 14.124 13.0264 14.1681 12.9159 14.1683C12.8054 14.1685 12.6994 14.1248 12.6211 14.0468C12.5428 13.9689 12.4987 13.863 12.4984 13.7525L12.4959 12.9208V12.9191L12.4984 11.2508ZM9.58344 10.835C9.47293 10.835 9.36695 10.8789 9.28881 10.957C9.21067 11.0351 9.16677 11.1411 9.16677 11.2516V13.7516C9.16677 13.8621 9.21067 13.9681 9.28881 14.0463C9.36695 14.1244 9.47293 14.1683 9.58344 14.1683H9.99844C10.4405 14.1683 10.8644 13.9927 11.1769 13.6801C11.4895 13.3676 11.6651 12.9437 11.6651 12.5016C11.6651 12.0596 11.4895 11.6357 11.1769 11.3231C10.8644 11.0106 10.4405 10.835 9.99844 10.835H9.58344ZM10.0001 13.335V11.6683C10.2211 11.6683 10.4331 11.7561 10.5894 11.9124C10.7456 12.0687 10.8334 12.2806 10.8334 12.5016C10.8334 12.7226 10.7456 12.9346 10.5894 13.0909C10.4331 13.2472 10.2211 13.335 10.0001 13.335Z" fill="#A3ADBD"/>
<path d="M16.6667 16.667V15.697C17.1592 15.4628 17.5 14.9603 17.5 14.3787V10.6253C17.5 10.0437 17.1592 9.54199 16.6667 9.30699V8.19033C16.6666 7.74833 16.4909 7.32448 16.1783 7.01199L11.3208 2.15533C11.308 2.14335 11.2943 2.13221 11.28 2.12199C11.2697 2.11403 11.2597 2.10569 11.25 2.09699C11.1927 2.04288 11.1317 1.99277 11.0675 1.94699C11.0462 1.93323 11.0239 1.92097 11.0008 1.91033L10.9608 1.89033L10.9192 1.86616C10.8742 1.84033 10.8283 1.81366 10.7808 1.79366C10.6149 1.72738 10.4393 1.68854 10.2608 1.67866C10.2442 1.67783 10.2275 1.67533 10.2117 1.67283C10.189 1.66933 10.1662 1.66738 10.1433 1.66699H5C4.55797 1.66699 4.13405 1.84259 3.82149 2.15515C3.50893 2.46771 3.33333 2.89163 3.33333 3.33366V9.30699C2.84083 9.54116 2.5 10.0437 2.5 10.6253V14.3787C2.5 14.9603 2.84083 15.462 3.33333 15.697V16.667C3.33333 17.109 3.50893 17.5329 3.82149 17.8455C4.13405 18.1581 4.55797 18.3337 5 18.3337H15C15.442 18.3337 15.8659 18.1581 16.1785 17.8455C16.4911 17.5329 16.6667 17.109 16.6667 16.667ZM15 17.0837H5C4.88949 17.0837 4.78351 17.0398 4.70537 16.9616C4.62723 16.8835 4.58333 16.7775 4.58333 16.667V15.837H15.4167V16.667C15.4167 16.7775 15.3728 16.8835 15.2946 16.9616C15.2165 17.0398 15.1105 17.0837 15 17.0837ZM15.4167 8.33366V9.16699H4.58333V3.33366C4.58333 3.22315 4.62723 3.11717 4.70537 3.03903C4.78351 2.96089 4.88949 2.91699 5 2.91699H10V6.66699C10 7.10902 10.1756 7.53294 10.4882 7.8455C10.8007 8.15806 11.2246 8.33366 11.6667 8.33366H15.4167ZM14.4817 7.08366H11.6667C11.5562 7.08366 11.4502 7.03976 11.372 6.96162C11.2939 6.88348 11.25 6.7775 11.25 6.66699V3.85116L14.4817 7.08366ZM3.95833 10.417H16.0417C16.0969 10.417 16.1499 10.4389 16.189 10.478C16.2281 10.5171 16.25 10.5701 16.25 10.6253V14.3787C16.25 14.4339 16.2281 14.4869 16.189 14.526C16.1499 14.565 16.0969 14.587 16.0417 14.587H3.95833C3.90308 14.587 3.85009 14.565 3.81102 14.526C3.77195 14.4869 3.75 14.4339 3.75 14.3787V10.6253C3.75 10.5701 3.77195 10.5171 3.81102 10.478C3.85009 10.4389 3.90308 10.417 3.95833 10.417Z" fill="#A3ADBD"/>
</svg>
