
<svg xmlns="http://www.w3.org/2000/svg" width="20" height="20" viewBox="0 0 20 20" fill="none">
  <mask id="mask0_245_29613" style="mask-type:alpha" maskUnits="userSpaceOnUse" x="0" y="0" width="20" height="20">
    <rect width="20" height="20" fill="#D9D9D9"/>
  </mask>
  <g mask="url(#mask0_245_29613)">
    <path d="M5.12821 14.7599H9.87179V14.409C9.87179 14.1876 9.81287 13.9826 9.69502 13.7938C9.57717 13.6051 9.4128 13.4586 9.20192 13.3545C8.92939 13.2487 8.65346 13.1659 8.37412 13.1061C8.09479 13.0462 7.80342 13.0163 7.5 13.0163C7.19658 13.0163 6.90521 13.0462 6.62587 13.1061C6.34654 13.1659 6.07061 13.252 5.79808 13.3643C5.58719 13.4578 5.42283 13.5995 5.30498 13.7896C5.18713 13.9797 5.12821 14.1861 5.12821 14.409V14.7599ZM12.6218 13.7439H14.3782C14.5495 13.7439 14.696 13.6831 14.8176 13.5616C14.9392 13.44 15 13.2937 15 13.1225C15 12.9513 14.9392 12.8048 14.8176 12.683C14.696 12.5612 14.5495 12.5003 14.3782 12.5003H12.6218C12.4505 12.5003 12.304 12.5611 12.1824 12.6826C12.0608 12.8042 12 12.9505 12 13.1217C12 13.2929 12.0608 13.4394 12.1824 13.5612C12.304 13.683 12.4505 13.7439 12.6218 13.7439ZM7.4981 12.5003C7.80919 12.5003 8.07424 12.3914 8.29327 12.1737C8.51228 11.9559 8.62179 11.6915 8.62179 11.3804C8.62179 11.0693 8.51291 10.8043 8.29515 10.5853C8.07738 10.3663 7.81296 10.2567 7.5019 10.2567C7.19081 10.2567 6.92576 10.3656 6.70673 10.5834C6.48772 10.8011 6.37821 11.0656 6.37821 11.3766C6.37821 11.6877 6.48709 11.9528 6.70485 12.1718C6.92262 12.3908 7.18703 12.5003 7.4981 12.5003ZM12.6218 11.5003H14.3782C14.5495 11.5003 14.696 11.4395 14.8176 11.318C14.9392 11.1965 15 11.0501 15 10.8789C15 10.7077 14.9392 10.5612 14.8176 10.4394C14.696 10.3176 14.5495 10.2567 14.3782 10.2567H12.6218C12.4505 10.2567 12.304 10.3175 12.1824 10.4391C12.0608 10.5606 12 10.707 12 10.8781C12 11.0493 12.0608 11.1958 12.1824 11.3176C12.304 11.4394 12.4505 11.5003 12.6218 11.5003ZM3.75644 17.5836C3.38133 17.5836 3.06426 17.4541 2.80523 17.1951C2.5462 16.936 2.41669 16.619 2.41669 16.2439V7.75674C2.41669 7.38163 2.5462 7.06456 2.80523 6.80553C3.06426 6.54651 3.38133 6.41699 3.75644 6.41699H8.41669V3.50031C8.41669 3.2024 8.52276 2.94737 8.73492 2.73522C8.94707 2.52307 9.2021 2.41699 9.5 2.41699H10.5C10.7979 2.41699 11.0529 2.52307 11.2651 2.73522C11.4772 2.94737 11.5833 3.2024 11.5833 3.50031V6.41699H16.2436C16.6187 6.41699 16.9357 6.54651 17.1948 6.80553C17.4538 7.06456 17.5833 7.38163 17.5833 7.75674V16.2439C17.5833 16.619 17.4538 16.936 17.1948 17.1951C16.9357 17.4541 16.6187 17.5836 16.2436 17.5836H3.75644ZM3.75644 16.5003H16.2436C16.3184 16.5003 16.3798 16.4763 16.4279 16.4282C16.476 16.3801 16.5 16.3187 16.5 16.2439V7.75674C16.5 7.68195 16.476 7.62051 16.4279 7.57243C16.3798 7.52435 16.3184 7.50031 16.2436 7.50031H11.5833V7.82085C11.5833 8.11999 11.4765 8.37532 11.2629 8.58685C11.0493 8.79837 10.795 8.90414 10.5 8.90414H9.5C9.20503 8.90414 8.95074 8.79733 8.73712 8.58372C8.5235 8.37011 8.41669 8.11582 8.41669 7.82085V7.50031H3.75644C3.68165 7.50031 3.62021 7.52435 3.57212 7.57243C3.52404 7.62051 3.5 7.68195 3.5 7.75674V16.2439C3.5 16.3187 3.52404 16.3801 3.57212 16.4282C3.62021 16.4763 3.68165 16.5003 3.75644 16.5003ZM9.5 7.82085H10.5V3.50031H9.5V7.82085Z" fill="#485566"/>
  </g>
</svg>
    