<svg xmlns="http://www.w3.org/2000/svg" width="14" height="15" viewBox="0 0 14 15" fill="none">
  <path d="M4.41176 0C3.43714 0 2.64706 0.790086 2.64706 1.76471V6.35915C2.93143 6.27872 3.2264 6.22356 3.52941 6.19625V1.76471C3.52941 1.2774 3.92446 0.882353 4.41176 0.882353H7.94118V3.97059C7.94118 4.70155 8.53374 5.29412 9.26471 5.29412H12.3529V12.3529C12.3529 12.8403 11.9579 13.2353 11.4706 13.2353H8.29437C8.13299 13.551 7.93806 13.8467 7.71427 14.1176H11.4706C12.4452 14.1176 13.2353 13.3276 13.2353 12.3529V4.77725C13.2353 4.42623 13.0959 4.08958 12.8476 3.84137L9.39392 0.387653C9.14571 0.139443 8.80907 0 8.45805 0H4.41176ZM12.1702 4.41176H9.26471C9.02105 4.41176 8.82353 4.21424 8.82353 3.97059V1.06509L12.1702 4.41176ZM7.94118 11.0294C7.94118 13.2223 6.16348 15 3.97059 15C1.77769 15 0 13.2223 0 11.0294C0 8.83652 1.77769 7.05882 3.97059 7.05882C6.16348 7.05882 7.94118 8.83652 7.94118 11.0294ZM6.04725 9.39392C5.87496 9.22163 5.59563 9.22163 5.42334 9.39392L3.08824 11.729L2.51784 11.1586C2.34555 10.9863 2.06621 10.9863 1.89392 11.1586C1.72163 11.3309 1.72163 11.6103 1.89392 11.7825L2.77628 12.6649C2.94857 12.8372 3.2279 12.8372 3.40019 12.6649L6.04725 10.0178C6.21954 9.84555 6.21954 9.56621 6.04725 9.39392Z" fill="#485566"/>
</svg>