<svg width="20" height="20" viewBox="0 0 20 20" fill="none" xmlns="http://www.w3.org/2000/svg">
<path d="M15.0781 16.25C15.0781 16.3536 15.037 16.453 14.9637 16.5262C14.8905 16.5995 14.7911 16.6406 14.6875 16.6406H5.3125C5.2089 16.6406 5.10954 16.5995 5.03629 16.5262C4.96303 16.453 4.92188 16.3536 4.92188 16.25V3.75C4.92188 3.6464 4.96303 3.54704 5.03629 3.47379C5.10954 3.40053 5.2089 3.35938 5.3125 3.35938H10V6.875C10 7.2894 10.1646 7.68683 10.4576 7.97985C10.7507 8.27288 11.1481 8.4375 11.5625 8.4375H15.0781V16.25ZM11.1719 4.23516L14.2016 7.26562H11.5625C11.4589 7.26562 11.3595 7.22447 11.2863 7.15121C11.213 7.07796 11.1719 6.9786 11.1719 6.875V4.23516ZM15.7922 7.19844L11.2383 2.64531C11.218 2.625 11.193 2.60938 11.1719 2.59063C11.1181 2.5399 11.061 2.49291 11.0008 2.45C10.9695 2.42891 10.9336 2.41484 10.9008 2.39687C10.8453 2.36562 10.7906 2.33125 10.732 2.30625C10.5765 2.24411 10.4118 2.2077 10.2445 2.19844C10.2078 2.19609 10.1719 2.1875 10.1344 2.1875H5.3125C4.8981 2.1875 4.50067 2.35212 4.20765 2.64515C3.91462 2.93817 3.75 3.3356 3.75 3.75V16.25C3.75 16.6644 3.91462 17.0618 4.20765 17.3549C4.50067 17.6479 4.8981 17.8125 5.3125 17.8125H14.6875C15.1019 17.8125 15.4993 17.6479 15.7924 17.3549C16.0854 17.0618 16.25 16.6644 16.25 16.25V8.30312C16.2499 7.88876 16.0852 7.49139 15.7922 7.19844Z" fill="#0D0F12"/>
</svg>
