<svg xmlns="http://www.w3.org/2000/svg" width="20" height="20" viewBox="0 0 20 20" fill="none">
  <path d="M5.52092 3.31001C5.36436 3.31001 5.21421 3.37221 5.10351 3.48291C4.9928 3.59362 4.93061 3.74376 4.93061 3.90032V16.1C4.93061 16.4259 5.19507 16.6904 5.52092 16.6904H8.49605C8.41473 17.0966 8.49068 17.5186 8.70856 17.871H5.52092C5.05124 17.871 4.6008 17.6844 4.26869 17.3523C3.93658 17.0202 3.75 16.5697 3.75 16.1V3.90032C3.75 3.43064 3.93658 2.9802 4.26869 2.64809C4.6008 2.31597 5.05124 2.12939 5.52092 2.12939H10.311C10.6762 2.12939 11.0265 2.27422 11.2847 2.53317L15.9394 7.18795C16.1984 7.44611 16.3432 7.79636 16.3432 8.16157V8.42603H16.2409C16.1538 8.42168 16.0666 8.42168 15.9795 8.42603H11.6207C11.2032 8.42603 10.8029 8.26018 10.5076 7.96497C10.2124 7.66976 10.0466 7.26936 10.0466 6.85187V3.31001H5.52092ZM11.2272 4.14432V6.85187C11.2272 6.95624 11.2687 7.05634 11.3425 7.13014C11.4163 7.20395 11.5164 7.24541 11.6207 7.24541H14.3283L11.2272 4.14432Z" fill="#485566"/>
  <path d="M16.1159 9.21289H16.1175C16.4732 9.21319 16.8208 9.3189 17.1164 9.51667C17.4121 9.71445 17.6424 9.99541 17.7785 10.3241C17.9145 10.6527 17.9501 11.0143 17.8807 11.3632C17.8113 11.712 17.64 12.0325 17.3886 12.2841L12.7433 16.9294C12.4726 17.2005 12.1334 17.3928 11.7618 17.4859L10.3207 17.8456C10.1774 17.8814 10.0272 17.8794 9.88489 17.84C9.74255 17.8006 9.61284 17.7249 9.5084 17.6205C9.40395 17.516 9.32833 17.3863 9.28888 17.244C9.24944 17.1016 9.24752 16.9515 9.28331 16.8082L9.643 15.3679C9.73588 14.9956 9.92792 14.6563 10.1995 14.3856L14.8448 9.74023C15.0115 9.57295 15.2096 9.44025 15.4277 9.34975C15.6459 9.25925 15.8797 9.21274 16.1159 9.21289Z" fill="#485566"/>
</svg>