<svg width="24" height="24" viewBox="0 0 24 24" fill="none" xmlns="http://www.w3.org/2000/svg">
<path d="M6.15666 19.365H17.8515C18.0161 19.3653 18.1744 19.428 18.2945 19.5404C18.4147 19.6529 18.4877 19.8067 18.4988 19.9709C18.5099 20.1351 18.4583 20.2974 18.3544 20.425C18.2505 20.5527 18.102 20.6361 17.939 20.6585L17.8515 20.6646H6.15666C5.99085 20.6663 5.83067 20.6045 5.70892 20.492C5.58716 20.3794 5.51305 20.2245 5.50175 20.0591C5.49046 19.8937 5.54284 19.7302 5.64816 19.6021C5.75349 19.474 5.90379 19.3911 6.06829 19.3702L6.15666 19.365ZM11.9036 3.3381L12.0049 3.33203C12.2172 3.33206 12.422 3.40997 12.5806 3.55099C12.7391 3.692 12.8405 3.88632 12.8653 4.09707L12.8714 4.19844V15.1066L15.7253 12.2535C15.8745 12.1043 16.073 12.0147 16.2836 12.0014C16.4941 11.9882 16.7023 12.0523 16.869 12.1816L16.9504 12.2543C17.0996 12.4035 17.1892 12.602 17.2025 12.8126C17.2157 13.0232 17.1517 13.2313 17.0223 13.398L16.9504 13.4795L12.621 17.808C12.4719 17.9573 12.2734 18.0471 12.0629 18.0605C11.8523 18.0739 11.6441 18.01 11.4773 17.8808L11.3959 17.8089L7.06033 13.4795C6.90329 13.3239 6.81164 13.1142 6.80415 12.8933C6.79665 12.6724 6.87388 12.4569 7.02001 12.2911C7.16615 12.1253 7.37015 12.0215 7.59025 12.0012C7.81035 11.9808 8.02991 12.0453 8.20399 12.1816L8.28544 12.2535L11.1385 15.1022V4.19844C11.1386 3.98623 11.2165 3.78141 11.3575 3.62282C11.4985 3.46424 11.6928 3.36293 11.9036 3.3381Z" fill="#67768E"/>
</svg>
