<svg xmlns="http://www.w3.org/2000/svg" width="15" height="15" viewBox="0 0 15 15" fill="none">
  <path d="M13.1875 4.02051V10.1455C13.1875 10.4936 13.0492 10.8274 12.8031 11.0736C12.5569 11.3197 12.2231 11.458 11.875 11.458H3.125C2.7769 11.458 2.44306 11.3197 2.19692 11.0736C1.95078 10.8274 1.8125 10.4936 1.8125 10.1455V4.02051M13.1875 4.02051C13.1875 3.67241 13.0492 3.33857 12.8031 3.09243C12.5569 2.84629 12.2231 2.70801 11.875 2.70801H3.125C2.7769 2.70801 2.44306 2.84629 2.19692 3.09243C1.95078 3.33857 1.8125 3.67241 1.8125 4.02051M13.1875 4.02051V4.16226C13.1875 4.38634 13.1302 4.6067 13.0209 4.80235C12.9117 4.99799 12.7541 5.1624 12.5633 5.27992L8.18833 7.97201C7.98137 8.09949 7.74307 8.16699 7.5 8.16699C7.25693 8.16699 7.01863 8.09949 6.81167 7.97201L2.43667 5.28051C2.24587 5.16299 2.08834 4.99857 1.97908 4.80293C1.86982 4.60729 1.81248 4.38693 1.8125 4.16284V4.02051" stroke="#0D0F12" stroke-width="0.875" stroke-linecap="round" stroke-linejoin="round"/>
</svg>