<svg width="56" height="75" viewBox="0 0 56 75" fill="none" xmlns="http://www.w3.org/2000/svg">
<path fill-rule="evenodd" clip-rule="evenodd" d="M52.7354 28.2539H6.48535C5.49035 28.2539 4.5366 28.6489 3.83285 29.3527C3.13035 30.0552 2.73535 31.0089 2.73535 32.0039C2.73535 35.2764 2.73535 39.5039 2.73535 39.5039H52.7354V28.2539Z" fill="url(#paint0_linear_59_5733)"/>
<path d="M52.7354 32.8633H2.73535V35.192H52.7354V32.8633Z" fill="url(#paint1_linear_59_5733)"/>
<path fill-rule="evenodd" clip-rule="evenodd" d="M52.7368 27.1172C52.7368 26.1234 52.3418 25.1697 51.638 24.4659C50.9343 23.7634 49.9805 23.3672 48.9868 23.3672C44.5105 23.3672 37.1368 23.3672 33.1893 23.3672C31.5805 23.3672 30.1518 24.3934 29.6368 25.9172C28.9143 28.0584 27.998 30.7684 27.998 30.7684H52.7368V27.1172Z" fill="url(#paint2_linear_59_5733)"/>
<path fill-rule="evenodd" clip-rule="evenodd" d="M55.8461 40.2752C56.0711 38.8327 55.6536 37.3627 54.7036 36.2527C53.7536 35.1427 52.3661 34.5039 50.9048 34.5039C39.8786 34.5039 16.1161 34.5039 5.08982 34.5039C3.62857 34.5039 2.24107 35.1427 1.29107 36.2527C0.341067 37.3627 -0.0764333 38.8327 0.148567 40.2752C1.42107 48.4152 3.71107 63.0727 4.83607 70.2752C5.21732 72.7102 7.31357 74.5039 9.77732 74.5039C18.3686 74.5039 37.6261 74.5039 46.2173 74.5039C48.6811 74.5039 50.7773 72.7102 51.1586 70.2752C52.2836 63.0727 54.5736 48.4152 55.8461 40.2752Z" fill="url(#paint3_linear_59_5733)"/>
<path fill-rule="evenodd" clip-rule="evenodd" d="M0.148567 40.2752L0.789817 44.3752C0.563567 42.9314 1.05982 41.4614 2.00982 40.3514C2.95982 39.2414 4.34732 38.6027 5.80857 38.6027C16.5723 38.6027 39.4223 38.6027 50.1861 38.6027C51.6473 38.6027 53.0348 39.2414 53.9848 40.3514C54.9348 41.4614 55.4311 42.9314 55.2048 44.3752L55.8461 40.2752C56.0711 38.8327 55.6536 37.3627 54.7036 36.2527C53.7536 35.1427 52.3661 34.5039 50.9048 34.5039C39.8786 34.5039 16.1161 34.5039 5.08982 34.5039C3.62857 34.5039 2.24107 35.1427 1.29107 36.2527C0.341067 37.3627 -0.0764333 38.8327 0.148567 40.2752Z" fill="#E9F3FC"/>
<path fill-rule="evenodd" clip-rule="evenodd" d="M25.1426 64.3398C25.1426 62.9598 24.0238 61.8398 22.6426 61.8398C19.8688 61.8398 15.4176 61.8398 12.6426 61.8398C11.2626 61.8398 10.1426 62.9598 10.1426 64.3398C10.1426 65.1448 10.1426 66.0361 10.1426 66.8398C10.1426 68.2211 11.2626 69.3398 12.6426 69.3398C15.4176 69.3398 19.8688 69.3398 22.6426 69.3398C24.0238 69.3398 25.1426 68.2211 25.1426 66.8398C25.1426 66.0361 25.1426 65.1448 25.1426 64.3398Z" fill="url(#paint4_linear_59_5733)"/>
<path fill-rule="evenodd" clip-rule="evenodd" d="M17.4444 29.7702C17.3894 29.4177 17.3631 29.0702 17.3644 28.7277C17.3669 28.0389 16.8094 27.4764 16.1194 27.4727C15.4294 27.4702 14.8669 28.0277 14.8644 28.7177C14.8619 29.1902 14.8981 29.6714 14.9756 30.1589C15.0819 30.8402 15.7231 31.3064 16.4044 31.1989C17.0856 31.0927 17.5519 30.4514 17.4444 29.7702Z" fill="url(#paint5_linear_59_5733)"/>
<path fill-rule="evenodd" clip-rule="evenodd" d="M18.7556 24.9839C19.0006 24.6964 19.2756 24.4264 19.5806 24.1739C20.1118 23.7339 20.1868 22.9464 19.7468 22.4139C19.3068 21.8826 18.5193 21.8076 17.9868 22.2476C17.5681 22.5939 17.1893 22.9676 16.8518 23.3626C16.4043 23.8889 16.4681 24.6776 16.9931 25.1251C17.5181 25.5726 18.3081 25.5089 18.7556 24.9839Z" fill="url(#paint6_linear_59_5733)"/>
<path fill-rule="evenodd" clip-rule="evenodd" d="M23.4677 22.3699C23.9727 22.2561 24.5052 22.1711 25.064 22.1149C25.7502 22.0461 26.2515 21.4336 26.1827 20.7474C26.114 20.0611 25.5015 19.5586 24.8152 19.6274C24.1527 19.6936 23.5202 19.7961 22.9202 19.9311C22.2465 20.0824 21.8227 20.7511 21.974 21.4236C22.1252 22.0974 22.794 22.5211 23.4677 22.3699Z" fill="url(#paint7_linear_59_5733)"/>
<path fill-rule="evenodd" clip-rule="evenodd" d="M29.8663 22.1269C30.6288 22.1469 31.3526 22.1406 32.0426 22.1119C32.7313 22.0831 33.2676 21.4994 33.2388 20.8106C33.2101 20.1219 32.6276 19.5856 31.9376 19.6144C31.3013 19.6406 30.6326 19.6456 29.9301 19.6281C29.2401 19.6106 28.6663 20.1569 28.6488 20.8456C28.6313 21.5356 29.1776 22.1094 29.8663 22.1269Z" fill="url(#paint8_linear_59_5733)"/>
<path fill-rule="evenodd" clip-rule="evenodd" d="M37.2061 21.331C38.0123 21.0973 38.7398 20.8185 39.3923 20.506C40.0136 20.2073 40.2761 19.4598 39.9773 18.8373C39.6786 18.216 38.9311 17.9535 38.3098 18.2523C37.7723 18.5098 37.1736 18.7373 36.5086 18.931C35.8461 19.1235 35.4648 19.8173 35.6573 20.4798C35.8498 21.1423 36.5436 21.5235 37.2061 21.331Z" fill="url(#paint9_linear_59_5733)"/>
<path fill-rule="evenodd" clip-rule="evenodd" d="M43.1493 17.4262C43.7468 16.5737 44.1368 15.665 44.3518 14.7462C44.5093 14.0737 44.0906 13.4012 43.4193 13.2437C42.7481 13.0875 42.0743 13.505 41.9181 14.1762C41.7718 14.7987 41.5068 15.4137 41.1018 15.9912C40.7068 16.5562 40.8431 17.3362 41.4081 17.7325C41.9731 18.1287 42.7543 17.9912 43.1493 17.4262Z" fill="url(#paint10_linear_59_5733)"/>
<path fill-rule="evenodd" clip-rule="evenodd" d="M43.8908 9.72413C43.3371 8.43288 42.4696 7.34538 41.4396 6.63538C40.8708 6.24288 40.0921 6.38663 39.7008 6.95413C39.3083 7.52163 39.4521 8.30163 40.0196 8.69288C40.6883 9.15413 41.2346 9.87288 41.5933 10.7104C41.8658 11.3454 42.6021 11.6391 43.2358 11.3666C43.8696 11.0941 44.1633 10.3591 43.8908 9.72413Z" fill="url(#paint11_linear_59_5733)"/>
<path fill-rule="evenodd" clip-rule="evenodd" d="M27.8613 6.03655C29.2138 -1.6222 40.9351 -1.1272 34.1113 6.03655H27.8613Z" fill="url(#paint12_linear_59_5733)"/>
<path fill-rule="evenodd" clip-rule="evenodd" d="M27.8613 7.97656C29.2138 15.6341 40.9351 15.1403 34.1113 7.97656H27.8613Z" fill="url(#paint13_linear_59_5733)"/>
<path fill-rule="evenodd" clip-rule="evenodd" d="M27.75 8.25391H36.12C36.81 8.25391 37.37 7.69391 37.37 7.00391C37.37 6.31391 36.81 5.75391 36.12 5.75391H27.75C27.0612 5.75391 26.5 6.31391 26.5 7.00391C26.5 7.69391 27.0612 8.25391 27.75 8.25391Z" fill="url(#paint14_linear_59_5733)"/>
<defs>
<linearGradient id="paint0_linear_59_5733" x1="2.7351" y1="31.4285" x2="52.7351" y2="31.4285" gradientUnits="userSpaceOnUse">
<stop stop-color="#CADCF0"/>
<stop offset="1" stop-color="#A4BBDB"/>
</linearGradient>
<linearGradient id="paint1_linear_59_5733" x1="2.7351" y1="34.0272" x2="52.7351" y2="34.0272" gradientUnits="userSpaceOnUse">
<stop stop-color="#A4BBDB"/>
<stop offset="1" stop-color="#8DA3BE"/>
</linearGradient>
<linearGradient id="paint2_linear_59_5733" x1="2.99805" y1="31.4431" x2="52.998" y2="31.4431" gradientUnits="userSpaceOnUse">
<stop stop-color="#CADCF0"/>
<stop offset="1" stop-color="#A4BBDB"/>
</linearGradient>
<linearGradient id="paint3_linear_59_5733" x1="0.0892042" y1="54.5039" x2="55.9055" y2="54.5039" gradientUnits="userSpaceOnUse">
<stop stop-color="#E9F3FC"/>
<stop offset="1" stop-color="#CADCF0"/>
</linearGradient>
<linearGradient id="paint4_linear_59_5733" x1="10.1432" y1="65.5901" x2="25.1432" y2="65.5901" gradientUnits="userSpaceOnUse">
<stop stop-color="#559AFF"/>
<stop offset="1" stop-color="#2E69EF"/>
</linearGradient>
<linearGradient id="paint5_linear_59_5733" x1="29.0555" y1="6.95028" x2="33.1906" y2="31.8124" gradientUnits="userSpaceOnUse">
<stop stop-color="#559AFF"/>
<stop offset="1" stop-color="#2E69EF"/>
</linearGradient>
<linearGradient id="paint6_linear_59_5733" x1="29.0542" y1="6.95525" x2="33.1893" y2="31.8174" gradientUnits="userSpaceOnUse">
<stop stop-color="#559AFF"/>
<stop offset="1" stop-color="#2E69EF"/>
</linearGradient>
<linearGradient id="paint7_linear_59_5733" x1="29.0551" y1="6.955" x2="33.1902" y2="31.8171" gradientUnits="userSpaceOnUse">
<stop stop-color="#559AFF"/>
<stop offset="1" stop-color="#2E69EF"/>
</linearGradient>
<linearGradient id="paint8_linear_59_5733" x1="29.055" y1="6.972" x2="33.19" y2="31.8341" gradientUnits="userSpaceOnUse">
<stop stop-color="#559AFF"/>
<stop offset="1" stop-color="#2E69EF"/>
</linearGradient>
<linearGradient id="paint9_linear_59_5733" x1="29.0535" y1="6.9749" x2="33.1885" y2="31.837" gradientUnits="userSpaceOnUse">
<stop stop-color="#559AFF"/>
<stop offset="1" stop-color="#2E69EF"/>
</linearGradient>
<linearGradient id="paint10_linear_59_5733" x1="29.0542" y1="6.96507" x2="33.1893" y2="31.8272" gradientUnits="userSpaceOnUse">
<stop stop-color="#559AFF"/>
<stop offset="1" stop-color="#2E69EF"/>
</linearGradient>
<linearGradient id="paint11_linear_59_5733" x1="29.0544" y1="6.958" x2="33.1895" y2="31.8201" gradientUnits="userSpaceOnUse">
<stop stop-color="#559AFF"/>
<stop offset="1" stop-color="#2E69EF"/>
</linearGradient>
<linearGradient id="paint12_linear_59_5733" x1="27.8616" y1="3.25644" x2="36.2306" y2="3.25644" gradientUnits="userSpaceOnUse">
<stop stop-color="#E9F3FC"/>
<stop offset="1" stop-color="#CADCF0"/>
</linearGradient>
<linearGradient id="paint13_linear_59_5733" x1="27.8616" y1="10.7564" x2="36.2306" y2="10.7564" gradientUnits="userSpaceOnUse">
<stop stop-color="#E9F3FC"/>
<stop offset="1" stop-color="#CADCF0"/>
</linearGradient>
<linearGradient id="paint14_linear_59_5733" x1="26.5006" y1="7.00386" x2="37.3696" y2="7.00386" gradientUnits="userSpaceOnUse">
<stop stop-color="#559AFF"/>
<stop offset="1" stop-color="#2E69EF"/>
</linearGradient>
</defs>
</svg>
