<svg xmlns="http://www.w3.org/2000/svg" width="18" height="18" viewBox="0 0 18 18" fill="none">
  <path d="M10.3658 4.875H14.8125C15.2196 4.87487 15.613 5.02191 15.9203 5.28903C16.2275 5.55615 16.4278 5.92532 16.4843 6.3285L16.4963 6.447L16.5 6.5625V13.3125C16.5001 13.7401 16.3378 14.1518 16.046 14.4643C15.7542 14.7769 15.3546 14.967 14.928 14.9963L14.8125 15H3.1875C2.75991 15.0001 2.34823 14.8378 2.03568 14.546C1.72314 14.2542 1.53302 13.8546 1.50375 13.428L1.5 13.3125V7.87425L6.15525 7.875L6.30225 7.86825C6.59529 7.8428 6.87659 7.74119 7.11825 7.5735L7.23525 7.4835L10.3658 4.875ZM6.15525 3C6.50025 3 6.83625 3.10575 7.11825 3.3015L7.23525 3.3915L8.8125 4.70475L6.51525 6.6195L6.4515 6.66525C6.3853 6.70655 6.31123 6.73362 6.234 6.74475L6.1545 6.75L1.5 6.74925V4.6875C1.49995 4.25991 1.66222 3.84823 1.95403 3.53569C2.24583 3.22314 2.64541 3.03302 3.072 3.00375L3.1875 3H6.15525Z" fill="#E9EFFA"/>
</svg>