<svg width="18" height="18" viewBox="0 0 18 18" fill="none" xmlns="http://www.w3.org/2000/svg">
<path d="M13.3125 1.50586C13.7401 1.50581 14.1518 1.66808 14.4643 1.95989C14.7769 2.25169 14.967 2.65127 14.9963 3.07786L15 3.19336V14.8169C15.0001 15.2445 14.8378 15.6561 14.546 15.9687C14.2542 16.2812 13.8546 16.4713 13.428 16.5006L13.3125 16.5044H4.6875C4.25991 16.5044 3.84823 16.3421 3.53569 16.0503C3.22314 15.7585 3.03302 15.359 3.00375 14.9324L3 14.8169V3.19336C2.99995 2.76576 3.16222 2.35409 3.45403 2.04154C3.74583 1.729 4.14541 1.53888 4.572 1.50961L4.6875 1.50586H13.3125ZM5.8125 5.25061C5.66332 5.25061 5.52024 5.30987 5.41475 5.41536C5.30926 5.52085 5.25 5.66393 5.25 5.81311C5.25 5.96229 5.30926 6.10537 5.41475 6.21086C5.52024 6.31635 5.66332 6.37561 5.8125 6.37561H12.1875C12.3367 6.37561 12.4798 6.31635 12.5852 6.21086C12.6907 6.10537 12.75 5.96229 12.75 5.81311C12.75 5.66393 12.6907 5.52085 12.5852 5.41536C12.4798 5.30987 12.3367 5.25061 12.1875 5.25061H5.8125ZM5.25 8.81311C5.25 9.12361 5.502 9.37561 5.8125 9.37561H12.1875C12.3367 9.37561 12.4798 9.31635 12.5852 9.21086C12.6907 9.10537 12.75 8.96229 12.75 8.81311C12.75 8.66393 12.6907 8.52085 12.5852 8.41536C12.4798 8.30987 12.3367 8.25061 12.1875 8.25061H5.8125C5.66332 8.25061 5.52024 8.30987 5.41475 8.41536C5.30926 8.52085 5.25 8.66393 5.25 8.81311ZM5.8125 11.2506C5.66332 11.2506 5.52024 11.3099 5.41475 11.4154C5.30926 11.5209 5.25 11.6639 5.25 11.8131C5.25 11.9623 5.30926 12.1054 5.41475 12.2109C5.52024 12.3163 5.66332 12.3756 5.8125 12.3756H12.1875C12.3367 12.3756 12.4798 12.3163 12.5852 12.2109C12.6907 12.1054 12.75 11.9623 12.75 11.8131C12.75 11.6639 12.6907 11.5209 12.5852 11.4154C12.4798 11.3099 12.3367 11.2506 12.1875 11.2506H5.8125Z" fill="#1E63D0"/>
</svg>
