<svg width="24" height="24" viewBox="0 0 24 24" fill="none" xmlns="http://www.w3.org/2000/svg">
<g id="mdi-eye-off">
<path id="Vector" d="M11.8532 8.97869L14.5909 11.7078C14.5909 11.6646 14.5909 11.6128 14.5909 11.5696C14.5909 10.8825 14.3179 10.2234 13.8321 9.73755C13.3462 9.25166 12.6872 8.97869 12 8.97869C11.9482 8.97869 11.905 8.97869 11.8532 8.97869ZM8.13955 9.6696L9.47818 11.0082C9.435 11.1896 9.40909 11.371 9.40909 11.5696C9.40909 12.2568 9.68206 12.9158 10.168 13.4017C10.6538 13.8875 11.3128 14.1605 12 14.1605C12.19 14.1605 12.38 14.1346 12.5614 14.0914L13.9 15.4301C13.3214 15.7151 12.6823 15.8878 12 15.8878C10.8547 15.8878 9.7564 15.4328 8.94658 14.623C8.13677 13.8132 7.68182 12.7149 7.68182 11.5696C7.68182 10.8873 7.85455 10.2482 8.13955 9.6696ZM3.36364 4.89369L5.33273 6.86278L5.72136 7.25142C4.29636 8.37415 3.17364 9.84233 2.5 11.5696C3.99409 15.361 7.68182 18.0469 12 18.0469C13.3386 18.0469 14.6168 17.7878 15.7827 17.3214L16.1541 17.6841L18.6759 20.206L19.7727 19.1091L4.46045 3.79688M12 7.25142C13.1453 7.25142 14.2436 7.70637 15.0534 8.51619C15.8632 9.326 16.3182 10.4243 16.3182 11.5696C16.3182 12.1223 16.2059 12.6578 16.0073 13.1414L18.5377 15.6719C19.8332 14.5923 20.8695 13.176 21.5 11.5696C20.0059 7.77824 16.3182 5.09233 12 5.09233C10.7909 5.09233 9.63364 5.30824 8.54545 5.69687L10.4195 7.55369C10.9118 7.36369 11.4386 7.25142 12 7.25142Z" fill="#67768E"/>
</g>
</svg>
