<svg width="24" height="24" viewBox="0 0 24 24" fill="none" xmlns="http://www.w3.org/2000/svg">
<path d="M12 9.4098C11.3128 9.4098 10.6538 9.68277 10.168 10.1687C9.68206 10.6546 9.40909 11.3136 9.40909 12.0007C9.40909 12.6879 9.68206 13.3469 10.168 13.8328C10.6538 14.3186 11.3128 14.5916 12 14.5916C12.6872 14.5916 13.3462 14.3186 13.8321 13.8328C14.3179 13.3469 14.5909 12.6879 14.5909 12.0007C14.5909 11.3136 14.3179 10.6546 13.8321 10.1687C13.3462 9.68277 12.6872 9.4098 12 9.4098ZM12 16.3189C10.8547 16.3189 9.7564 15.8639 8.94658 15.0541C8.13677 14.2443 7.68182 13.146 7.68182 12.0007C7.68182 10.8555 8.13677 9.75711 8.94658 8.94729C9.7564 8.13748 10.8547 7.68253 12 7.68253C13.1453 7.68253 14.2436 8.13748 15.0534 8.94729C15.8632 9.75711 16.3182 10.8555 16.3182 12.0007C16.3182 13.146 15.8632 14.2443 15.0534 15.0541C14.2436 15.8639 13.1453 16.3189 12 16.3189ZM12 5.52344C7.68182 5.52344 3.99409 8.20935 2.5 12.0007C3.99409 15.7921 7.68182 18.478 12 18.478C16.3182 18.478 20.0059 15.7921 21.5 12.0007C20.0059 8.20935 16.3182 5.52344 12 5.52344Z" fill="#67768E"/>
</svg>
