<svg width="18" height="18" viewBox="0 0 18 18" fill="none" xmlns="http://www.w3.org/2000/svg">
<path d="M5.03019 2.46959C4.88954 2.32899 4.69881 2.25 4.49994 2.25C4.30107 2.25 4.11033 2.32899 3.96969 2.46959L2.99994 3.43934L2.78019 3.21959C2.63874 3.08297 2.44929 3.00738 2.25264 3.00908C2.05599 3.01079 1.86788 3.08967 1.72882 3.22873C1.58977 3.36778 1.51089 3.55589 1.50918 3.75254C1.50747 3.94919 1.58307 4.13864 1.71969 4.28009L2.46969 5.03009C2.61033 5.17069 2.80107 5.24968 2.99994 5.24968C3.19881 5.24968 3.38954 5.17069 3.53019 5.03009L5.03019 3.53009C5.17079 3.38944 5.24978 3.19871 5.24978 2.99984C5.24978 2.80097 5.17079 2.61024 5.03019 2.46959ZM15.7522 12.7446H7.49994L7.41219 12.7498C7.22237 12.7724 7.04833 12.8666 6.92564 13.0132C6.80294 13.1598 6.74086 13.3477 6.75206 13.5385C6.76326 13.7294 6.84691 13.9087 6.98591 14.04C7.12491 14.1712 7.30878 14.2444 7.49994 14.2446H15.7522L15.8399 14.2401C16.0311 14.2191 16.2069 14.1255 16.3311 13.9786C16.4552 13.8316 16.5181 13.6426 16.5068 13.4506C16.4956 13.2586 16.411 13.0783 16.2705 12.9469C16.1301 12.8155 15.9445 12.7431 15.7522 12.7446ZM15.7522 8.24984H7.49994L7.41219 8.25509C7.22237 8.27767 7.04833 8.37188 6.92564 8.51847C6.80294 8.66506 6.74086 8.85296 6.75206 9.04379C6.76326 9.23463 6.84691 9.41398 6.98591 9.5452C7.12491 9.67643 7.30878 9.74963 7.49994 9.74984H15.7522L15.8399 9.74459C16.0298 9.72201 16.2038 9.6278 16.3265 9.48121C16.4492 9.33462 16.5113 9.14672 16.5001 8.95589C16.4889 8.76506 16.4052 8.5857 16.2662 8.45448C16.1272 8.32325 15.9434 8.25005 15.7522 8.24984ZM15.7522 3.74984H7.49994L7.41219 3.75509C7.22237 3.77767 7.04833 3.87188 6.92564 4.01847C6.80294 4.16506 6.74086 4.35296 6.75206 4.54379C6.76326 4.73463 6.84691 4.91398 6.98591 5.0452C7.12491 5.17643 7.30878 5.24963 7.49994 5.24984H15.7522L15.8399 5.24459C16.0298 5.22201 16.2038 5.1278 16.3265 4.98121C16.4492 4.83462 16.5113 4.64672 16.5001 4.45589C16.4889 4.26505 16.4052 4.0857 16.2662 3.95448C16.1272 3.82325 15.9434 3.75005 15.7522 3.74984ZM5.03019 12.2196C4.88954 12.079 4.69881 12 4.49994 12C4.30107 12 4.11033 12.079 3.96969 12.2196L2.99994 13.1893L2.78019 12.9696C2.63874 12.833 2.44929 12.7574 2.25264 12.7591C2.05599 12.7608 1.86788 12.8397 1.72882 12.9787C1.58977 13.1178 1.51089 13.3059 1.50918 13.5025C1.50747 13.6992 1.58307 13.8886 1.71969 14.0301L2.46969 14.7801C2.61033 14.9207 2.80107 14.9997 2.99994 14.9997C3.19881 14.9997 3.38954 14.9207 3.53019 14.7801L5.03019 13.2801C5.17079 13.1394 5.24978 12.9487 5.24978 12.7498C5.24978 12.551 5.17079 12.3602 5.03019 12.2196ZM3.96969 7.34459C4.11114 7.20797 4.30059 7.13238 4.49724 7.13408C4.69389 7.13579 4.882 7.21467 5.02105 7.35373C5.16011 7.49278 5.23899 7.68089 5.24069 7.87754C5.2424 8.07419 5.16681 8.26364 5.03019 8.40509L3.53019 9.90509C3.38954 10.0457 3.19881 10.1247 2.99994 10.1247C2.80107 10.1247 2.61033 10.0457 2.46969 9.90509L1.71969 9.15509C1.64806 9.08591 1.59092 9.00315 1.55161 8.91164C1.51231 8.82014 1.49162 8.72173 1.49075 8.62214C1.48989 8.52256 1.50886 8.4238 1.54657 8.33162C1.58428 8.23945 1.63997 8.15571 1.71039 8.08529C1.78081 8.01487 1.86455 7.95918 1.95672 7.92147C2.0489 7.88376 2.14766 7.86479 2.24724 7.86565C2.34682 7.86652 2.44524 7.88721 2.53674 7.92651C2.62825 7.96582 2.711 8.02296 2.78019 8.09459L2.99994 8.31434L3.96969 7.34459Z" fill="#1E63D0"/>
</svg>
