<svg xmlns="http://www.w3.org/2000/svg" width="13" height="14" viewBox="0 0 13 14" fill="none">
  <path d="M2.13247 2.19922C1.84954 2.19922 1.5782 2.31161 1.37813 2.51168C1.17807 2.71174 1.06567 2.98309 1.06567 3.26602C1.06567 3.54895 1.17807 3.8203 1.37813 4.02036C1.5782 4.22042 1.84954 4.33282 2.13247 4.33282C2.41541 4.33282 2.68675 4.22042 2.88682 4.02036C3.08688 3.8203 3.19927 3.54895 3.19927 3.26602C3.19927 2.98309 3.08688 2.71174 2.88682 2.51168C2.68675 2.31161 2.41541 2.19922 2.13247 2.19922ZM4.79887 2.73282C4.72712 2.73004 4.65553 2.74177 4.58842 2.76731C4.5213 2.79286 4.46003 2.83169 4.40828 2.88147C4.35653 2.93126 4.31536 2.99098 4.28723 3.05706C4.25911 3.12313 4.24462 3.19421 4.24462 3.26602C4.24462 3.33783 4.25911 3.4089 4.28723 3.47498C4.31536 3.54106 4.35653 3.60078 4.40828 3.65057C4.46003 3.70035 4.5213 3.73918 4.58842 3.76472C4.65553 3.79027 4.72712 3.802 4.79887 3.79922H11.1989C11.3367 3.79388 11.4671 3.73537 11.5628 3.63596C11.6584 3.53654 11.7118 3.40396 11.7118 3.26602C11.7118 3.12808 11.6584 2.99549 11.5628 2.89608C11.4671 2.79667 11.3367 2.73816 11.1989 2.73282H4.79887ZM2.13247 5.93282C1.84965 5.93282 1.5784 6.04517 1.37842 6.24516C1.17843 6.44515 1.06607 6.71639 1.06607 6.99922C1.06607 7.28205 1.17843 7.55329 1.37842 7.75328C1.5784 7.95327 1.84965 8.06562 2.13247 8.06562C2.4153 8.06562 2.68654 7.95327 2.88653 7.75328C3.08652 7.55329 3.19887 7.28205 3.19887 6.99922C3.19887 6.71639 3.08652 6.44515 2.88653 6.24516C2.68654 6.04517 2.4153 5.93282 2.13247 5.93282ZM4.79887 6.46562C4.65735 6.46562 4.52163 6.52184 4.42156 6.62191C4.32149 6.72198 4.26527 6.8577 4.26527 6.99922C4.26527 7.14074 4.32149 7.27646 4.42156 7.37653C4.52163 7.4766 4.65735 7.53282 4.79887 7.53282H11.1989C11.3404 7.53282 11.4761 7.4766 11.5762 7.37653C11.6763 7.27646 11.7325 7.14074 11.7325 6.99922C11.7325 6.8577 11.6763 6.72198 11.5762 6.62191C11.4761 6.52184 11.3404 6.46562 11.1989 6.46562H4.79887ZM2.13247 9.66562C1.84954 9.66562 1.5782 9.77801 1.37813 9.97808C1.17807 10.1781 1.06567 10.4495 1.06567 10.7324C1.06567 11.0154 1.17807 11.2867 1.37813 11.4868C1.5782 11.6868 1.84954 11.7992 2.13247 11.7992C2.41541 11.7992 2.68675 11.6868 2.88682 11.4868C3.08688 11.2867 3.19927 11.0154 3.19927 10.7324C3.19927 10.4495 3.08688 10.1781 2.88682 9.97808C2.68675 9.77801 2.41541 9.66562 2.13247 9.66562ZM4.79887 10.1992C4.66103 10.2046 4.53062 10.2631 4.43498 10.3625C4.33935 10.4619 4.28593 10.5945 4.28593 10.7324C4.28593 10.8704 4.33935 11.0029 4.43498 11.1024C4.53062 11.2018 4.66103 11.2603 4.79887 11.2656H11.1989C11.2706 11.2684 11.3422 11.2567 11.4093 11.2311C11.4764 11.2056 11.5377 11.1668 11.5895 11.117C11.6412 11.0672 11.6824 11.0075 11.7105 10.9414C11.7386 10.8753 11.7531 10.8042 11.7531 10.7324C11.7531 10.6606 11.7386 10.5895 11.7105 10.5235C11.6824 10.4574 11.6412 10.3977 11.5895 10.3479C11.5377 10.2981 11.4764 10.2593 11.4093 10.2337C11.3422 10.2082 11.2706 10.1964 11.1989 10.1992H4.79887Z" fill="#1E63D0"/>
</svg>