<svg xmlns="http://www.w3.org/2000/svg" width="20" height="20" viewBox="0 0 20 20" fill="none">
  <path d="M9.17647 3C7.22723 3 5.64706 4.58017 5.64706 6.52941C5.64706 8.47865 7.22723 10.0588 9.17647 10.0588C11.1257 10.0588 12.7059 8.47865 12.7059 6.52941C12.7059 4.58017 11.1257 3 9.17647 3ZM6.52941 6.52941C6.52941 5.06748 7.71454 3.88235 9.17647 3.88235C10.6384 3.88235 11.8235 5.06748 11.8235 6.52941C11.8235 7.99134 10.6384 9.17647 9.17647 9.17647C7.71454 9.17647 6.52941 7.99134 6.52941 6.52941ZM4.77241 10.9412C3.7969 10.9412 3 11.7237 3 12.7059C3 14.1981 3.73483 15.3232 4.88382 16.0558C6.01497 16.7771 7.53993 17.1177 9.17647 17.1177C9.53899 17.1177 9.89603 17.1009 10.2445 17.0671C10.035 16.8063 9.85183 16.5234 9.69911 16.2225C9.52763 16.231 9.3533 16.2353 9.17647 16.2353C7.64549 16.2353 6.30281 15.9141 5.35819 15.3118C4.43141 14.7209 3.88235 13.8607 3.88235 12.7059C3.88235 12.2177 4.27753 11.8235 4.77241 11.8235L9.70563 11.8235C9.867 11.5078 10.0619 11.2122 10.2857 10.9412L4.77241 10.9412ZM14.0294 18C16.2223 18 18 16.2223 18 14.0294C18 11.8365 16.2223 10.0588 14.0294 10.0588C11.8365 10.0588 10.0588 11.8365 10.0588 14.0294C10.0588 16.2223 11.8365 18 14.0294 18ZM14.0294 11.8235C14.2731 11.8235 14.4706 12.0211 14.4706 12.2647V13.5882H15.7941C16.0378 13.5882 16.2353 13.7858 16.2353 14.0294C16.2353 14.2731 16.0378 14.4706 15.7941 14.4706H14.4706V15.7941C14.4706 16.0378 14.2731 16.2353 14.0294 16.2353C13.7858 16.2353 13.5882 16.0378 13.5882 15.7941V14.4706H12.2647C12.0211 14.4706 11.8235 14.2731 11.8235 14.0294C11.8235 13.7858 12.0211 13.5882 12.2647 13.5882H13.5882V12.2647C13.5882 12.0211 13.7858 11.8235 14.0294 11.8235Z" fill="#485566"/>
</svg>