<svg xmlns="http://www.w3.org/2000/svg" width="20" height="20" viewBox="0 0 20 20" fill="none">
  <path d="M3.33203 3.9585C3.33203 3.79274 3.39788 3.63376 3.51509 3.51655C3.6323 3.39934 3.79127 3.3335 3.95703 3.3335H14.3737C14.5395 3.3335 14.6984 3.39934 14.8156 3.51655C14.9328 3.63376 14.9987 3.79274 14.9987 3.9585V5.62516C14.9987 5.79092 14.9328 5.94989 14.8156 6.0671C14.6984 6.18431 14.5395 6.25016 14.3737 6.25016C14.2079 6.25016 14.049 6.18431 13.9318 6.0671C13.8145 5.94989 13.7487 5.79092 13.7487 5.62516V4.5835H9.79036V12.0552C9.37858 12.8342 9.16399 13.7023 9.16536 14.5835C9.16536 15.3218 9.31286 16.0252 9.58036 16.6668H7.29036C7.1246 16.6668 6.96563 16.601 6.84842 16.4838C6.73121 16.3666 6.66536 16.2076 6.66536 16.0418C6.66536 15.8761 6.73121 15.7171 6.84842 15.5999C6.96563 15.4827 7.1246 15.4168 7.29036 15.4168H8.54036V4.5835H4.58203V5.62516C4.58203 5.79092 4.51618 5.94989 4.39897 6.0671C4.28176 6.18431 4.12279 6.25016 3.95703 6.25016C3.79127 6.25016 3.6323 6.18431 3.51509 6.0671C3.39788 5.94989 3.33203 5.79092 3.33203 5.62516V3.9585ZM19.1654 14.5835C19.1654 13.3679 18.6825 12.2021 17.8229 11.3426C16.9634 10.483 15.7976 10.0002 14.582 10.0002C13.3665 10.0002 12.2007 10.483 11.3411 11.3426C10.4816 12.2021 9.9987 13.3679 9.9987 14.5835C9.9987 15.7991 10.4816 16.9649 11.3411 17.8244C12.2007 18.6839 13.3665 19.1668 14.582 19.1668C15.7976 19.1668 16.9634 18.6839 17.8229 17.8244C18.6825 16.9649 19.1654 15.7991 19.1654 14.5835ZM14.9987 15.0002L14.9995 17.086C14.9995 17.1965 14.9556 17.3025 14.8775 17.3806C14.7994 17.4588 14.6934 17.5027 14.5829 17.5027C14.4724 17.5027 14.3664 17.4588 14.2882 17.3806C14.2101 17.3025 14.1662 17.1965 14.1662 17.086V15.0002H12.0787C11.9682 15.0002 11.8622 14.9563 11.7841 14.8781C11.7059 14.8 11.662 14.694 11.662 14.5835C11.662 14.473 11.7059 14.367 11.7841 14.2889C11.8622 14.2107 11.9682 14.1668 12.0787 14.1668H14.1654V12.0835C14.1654 11.973 14.2093 11.867 14.2874 11.7889C14.3655 11.7107 14.4715 11.6668 14.582 11.6668C14.6925 11.6668 14.7985 11.7107 14.8767 11.7889C14.9548 11.867 14.9987 11.973 14.9987 12.0835V14.1668H17.0795C17.19 14.1668 17.296 14.2107 17.3742 14.2889C17.4523 14.367 17.4962 14.473 17.4962 14.5835C17.4962 14.694 17.4523 14.8 17.3742 14.8781C17.296 14.9563 17.19 15.0002 17.0795 15.0002H14.9987Z" fill="#485566"/>
</svg>