<svg xmlns="http://www.w3.org/2000/svg" width="20" height="20" viewBox="0 0 20 20" fill="none">
  <path d="M17.7315 6.54911C18.0771 6.54745 18.0883 6.01811 17.7315 6.0134C17.7315 6.01339 16.3922 6.01339 16.3922 6.01339V5.41071C16.3922 4.9676 16.0318 4.60714 15.5887 4.60714H14.986V3.26786C14.986 3.1198 14.8662 3 14.7181 3C14.5701 3 14.4503 3.1198 14.4503 3.26786V4.60714H13.5797V4.07143C13.5736 3.72346 13.0512 3.71554 13.044 4.07144C13.044 4.07143 13.044 4.60714 13.044 4.60714H12.1735V3.26786C12.1684 2.92097 11.6446 2.9113 11.6378 3.26787C11.6378 3.26786 11.6378 4.60714 11.6378 4.60714H10.7672V4.07143C10.7628 3.7241 10.2377 3.71545 10.2315 4.07144C10.2315 4.07143 10.2315 4.60714 10.2315 4.60714H9.361V3.26786C9.361 3.1198 9.24119 3 9.09314 3C8.94509 3 8.82528 3.1198 8.82528 3.26786V4.60714H7.95475V4.07143C7.95475 3.92338 7.83494 3.80357 7.68689 3.80357C7.53884 3.80357 7.41903 3.92338 7.41903 4.07143V4.60714H6.5485V3.26786C6.5485 3.1198 6.42869 3 6.28064 3C6.13259 3 6.01278 3.1198 6.01278 3.26786V4.60714H5.4101C4.96699 4.60714 4.60653 4.9676 4.60653 5.41071V6.01339H3.26725C2.91961 6.02021 2.91088 6.54137 3.26726 6.54911C3.26725 6.54911 4.60653 6.54911 4.60653 6.54911V7.41964H4.07082C3.92277 7.41964 3.80296 7.53945 3.80296 7.6875C3.80296 7.83555 3.92277 7.95536 4.07082 7.95536H4.60653V8.82589H3.26725C3.11919 8.82589 2.99939 8.9457 2.99939 9.09375C2.99939 9.2418 3.11919 9.36161 3.26725 9.36161H4.60653V10.2321H4.07082C3.72339 10.2366 3.71492 10.7617 4.07083 10.7679C4.07082 10.7679 4.60653 10.7679 4.60653 10.7679V11.6384H3.26725C2.9209 11.6419 2.91068 12.1683 3.26726 12.1741C3.26725 12.1741 4.60653 12.1741 4.60653 12.1741V13.0446H4.07082C3.72401 13.0475 3.71483 13.5751 4.07083 13.5804C4.07082 13.5804 4.87439 13.5804 4.87439 13.5804C5.02244 13.5804 5.14225 13.4605 5.14225 13.3125V5.41071C5.14225 5.26292 5.26231 5.14286 5.4101 5.14286H15.5887C15.7365 5.14286 15.8565 5.26292 15.8565 5.41071V15.5893C15.8565 15.7371 15.7365 15.8571 15.5887 15.8571H5.4101C5.26231 15.8571 5.14225 15.7371 5.14225 15.5893V14.7188C5.14225 14.5707 5.02244 14.4509 4.87439 14.4509H3.26725C2.92153 14.4527 2.9106 14.9819 3.26726 14.9866C3.26725 14.9866 4.60653 14.9866 4.60653 14.9866V15.5893C4.60653 16.0324 4.96699 16.3929 5.4101 16.3929H6.01278V17.7321C6.01278 17.8802 6.13259 18 6.28064 18C6.42869 18 6.5485 17.8802 6.5485 17.7321V16.3929H7.41903V16.9286C7.42509 17.2766 7.94763 17.2844 7.95475 16.9286C7.95475 16.9286 7.95475 16.3929 7.95475 16.3929H8.82528V17.7321C8.83036 18.0791 9.35428 18.0886 9.361 17.7321C9.361 17.7321 9.361 16.3929 9.361 16.3929H10.2315V16.9286C10.2315 17.0766 10.3513 17.1964 10.4994 17.1964C10.6474 17.1964 10.7672 17.0766 10.7672 16.9286V16.3929H11.6378V17.7321C11.6412 18.0784 12.1678 18.0887 12.1735 17.7321C12.1735 17.7321 12.1735 16.3929 12.1735 16.3929H13.044V16.9286C13.0468 17.2753 13.5745 17.2846 13.5797 16.9286C13.5797 16.9286 13.5797 16.3929 13.5797 16.3929H14.4503V17.7321C14.4503 17.8802 14.5701 18 14.7181 18C14.8662 18 14.986 17.8802 14.986 17.7321V16.3929H15.5887C16.0318 16.3929 16.3922 16.0324 16.3922 15.5893V14.9866H17.7315C18.079 14.9799 18.088 14.4586 17.7315 14.4509C17.7315 14.4509 16.3922 14.4509 16.3922 14.4509V13.5804H16.928C17.076 13.5804 17.1958 13.4606 17.1958 13.3125C17.1958 13.1644 17.076 13.0446 16.928 13.0446H16.3922V12.1741H17.7315C18.0784 12.169 18.0881 11.6451 17.7315 11.6384C17.7315 11.6384 16.3922 11.6384 16.3922 11.6384V10.7679H16.928C17.2752 10.7634 17.284 10.2383 16.9279 10.2321C16.928 10.2321 16.3922 10.2321 16.3922 10.2321V9.36161H17.7315C18.0777 9.35824 18.0882 8.83163 17.7315 8.8259C17.7315 8.8259 16.3922 8.8259 16.3922 8.8259V7.95536H16.928C17.076 7.95536 17.1958 7.83556 17.1958 7.6875C17.1958 7.53945 17.076 7.41965 16.928 7.41965H16.3922V6.54911L17.7315 6.54911Z" fill="#485566"/>
  <path d="M7.0708 11.8033H10.249V11.5681C10.249 11.4199 10.2095 11.2825 10.1306 11.156C10.0516 11.0295 9.9415 10.9314 9.8002 10.8616C9.61761 10.7908 9.43273 10.7353 9.24558 10.6952C9.05843 10.6551 8.8632 10.6351 8.65991 10.6351C8.45662 10.6351 8.2614 10.6551 8.07424 10.6952C7.88709 10.7353 7.70221 10.793 7.51962 10.8682C7.37832 10.9308 7.2682 11.0258 7.18924 11.1532C7.11028 11.2805 7.0708 11.4188 7.0708 11.5681V11.8033ZM12.0915 11.1225H13.2683C13.3831 11.1225 13.4812 11.0818 13.5627 11.0004C13.6442 10.9189 13.6849 10.8209 13.6849 10.7062C13.6849 10.5915 13.6442 10.4933 13.5627 10.4117C13.4812 10.3301 13.3831 10.2893 13.2683 10.2893H12.0915C11.9768 10.2893 11.8786 10.33 11.7972 10.4115C11.7157 10.4929 11.6749 10.591 11.6749 10.7057C11.6749 10.8204 11.7157 10.9185 11.7972 11.0001C11.8786 11.0817 11.9768 11.1225 12.0915 11.1225ZM8.65864 10.2893C8.86707 10.2893 9.04466 10.2164 9.19141 10.0705C9.33815 9.92458 9.41152 9.74742 9.41152 9.53899C9.41152 9.33057 9.33857 9.15298 9.19266 9.00624C9.04676 8.8595 8.8696 8.78613 8.66118 8.78613C8.45275 8.78613 8.27517 8.85908 8.12842 9.00497C7.98168 9.15088 7.90831 9.32804 7.90831 9.53647C7.90831 9.7449 7.98126 9.92248 8.12716 10.0692C8.27306 10.216 8.45022 10.2893 8.65864 10.2893ZM12.0915 9.61933H13.2683C13.3831 9.61933 13.4812 9.57861 13.5627 9.49718C13.6442 9.41574 13.6849 9.31768 13.6849 9.20297C13.6849 9.08828 13.6442 8.99014 13.5627 8.90853C13.4812 8.82693 13.3831 8.78613 13.2683 8.78613H12.0915C11.9768 8.78613 11.8786 8.82685 11.7972 8.90828C11.7157 8.98972 11.6749 9.08778 11.6749 9.20247C11.6749 9.31717 11.7157 9.41532 11.7972 9.49692C11.8786 9.57853 11.9768 9.61933 12.0915 9.61933Z" fill="#485566"/>
</svg>