<svg width="34" height="15" viewBox="0 0 34 15" fill="none" xmlns="http://www.w3.org/2000/svg">
<path fill-rule="evenodd" clip-rule="evenodd" d="M15.6808 11.1186V7.01007H17.8013C18.6703 7.01007 19.4037 6.71892 20.0015 6.14469L20.145 5.99911C21.2372 4.81023 21.1654 2.95815 20.0015 1.85822C19.4196 1.27591 18.6224 0.960492 17.8013 0.976667H14.3974V11.1186H15.6808ZM15.681 5.76416V2.22175H17.8337C18.2961 2.22175 18.7346 2.39968 19.0615 2.72319C19.7552 3.40255 19.7711 4.53483 19.1014 5.23846C18.7745 5.58623 18.3121 5.78033 17.8337 5.76416H15.681ZM26.1319 4.72004C25.5819 4.21052 24.8325 3.95171 23.8839 3.95171C22.6642 3.95171 21.7475 4.40462 21.1416 5.30235L22.2736 6.02215C22.6881 5.40749 23.2541 5.10016 23.9716 5.10016C24.426 5.10016 24.8644 5.27 25.2072 5.57733C25.542 5.86849 25.7333 6.28905 25.7333 6.73387V7.03311C25.2391 6.75813 24.6173 6.61256 23.852 6.61256C22.9592 6.61256 22.2417 6.82283 21.7076 7.25148C21.1735 7.68013 20.9024 8.24627 20.9024 8.96607C20.8865 9.62117 21.1655 10.2439 21.6598 10.6645C22.162 11.1174 22.7997 11.3438 23.5491 11.3438C24.4339 11.3438 25.1355 10.9476 25.6696 10.155H25.7254V11.1174H26.953V6.83901C26.953 5.94128 26.682 5.22956 26.1319 4.72004ZM22.6485 9.83947C22.3854 9.64537 22.2259 9.32995 22.2259 8.99027C22.2259 8.61015 22.4013 8.29473 22.7442 8.04401C23.095 7.79329 23.5335 7.66389 24.0517 7.66389C24.7693 7.6558 25.3274 7.81756 25.7261 8.14106C25.7261 8.69102 25.5108 9.1682 25.0882 9.57258C24.7055 9.96079 24.1873 10.1792 23.6451 10.1792C23.2863 10.1872 22.9355 10.0659 22.6485 9.83947ZM29.7112 14.1677L34.0001 4.17939H32.605L30.62 9.1614H30.5961L28.5633 4.17939H27.1682L29.9823 10.6738L28.3879 14.1677H29.7112Z" fill="#3C4043"/>
<path d="M11.2499 6.11977C11.2499 5.72347 11.218 5.32717 11.1542 4.93896H5.74141V7.17925H8.84243C8.71488 7.89905 8.30035 8.54607 7.69449 8.95045V10.4062H9.54395C10.6281 9.39528 11.2499 7.89906 11.2499 6.11977Z" fill="#4285F4"/>
<path d="M5.74164 11.8135C7.28816 11.8135 8.59553 11.2959 9.54417 10.4062L7.69472 8.95044C7.17656 9.30629 6.5149 9.50849 5.74164 9.50849C4.24294 9.50849 2.97543 8.48135 2.52104 7.10645H0.615784V8.61075C1.58834 10.5761 3.57331 11.8135 5.74164 11.8135Z" fill="#34A853"/>
<path d="M2.52128 7.10635C2.28209 6.38655 2.28209 5.60204 2.52128 4.87415V3.37793H0.615719C-0.205504 5.01973 -0.205504 6.96077 0.615719 8.60257L2.52128 7.10635Z" fill="#FBBC04"/>
<path d="M5.74164 2.47184C6.56273 2.45567 7.35193 2.77109 7.94185 3.34531L9.58403 1.67925C8.53973 0.692555 7.16858 0.150681 5.74164 0.166856C3.57331 0.166856 1.58834 1.41236 0.615784 3.37766L2.52104 4.88197C2.97543 3.49898 4.24294 2.47184 5.74164 2.47184Z" fill="#EA4335"/>
</svg>
