<svg xmlns="http://www.w3.org/2000/svg" width="18" height="18" viewBox="0 0 18 18" fill="none">
  <path d="M7.9125 1.89984C8.21682 1.64335 8.60201 1.50269 9 1.50269C9.39799 1.50269 9.78318 1.64335 10.0875 1.89984L15.15 6.17109C15.531 6.49134 15.75 6.96309 15.75 7.46109V14.8126C15.75 15.1607 15.6117 15.4945 15.3656 15.7407C15.1194 15.9868 14.7856 16.1251 14.4375 16.1251H12.1875C11.8394 16.1251 11.5056 15.9868 11.2594 15.7407C11.0133 15.4945 10.875 15.1607 10.875 14.8126V11.0626C10.875 10.9134 10.8157 10.7703 10.7102 10.6648C10.6048 10.5594 10.4617 10.5001 10.3125 10.5001H7.6875C7.53832 10.5001 7.39524 10.5594 7.28975 10.6648C7.18426 10.7703 7.125 10.9134 7.125 11.0626V14.8126C7.125 15.1607 6.98672 15.4945 6.74058 15.7407C6.49444 15.9868 6.1606 16.1251 5.8125 16.1251H3.5625C3.39014 16.1251 3.21947 16.0911 3.06023 16.0252C2.90099 15.9592 2.7563 15.8625 2.63442 15.7407C2.51255 15.6188 2.41587 15.4741 2.34991 15.3149C2.28395 15.1556 2.25 14.9849 2.25 14.8126V7.46034C2.25 6.96309 2.469 6.49134 2.85 6.17034L7.9125 1.89984Z" fill="white"/>
</svg>