<svg xmlns="http://www.w3.org/2000/svg" width="14" height="14" viewBox="0 0 14 14" fill="none">
  <path d="M6.99856 1.16577C10.2209 1.16577 12.8331 3.77794 12.8331 7.00027C12.8331 10.222 10.2209 12.8342 6.99856 12.8342C3.77623 12.8342 1.16406 10.222 1.16406 7.00027C1.16406 3.77794 3.77623 1.16577 6.99856 1.16577ZM6.99623 5.97827C6.85327 5.97847 6.71537 6.03115 6.60869 6.12632C6.50202 6.22149 6.434 6.35251 6.41756 6.49452L6.41348 6.56219L6.41523 9.77169L6.41931 9.83994C6.43576 9.9822 6.50396 10.1134 6.61093 10.2087C6.7179 10.3039 6.85616 10.3564 6.99937 10.3563C7.14259 10.3561 7.28074 10.3033 7.38752 10.2079C7.4943 10.1125 7.56224 9.98107 7.5784 9.83877L7.5819 9.77052L7.58015 6.5616L7.57606 6.49336C7.5592 6.35146 7.49085 6.2207 7.38397 6.12586C7.27709 6.03102 7.13912 5.97871 6.99623 5.97886V5.97827ZM6.99856 3.79135C6.80494 3.79135 6.61926 3.86827 6.48235 4.00518C6.34544 4.14209 6.26852 4.32778 6.26852 4.5214C6.26852 4.71502 6.34544 4.9007 6.48235 5.03761C6.61926 5.17452 6.80494 5.25144 6.99856 5.25144C7.19218 5.25144 7.37787 5.17452 7.51478 5.03761C7.65169 4.9007 7.7286 4.71502 7.7286 4.5214C7.7286 4.32778 7.65169 4.14209 7.51478 4.00518C7.37787 3.86827 7.19218 3.79135 6.99856 3.79135Z" fill="#B2BBC7"/>
</svg>