<svg width="20" height="20" viewBox="0 0 20 20" fill="none" xmlns="http://www.w3.org/2000/svg">
<g id="Frame">
<path id="Vector" d="M9.99906 1.66602C14.6024 1.66602 18.3341 5.39768 18.3341 10.001C18.3341 14.6035 14.6024 18.3352 9.99906 18.3352C5.39573 18.3352 1.66406 14.6035 1.66406 10.001C1.66406 5.39768 5.39573 1.66602 9.99906 1.66602ZM9.99906 2.91602C9.06224 2.90586 8.1327 3.0816 7.26425 3.43308C6.39579 3.78455 5.60567 4.30478 4.93961 4.96365C4.27356 5.62253 3.74479 6.40696 3.38391 7.27155C3.02304 8.13614 2.83723 9.06372 2.83723 10.0006C2.83723 10.9375 3.02304 11.8651 3.38391 12.7296C3.74479 13.5942 4.27356 14.3787 4.93961 15.0375C5.60567 15.6964 6.39579 16.2166 7.26425 16.5681C8.1327 16.9196 9.06224 17.0953 9.99906 17.0852C11.8591 17.0567 13.6333 16.2977 14.9385 14.9723C16.2438 13.6469 16.9754 11.8613 16.9754 10.001C16.9754 8.14078 16.2438 6.35517 14.9385 5.02973C13.6333 3.70429 11.8591 2.94455 9.99906 2.91602ZM9.99573 8.74935C10.1469 8.74915 10.293 8.80376 10.407 8.90305C10.521 9.00234 10.5952 9.13958 10.6157 9.28935L10.6216 9.37435L10.6241 13.9593C10.624 14.1177 10.5639 14.2701 10.4558 14.3858C10.3476 14.5015 10.1996 14.5719 10.0417 14.5827C9.88368 14.5935 9.72749 14.5439 9.60465 14.444C9.48181 14.3441 9.40148 14.2012 9.3799 14.0443L9.37406 13.9602L9.37156 9.37518C9.37156 9.20942 9.43741 9.05045 9.55462 8.93324C9.67183 8.81603 9.8308 8.75018 9.99656 8.75018L9.99573 8.74935ZM9.99906 5.83602C10.1105 5.83249 10.2216 5.8514 10.3256 5.89163C10.4297 5.93185 10.5246 5.99258 10.6047 6.07019C10.6848 6.14781 10.7485 6.24073 10.792 6.34344C10.8355 6.44615 10.8579 6.55656 10.8579 6.6681C10.8579 6.77964 10.8355 6.89005 10.792 6.99276C10.7485 7.09547 10.6848 7.18839 10.6047 7.266C10.5246 7.34362 10.4297 7.40434 10.3256 7.44457C10.2216 7.4848 10.1105 7.50371 9.99906 7.50018C9.78294 7.49334 9.57796 7.40268 9.42749 7.24738C9.27703 7.09208 9.1929 6.88433 9.1929 6.6681C9.1929 6.45187 9.27703 6.24412 9.42749 6.08882C9.57796 5.93352 9.78294 5.84286 9.99906 5.83602Z" fill="#A3ADBD"/>
</g>
</svg>
