<svg xmlns="http://www.w3.org/2000/svg" width="16" height="16" viewBox="0 0 16 16" fill="none">
  <path d="M11.6 1.59998C11.3791 1.59998 11.2 1.77906 11.2 1.99998C11.2 2.22089 11.3791 2.39998 11.6 2.39998H13.0343L9.20002 6.23429L7.08287 4.11713C6.92666 3.96092 6.67339 3.96092 6.51718 4.11713L2.51718 8.11713C2.36097 8.27334 2.36097 8.52661 2.51718 8.68282C2.67339 8.83903 2.92666 8.83903 3.08287 8.68282L6.80002 4.96566L8.91718 7.08282C9.07339 7.23903 9.32666 7.23903 9.48287 7.08282L13.6 2.96566V4.39998C13.6 4.62089 13.7791 4.79998 14 4.79998C14.2209 4.79998 14.4 4.62089 14.4 4.39998V1.99998C14.4 1.77906 14.2209 1.59998 14 1.59998H11.6ZM12.4 7.19998C12.1791 7.19998 12 7.37906 12 7.59998V14C12 14.2209 12.1791 14.4 12.4 14.4C12.6209 14.4 12.8 14.2209 12.8 14V7.59998C12.8 7.37906 12.6209 7.19998 12.4 7.19998ZM6.00002 8.79998C5.77911 8.79998 5.60002 8.97906 5.60002 9.19998V14C5.60002 14.2209 5.77911 14.4 6.00002 14.4C6.22094 14.4 6.40002 14.2209 6.40002 14V9.19998C6.40002 8.97906 6.22094 8.79998 6.00002 8.79998ZM8.80002 10.8C8.80002 10.5791 8.97911 10.4 9.20002 10.4C9.42094 10.4 9.60002 10.5791 9.60002 10.8V14C9.60002 14.2209 9.42094 14.4 9.20002 14.4C8.97911 14.4 8.80002 14.2209 8.80002 14V10.8ZM2.40002 11.6C2.40002 11.3791 2.57911 11.2 2.80002 11.2C3.02094 11.2 3.20002 11.3791 3.20002 11.6V14C3.20002 14.2209 3.02094 14.4 2.80002 14.4C2.57911 14.4 2.40002 14.2209 2.40002 14V11.6Z" fill="#485566"/>
</svg>