<svg width="64" height="64" viewBox="0 0 64 64" fill="none" xmlns="http://www.w3.org/2000/svg">
<path fill-rule="evenodd" clip-rule="evenodd" d="M27.0001 9.67578C27.0001 9.41078 27.1051 9.15678 27.2931 8.96878C27.4801 8.78178 27.7351 8.67578 28.0001 8.67578C32.4881 8.67578 50.5541 8.67578 50.5541 8.67578L62.0001 21.3688V37.3218C62.0001 37.3218 62.0361 50.4988 58.2931 56.7898C58.1111 57.0788 57.7931 57.2538 57.4511 57.2538C53.6241 57.2568 30.9031 57.2568 24.5521 57.2568C24.2011 57.2568 23.8761 57.0718 23.6951 56.7718C23.5141 56.4708 23.5051 56.0968 23.6701 55.7868C26.7731 49.0498 27.0001 37.3218 27.0001 37.3218V9.67578Z" fill="url(#paint0_linear_532_31752)"/>
<path fill-rule="evenodd" clip-rule="evenodd" d="M62.0001 37.3242C62.0001 37.3242 62.0361 50.5012 58.2931 56.7922C58.1111 57.0812 57.7931 57.2562 57.4511 57.2562C53.6241 57.2592 30.9031 57.2592 24.5521 57.2592C24.2011 57.2592 23.8761 57.0742 23.6951 56.7742C23.5141 56.4732 23.5051 56.0992 23.6701 55.7892L23.7091 55.7032C36.0231 56.2822 53.9051 54.1252 56.2601 53.2032C58.7761 52.2182 61.9501 42.7662 61.9991 37.4482L62.0001 37.3242Z" fill="url(#paint1_linear_532_31752)"/>
<path fill-rule="evenodd" clip-rule="evenodd" d="M62 21.3688C58.964 20.1698 55.75 20.1358 52.451 20.6448C52.145 20.6938 51.834 20.5958 51.609 20.3828C51.384 20.1688 51.272 19.8628 51.305 19.5548C51.667 15.8608 51.302 12.2468 50.554 8.67578C55.392 12.2678 59.212 16.4948 62 21.3688Z" fill="url(#paint2_linear_532_31752)"/>
<path fill-rule="evenodd" clip-rule="evenodd" d="M27.0001 12.0664C29.6741 12.3994 32.2621 13.5914 34.3141 15.6434C38.4171 19.7464 39.0831 25.9924 36.3131 30.7914L37.9601 36.0144C38.0411 36.2714 37.9731 36.5514 37.7831 36.7414C37.7361 36.7874 37.6881 36.8354 37.6431 36.8814C37.4641 37.0594 37.2011 37.1234 36.9611 37.0474L31.7121 35.3924C30.2381 36.2434 28.6271 36.7704 26.9841 36.9724C26.9961 36.6414 27.0001 36.4594 27.0001 36.4594V12.0664Z" fill="url(#paint3_linear_532_31752)"/>
<path fill-rule="evenodd" clip-rule="evenodd" d="M30.4472 34.1674C25.8592 36.8164 19.8872 36.1794 15.9642 32.2564C11.2812 27.5734 11.2812 19.9694 15.9642 15.2864C20.6472 10.6024 28.2512 10.6024 32.9352 15.2864C36.8572 19.2084 37.4942 25.1804 34.8462 29.7684L36.4202 34.7624C36.4982 35.0074 36.4322 35.2754 36.2512 35.4564C36.2062 35.5014 36.1612 35.5464 36.1172 35.5904C35.9462 35.7614 35.6952 35.8224 35.4652 35.7504L30.4472 34.1674Z" fill="url(#paint4_linear_532_31752)"/>
<path fill-rule="evenodd" clip-rule="evenodd" d="M22.3332 20.182C22.3112 19.228 22.6682 18.533 23.2212 18.125C24.0892 17.485 25.3852 17.512 26.0892 18.305C26.3922 18.646 26.5672 19.128 26.5722 19.738C26.5842 21.2 25.8972 22.055 25.2262 22.941C24.3222 24.134 23.4192 25.36 23.3072 27.407C23.2772 27.958 23.7002 28.43 24.2512 28.46C24.8022 28.49 25.2742 28.067 25.3042 27.516C25.3892 25.961 26.1332 25.055 26.8202 24.149C27.7402 22.936 28.5882 21.726 28.5722 19.722C28.5622 18.544 28.1692 17.635 27.5852 16.977C26.2202 15.44 23.7152 15.275 22.0342 16.515C21.0262 17.259 20.2932 18.491 20.3342 20.229C20.3472 20.781 20.8052 21.218 21.3572 21.205C21.9092 21.192 22.3462 20.734 22.3332 20.182Z" fill="url(#paint5_linear_532_31752)"/>
<path d="M24.2119 32.1748C24.8912 32.1748 25.4419 31.6242 25.4419 30.9448C25.4419 30.2655 24.8912 29.7148 24.2119 29.7148C23.5326 29.7148 22.9819 30.2655 22.9819 30.9448C22.9819 31.6242 23.5326 32.1748 24.2119 32.1748Z" fill="url(#paint6_linear_532_31752)"/>
<path fill-rule="evenodd" clip-rule="evenodd" d="M12.2172 7.36386L16.2172 12.3959C16.5612 12.8279 17.1902 12.8999 17.6222 12.5569C18.0542 12.2139 18.1262 11.5839 17.7832 11.1519L13.7832 6.11986C13.4392 5.68786 12.8102 5.61586 12.3782 5.95886C11.9462 6.30286 11.8742 6.93186 12.2172 7.36386Z" fill="url(#paint7_linear_532_31752)"/>
<path fill-rule="evenodd" clip-rule="evenodd" d="M1.50204 9.86703L11.954 15.867C12.432 16.142 13.044 15.977 13.319 15.498C13.594 15.019 13.428 14.408 12.949 14.133L2.49804 8.13304C2.01904 7.85804 1.40804 8.02303 1.13304 8.50203C0.858035 8.98103 1.02304 9.59203 1.50204 9.86703Z" fill="url(#paint8_linear_532_31752)"/>
<path fill-rule="evenodd" clip-rule="evenodd" d="M3 21H10C10.552 21 11 20.552 11 20C11 19.448 10.552 19 10 19H3C2.448 19 2 19.448 2 20C2 20.552 2.448 21 3 21Z" fill="url(#paint9_linear_532_31752)"/>
<defs>
<linearGradient id="paint0_linear_532_31752" x1="28.5719" y1="7.99876" x2="56.182" y2="53.957" gradientUnits="userSpaceOnUse">
<stop stop-color="#E9F3FC"/>
<stop offset="1" stop-color="#CADCF0"/>
</linearGradient>
<linearGradient id="paint1_linear_532_31752" x1="23.5526" y1="47.2915" x2="62.0001" y2="47.2915" gradientUnits="userSpaceOnUse">
<stop stop-color="#CADCF0"/>
<stop offset="1" stop-color="#A4BBDB"/>
</linearGradient>
<linearGradient id="paint2_linear_532_31752" x1="50.554" y1="15.0223" x2="62" y2="15.0223" gradientUnits="userSpaceOnUse">
<stop stop-color="#559AFF"/>
<stop offset="1" stop-color="#2E69EF"/>
</linearGradient>
<linearGradient id="paint3_linear_532_31752" x1="27.4797" y1="12.1853" x2="37.4039" y2="37.547" gradientUnits="userSpaceOnUse">
<stop stop-color="#CADCF0"/>
<stop offset="1" stop-color="#A4BBDB"/>
</linearGradient>
<linearGradient id="paint4_linear_532_31752" x1="16.5543" y1="14.6744" x2="35.8513" y2="36.0389" gradientUnits="userSpaceOnUse">
<stop stop-color="#E9F3FC"/>
<stop offset="1" stop-color="#CADCF0"/>
</linearGradient>
<linearGradient id="paint5_linear_532_31752" x1="20.8617" y1="16.2257" x2="27.0001" y2="32.1736" gradientUnits="userSpaceOnUse">
<stop stop-color="#559AFF"/>
<stop offset="1" stop-color="#2E69EF"/>
</linearGradient>
<linearGradient id="paint6_linear_532_31752" x1="20.8614" y1="16.2265" x2="26.9999" y2="32.1744" gradientUnits="userSpaceOnUse">
<stop stop-color="#559AFF"/>
<stop offset="1" stop-color="#2E69EF"/>
</linearGradient>
<linearGradient id="paint7_linear_532_31752" x1="4.92296" y1="10.1484" x2="15.2607" y2="19.1077" gradientUnits="userSpaceOnUse">
<stop stop-color="#559AFF"/>
<stop offset="1" stop-color="#2E69EF"/>
</linearGradient>
<linearGradient id="paint8_linear_532_31752" x1="4.92284" y1="10.1485" x2="15.2605" y2="19.1079" gradientUnits="userSpaceOnUse">
<stop stop-color="#559AFF"/>
<stop offset="1" stop-color="#2E69EF"/>
</linearGradient>
<linearGradient id="paint9_linear_532_31752" x1="4.9228" y1="10.1485" x2="15.2605" y2="19.1078" gradientUnits="userSpaceOnUse">
<stop stop-color="#559AFF"/>
<stop offset="1" stop-color="#2E69EF"/>
</linearGradient>
</defs>
</svg>
