<svg xmlns="http://www.w3.org/2000/svg" width="20" height="20" viewBox="0 0 20 20" fill="none">
  <path d="M4.86756 3.8069C6.22834 2.44612 8.07395 1.68164 9.99839 1.68164C11.9228 1.68164 13.7684 2.44612 15.1292 3.8069C16.49 5.16768 17.2545 7.0133 17.2545 8.93774C17.2545 10.8622 16.49 12.7078 15.1292 14.0686L14.1401 15.0469C13.4109 15.7619 12.4651 16.6819 11.3017 17.8069C10.9521 18.145 10.4847 18.334 9.99839 18.334C9.51203 18.334 9.0447 18.145 8.69506 17.8069L5.78589 14.9769C5.42006 14.6177 5.11422 14.3152 4.86756 14.0686C4.19373 13.3948 3.65923 12.5949 3.29455 11.7145C2.92988 10.8342 2.74219 9.89063 2.74219 8.93774C2.74219 7.98484 2.92988 7.04128 3.29455 6.16093C3.65923 5.28058 4.19373 4.48067 4.86756 3.8069ZM14.2451 4.69023C13.1186 3.56395 11.5908 2.9313 9.9978 2.93145C8.40484 2.93161 6.87718 3.56456 5.75089 4.69107C4.6246 5.81758 3.99195 7.34536 3.99211 8.93832C3.99226 10.5313 4.62522 12.0589 5.75172 13.1852L6.99006 14.4086C7.84545 15.2444 8.70323 16.0777 9.56339 16.9086C9.67995 17.0213 9.83579 17.0844 9.99797 17.0844C10.1602 17.0844 10.316 17.0213 10.4326 16.9086L13.2609 14.1586C13.6526 13.7744 13.9801 13.4502 14.2442 13.1852C15.3705 12.0589 16.0032 10.5314 16.0032 8.93857C16.0032 7.34577 15.3705 5.81821 14.2442 4.6919L14.2451 4.69023ZM9.99839 6.66607C10.3269 6.66607 10.6522 6.73078 10.9557 6.8565C11.2593 6.98222 11.535 7.16649 11.7673 7.39879C11.9996 7.63109 12.1839 7.90687 12.3096 8.21039C12.4353 8.51391 12.5001 8.83921 12.5001 9.16774C12.5001 9.49626 12.4353 9.82157 12.3096 10.1251C12.1839 10.4286 11.9996 10.7044 11.7673 10.9367C11.535 11.169 11.2593 11.3533 10.9557 11.479C10.6522 11.6047 10.3269 11.6694 9.99839 11.6694C9.34292 11.6574 8.71834 11.3887 8.25903 10.9209C7.79972 10.4531 7.54238 9.82373 7.54238 9.16815C7.54238 8.51258 7.79972 7.8832 8.25903 7.41542C8.71834 6.94765 9.34292 6.67887 9.99839 6.6669V6.66607ZM9.99839 7.91607C9.83402 7.91607 9.67126 7.94844 9.5194 8.01135C9.36754 8.07425 9.22956 8.16645 9.11333 8.28267C8.9971 8.3989 8.9049 8.53688 8.842 8.68874C8.7791 8.8406 8.74672 9.00336 8.74672 9.16774C8.74672 9.33211 8.7791 9.49487 8.842 9.64673C8.9049 9.79859 8.9971 9.93657 9.11333 10.0528C9.22956 10.169 9.36754 10.2612 9.5194 10.3241C9.67126 10.387 9.83402 10.4194 9.99839 10.4194C10.3302 10.4194 10.6485 10.2876 10.8832 10.0529C11.1178 9.81826 11.2496 9.5 11.2496 9.16815C11.2496 8.8363 11.1178 8.51804 10.8832 8.28338C10.6485 8.04873 10.3302 7.9169 9.99839 7.9169V7.91607Z" fill="#485566"/>
</svg>