<svg xmlns="http://www.w3.org/2000/svg" width="15" height="15" viewBox="0 0 15 15" fill="none">
  <g clip-path="url(#clip0_603_18764)">
    <path d="M10.125 6.20801V4.02051C10.125 3.32431 9.84844 2.65664 9.35615 2.16435C8.86387 1.67207 8.19619 1.39551 7.5 1.39551C6.80381 1.39551 6.13613 1.67207 5.64384 2.16435C5.15156 2.65664 4.875 3.32431 4.875 4.02051V6.20801M4.4375 12.7705H10.5625C10.9106 12.7705 11.2444 12.6322 11.4906 12.3861C11.7367 12.1399 11.875 11.8061 11.875 11.458V7.52051C11.875 7.17241 11.7367 6.83857 11.4906 6.59243C11.2444 6.34629 10.9106 6.20801 10.5625 6.20801H4.4375C4.0894 6.20801 3.75556 6.34629 3.50942 6.59243C3.26328 6.83857 3.125 7.17241 3.125 7.52051V11.458C3.125 11.8061 3.26328 12.1399 3.50942 12.3861C3.75556 12.6322 4.0894 12.7705 4.4375 12.7705Z" stroke="#0D0F12" stroke-width="0.875" stroke-linecap="round" stroke-linejoin="round"/>
  </g>
  <defs>
    <clipPath id="clip0_603_18764">
      <rect width="14" height="14" fill="white" transform="translate(0.5 0.0830078)"/>
    </clipPath>
  </defs>
</svg>