<svg width="188" height="40" viewBox="0 0 188 40" fill="none" xmlns="http://www.w3.org/2000/svg">
<rect x="0.29375" y="0.29375" width="38.5792" height="38.5792" rx="19.2896" fill="white" fill-opacity="0.1"/>
<rect x="0.29375" y="0.29375" width="38.5792" height="38.5792" rx="19.2896" stroke="#0D2A57" stroke-width="0.5875"/>
<path d="M11.1729 21.5273H15.5826L13.4374 15.2822H13.3897L11.1729 21.5273ZM11.5305 11.087H15.3681L21.7324 28.106H17.8471L16.5599 24.3161H10.1957L8.86084 28.106H5.09473L11.5305 11.087Z" fill="#0D2A57"/>
<path d="M24.2457 19.0705H27.1537C27.5827 19.0705 27.9959 19.0387 28.3932 18.9751C28.7904 18.9116 29.14 18.7924 29.442 18.6176C29.7439 18.4269 29.9822 18.1647 30.157 17.831C30.3477 17.4973 30.4431 17.0603 30.4431 16.52C30.4431 15.9797 30.3477 15.5427 30.157 15.209C29.9822 14.8753 29.7439 14.6211 29.442 14.4463C29.14 14.2556 28.7904 14.1284 28.3932 14.0649C27.9959 14.0013 27.5827 13.9695 27.1537 13.9695H24.2457V19.0705ZM20.5034 11.0615H28.1786C29.2433 11.0615 30.1491 11.2204 30.896 11.5382C31.6428 11.8402 32.2467 12.2454 32.7075 12.7539C33.1842 13.2624 33.5259 13.8424 33.7325 14.4939C33.9549 15.1455 34.0662 15.8208 34.0662 16.52C34.0662 17.2033 33.9549 17.8787 33.7325 18.5461C33.5259 19.1976 33.1842 19.7776 32.7075 20.2861C32.2467 20.7946 31.6428 21.2078 30.896 21.5256C30.1491 21.8275 29.2433 21.9785 28.1786 21.9785H24.2457V28.0805H20.5034V11.0615Z" fill="#0D2A57"/>
<path d="M56.7682 22.41H61.1157L59.0007 16.253H58.9537L56.7682 22.41ZM57.1207 12.117H60.9042L67.1787 28.896H63.3482L62.0792 25.1595H55.8047L54.4887 28.896H50.7757L57.1207 12.117ZM76.5452 21.0235C76.3258 19.6292 75.5033 18.932 74.0777 18.932C73.545 18.932 73.0985 19.0573 72.7382 19.308C72.3778 19.543 72.0802 19.8563 71.8452 20.248C71.6258 20.624 71.4692 21.047 71.3752 21.517C71.2812 21.9713 71.2342 22.4257 71.2342 22.88C71.2342 23.3187 71.2812 23.7652 71.3752 24.2195C71.4692 24.6738 71.618 25.089 71.8217 25.465C72.041 25.8253 72.3308 26.123 72.6912 26.358C73.0515 26.593 73.4902 26.7105 74.0072 26.7105C74.8062 26.7105 75.4172 26.4912 75.8402 26.0525C76.2788 25.5982 76.553 24.995 76.6627 24.243H79.8822C79.6628 25.8567 79.0362 27.0865 78.0022 27.9325C76.9682 28.7785 75.6443 29.2015 74.0307 29.2015C73.122 29.2015 72.2838 29.0527 71.5162 28.755C70.7642 28.4417 70.1218 28.0108 69.5892 27.4625C69.0565 26.9142 68.6413 26.264 68.3437 25.512C68.046 24.7443 67.8972 23.9062 67.8972 22.9975C67.8972 22.0575 68.0303 21.188 68.2967 20.389C68.5787 19.5743 68.986 18.8772 69.5187 18.2975C70.0513 17.7022 70.7015 17.24 71.4692 16.911C72.2368 16.582 73.1142 16.4175 74.1012 16.4175C74.8218 16.4175 75.5112 16.5115 76.1692 16.6995C76.8428 16.8875 77.4382 17.1773 77.9552 17.569C78.4878 17.945 78.9187 18.4228 79.2477 19.0025C79.5767 19.5665 79.7647 20.2402 79.8117 21.0235H76.5452ZM81.7673 16.7465H84.9398V19.0025H84.9868C85.1435 18.6265 85.355 18.2818 85.6213 17.9685C85.8876 17.6395 86.1931 17.3653 86.5378 17.146C86.8825 16.911 87.2506 16.7308 87.6423 16.6055C88.034 16.4802 88.4413 16.4175 88.8643 16.4175C89.0836 16.4175 89.3265 16.4567 89.5928 16.535V19.637C89.4361 19.6057 89.2481 19.5822 89.0288 19.5665C88.8095 19.5352 88.598 19.5195 88.3943 19.5195C87.7833 19.5195 87.2663 19.6213 86.8433 19.825C86.4203 20.0287 86.0756 20.3107 85.8093 20.671C85.5586 21.0157 85.3785 21.423 85.2688 21.893C85.1591 22.363 85.1043 22.8722 85.1043 23.4205V28.896H81.7673V16.7465ZM98.666 21.517C98.5093 20.671 98.2273 20.0287 97.82 19.59C97.4283 19.1513 96.8252 18.932 96.0105 18.932C95.4778 18.932 95.0313 19.026 94.671 19.214C94.3263 19.3863 94.0443 19.6057 93.825 19.872C93.6213 20.1383 93.4725 20.4203 93.3785 20.718C93.3002 21.0157 93.2532 21.282 93.2375 21.517H98.666ZM93.2375 23.632C93.2845 24.713 93.5587 25.4963 94.06 25.982C94.5613 26.4677 95.282 26.7105 96.222 26.7105C96.8957 26.7105 97.4753 26.546 97.961 26.217C98.4467 25.8723 98.7443 25.512 98.854 25.136H101.791C101.321 26.593 100.601 27.6348 99.6295 28.2615C98.6582 28.8882 97.4832 29.2015 96.1045 29.2015C95.1488 29.2015 94.2872 29.0527 93.5195 28.755C92.7518 28.4417 92.1017 28.003 91.569 27.439C91.0363 26.875 90.6212 26.2013 90.3235 25.418C90.0415 24.6347 89.9005 23.773 89.9005 22.833C89.9005 21.9243 90.0493 21.0783 90.347 20.295C90.6447 19.5117 91.0677 18.838 91.616 18.274C92.1643 17.6943 92.8145 17.24 93.5665 16.911C94.3342 16.582 95.1802 16.4175 96.1045 16.4175C97.1385 16.4175 98.0393 16.6212 98.807 17.0285C99.5747 17.4202 100.201 17.9528 100.687 18.6265C101.188 19.3002 101.549 20.0678 101.768 20.9295C101.987 21.7912 102.066 22.692 102.003 23.632H93.2375ZM112.607 22.786C112.607 22.2847 112.56 21.8068 112.466 21.3525C112.372 20.8825 112.207 20.4752 111.972 20.1305C111.753 19.7702 111.463 19.4803 111.103 19.261C110.742 19.0417 110.288 18.932 109.74 18.932C109.191 18.932 108.729 19.0417 108.353 19.261C107.977 19.4803 107.672 19.7702 107.437 20.1305C107.217 20.4908 107.053 20.906 106.943 21.376C106.849 21.8303 106.802 22.3082 106.802 22.8095C106.802 23.2795 106.857 23.7495 106.967 24.2195C107.076 24.6895 107.249 25.1125 107.484 25.4885C107.734 25.8488 108.04 26.1465 108.4 26.3815C108.776 26.6008 109.223 26.7105 109.74 26.7105C110.288 26.7105 110.742 26.6008 111.103 26.3815C111.479 26.1622 111.776 25.8723 111.996 25.512C112.215 25.136 112.372 24.713 112.466 24.243C112.56 23.773 112.607 23.2873 112.607 22.786ZM112.654 27.345H112.607C112.215 28.003 111.698 28.4808 111.056 28.7785C110.429 29.0605 109.716 29.2015 108.917 29.2015C108.008 29.2015 107.209 29.0292 106.52 28.6845C105.831 28.3242 105.259 27.8463 104.805 27.251C104.366 26.64 104.029 25.9428 103.794 25.1595C103.575 24.3762 103.465 23.5615 103.465 22.7155C103.465 21.9008 103.575 21.1175 103.794 20.3655C104.029 19.5978 104.366 18.9242 104.805 18.3445C105.259 17.7648 105.823 17.3027 106.497 16.958C107.17 16.5977 107.954 16.4175 108.847 16.4175C109.567 16.4175 110.249 16.5742 110.891 16.8875C111.549 17.1852 112.066 17.6317 112.442 18.227H112.489V12.117H115.826V28.896H112.654V27.345ZM121.779 14.8665H118.442V12.117H121.779V14.8665ZM118.442 16.7465H121.779V28.896H118.442V16.7465ZM128.637 16.7465H131.081V18.979H128.637V24.995C128.637 25.559 128.731 25.935 128.919 26.123C129.107 26.311 129.483 26.405 130.047 26.405C130.235 26.405 130.415 26.3972 130.587 26.3815C130.76 26.3658 130.924 26.3423 131.081 26.311V28.896C130.799 28.943 130.486 28.9743 130.141 28.99C129.796 29.0057 129.459 29.0135 129.13 29.0135C128.613 29.0135 128.12 28.9743 127.65 28.896C127.196 28.8333 126.788 28.7002 126.428 28.4965C126.083 28.2928 125.809 28.003 125.605 27.627C125.402 27.251 125.3 26.7575 125.3 26.1465V18.979H123.279V16.7465H125.3V13.104H128.637V16.7465ZM132.528 20.483C132.575 19.6997 132.77 19.0495 133.115 18.5325C133.46 18.0155 133.898 17.6003 134.431 17.287C134.964 16.9737 135.559 16.7543 136.217 16.629C136.891 16.488 137.564 16.4175 138.238 16.4175C138.849 16.4175 139.468 16.4645 140.095 16.5585C140.721 16.6368 141.293 16.8013 141.81 17.052C142.327 17.3027 142.75 17.6552 143.079 18.1095C143.408 18.5482 143.573 19.1357 143.573 19.872V26.1935C143.573 26.7418 143.604 27.2667 143.667 27.768C143.729 28.2693 143.839 28.6453 143.996 28.896H140.612C140.549 28.708 140.494 28.52 140.447 28.332C140.416 28.1283 140.392 27.9247 140.377 27.721C139.844 28.2693 139.217 28.6532 138.497 28.8725C137.776 29.0918 137.04 29.2015 136.288 29.2015C135.708 29.2015 135.167 29.131 134.666 28.99C134.165 28.849 133.726 28.6297 133.35 28.332C132.974 28.0343 132.676 27.6583 132.457 27.204C132.253 26.7497 132.152 26.2092 132.152 25.5825C132.152 24.8932 132.269 24.3292 132.504 23.8905C132.755 23.4362 133.068 23.0758 133.444 22.8095C133.836 22.5432 134.274 22.3473 134.76 22.222C135.261 22.081 135.763 21.9713 136.264 21.893C136.765 21.8147 137.259 21.752 137.745 21.705C138.23 21.658 138.661 21.5875 139.037 21.4935C139.413 21.3995 139.711 21.2663 139.93 21.094C140.149 20.906 140.251 20.6397 140.236 20.295C140.236 19.9347 140.173 19.6527 140.048 19.449C139.938 19.2297 139.781 19.0652 139.578 18.9555C139.39 18.8302 139.162 18.7518 138.896 18.7205C138.645 18.6735 138.371 18.65 138.074 18.65C137.416 18.65 136.899 18.791 136.523 19.073C136.147 19.355 135.927 19.825 135.865 20.483H132.528ZM140.236 22.9505C140.095 23.0758 139.914 23.1777 139.695 23.256C139.491 23.3187 139.264 23.3735 139.014 23.4205C138.779 23.4675 138.528 23.5067 138.262 23.538C137.995 23.5693 137.729 23.6085 137.463 23.6555C137.212 23.7025 136.961 23.7652 136.711 23.8435C136.476 23.9218 136.264 24.0315 136.076 24.1725C135.904 24.2978 135.763 24.4623 135.653 24.666C135.543 24.8697 135.489 25.1282 135.489 25.4415C135.489 25.7392 135.543 25.9898 135.653 26.1935C135.763 26.3972 135.912 26.5617 136.1 26.687C136.288 26.7967 136.507 26.875 136.758 26.922C137.008 26.969 137.267 26.9925 137.533 26.9925C138.191 26.9925 138.7 26.8828 139.061 26.6635C139.421 26.4442 139.687 26.1857 139.86 25.888C140.032 25.5747 140.134 25.2613 140.165 24.948C140.212 24.6347 140.236 24.384 140.236 24.196V22.9505ZM150.393 16.7465H152.837V18.979H150.393V24.995C150.393 25.559 150.487 25.935 150.675 26.123C150.863 26.311 151.239 26.405 151.803 26.405C151.991 26.405 152.171 26.3972 152.343 26.3815C152.516 26.3658 152.68 26.3423 152.837 26.311V28.896C152.555 28.943 152.241 28.9743 151.897 28.99C151.552 29.0057 151.215 29.0135 150.886 29.0135C150.369 29.0135 149.876 28.9743 149.406 28.896C148.951 28.8333 148.544 28.7002 148.184 28.4965C147.839 28.2928 147.565 28.003 147.361 27.627C147.158 27.251 147.056 26.7575 147.056 26.1465V18.979H145.035V16.7465H147.056V13.104H150.393V16.7465ZM157.856 14.8665H154.519V12.117H157.856V14.8665ZM154.519 16.7465H157.856V28.896H154.519V16.7465ZM163.444 22.833C163.444 23.3187 163.491 23.7965 163.585 24.2665C163.679 24.7208 163.836 25.136 164.055 25.512C164.29 25.8723 164.596 26.1622 164.972 26.3815C165.348 26.6008 165.818 26.7105 166.382 26.7105C166.946 26.7105 167.416 26.6008 167.792 26.3815C168.183 26.1622 168.489 25.8723 168.708 25.512C168.943 25.136 169.108 24.7208 169.202 24.2665C169.296 23.7965 169.343 23.3187 169.343 22.833C169.343 22.3473 169.296 21.8695 169.202 21.3995C169.108 20.9295 168.943 20.5143 168.708 20.154C168.489 19.7937 168.183 19.5038 167.792 19.2845C167.416 19.0495 166.946 18.932 166.382 18.932C165.818 18.932 165.348 19.0495 164.972 19.2845C164.596 19.5038 164.29 19.7937 164.055 20.154C163.836 20.5143 163.679 20.9295 163.585 21.3995C163.491 21.8695 163.444 22.3473 163.444 22.833ZM160.107 22.833C160.107 21.8617 160.256 20.9843 160.554 20.201C160.851 19.402 161.274 18.7283 161.823 18.18C162.371 17.616 163.029 17.1852 163.797 16.8875C164.564 16.5742 165.426 16.4175 166.382 16.4175C167.337 16.4175 168.199 16.5742 168.967 16.8875C169.75 17.1852 170.416 17.616 170.964 18.18C171.512 18.7283 171.935 19.402 172.233 20.201C172.531 20.9843 172.68 21.8617 172.68 22.833C172.68 23.8043 172.531 24.6817 172.233 25.465C171.935 26.2483 171.512 26.922 170.964 27.486C170.416 28.0343 169.75 28.4573 168.967 28.755C168.199 29.0527 167.337 29.2015 166.382 29.2015C165.426 29.2015 164.564 29.0527 163.797 28.755C163.029 28.4573 162.371 28.0343 161.823 27.486C161.274 26.922 160.851 26.2483 160.554 25.465C160.256 24.6817 160.107 23.8043 160.107 22.833ZM174.849 16.7465H178.022V18.4385H178.092C178.515 17.7335 179.064 17.2243 179.737 16.911C180.411 16.582 181.1 16.4175 181.805 16.4175C182.698 16.4175 183.427 16.5428 183.991 16.7935C184.57 17.0285 185.025 17.3653 185.354 17.804C185.683 18.227 185.91 18.7518 186.035 19.3785C186.176 19.9895 186.247 20.671 186.247 21.423V28.896H182.91V22.034C182.91 21.0313 182.753 20.2872 182.44 19.8015C182.126 19.3002 181.57 19.0495 180.771 19.0495C179.863 19.0495 179.205 19.3237 178.797 19.872C178.39 20.4047 178.186 21.2898 178.186 22.5275V28.896H174.849V16.7465Z" fill="#0D2A57"/>
</svg>
