<svg width="96" height="21" viewBox="0 0 96 21" fill="none" xmlns="http://www.w3.org/2000/svg">
<rect x="0.15" y="1.06406" width="19.7" height="19.7" rx="9.85" fill="white" fill-opacity="0.1"/>
<rect x="0.15" y="1.06406" width="19.7" height="19.7" rx="9.85" stroke="white" stroke-width="0.3"/>
<path d="M5.70533 11.9067H7.95709L6.86164 8.71773H6.8373L5.70533 11.9067ZM5.88791 6.57552H7.84754L11.0974 15.2661H9.1134L8.45613 13.3308H5.2063L4.52468 15.2661H2.60156L5.88791 6.57552Z" fill="white"/>
<path d="M12.3808 10.6522H13.8657C14.0848 10.6522 14.2958 10.6359 14.4986 10.6035C14.7015 10.571 14.88 10.5102 15.0342 10.4209C15.1884 10.3235 15.3101 10.1897 15.3993 10.0192C15.4967 9.84885 15.5454 9.6257 15.5454 9.34981C15.5454 9.07392 15.4967 8.85077 15.3993 8.68037C15.3101 8.50996 15.1884 8.38013 15.0342 8.29087C14.88 8.1935 14.7015 8.12859 14.4986 8.09613C14.2958 8.06367 14.0848 8.04744 13.8657 8.04744H12.3808V10.6522ZM10.4698 6.5625H14.3891C14.9328 6.5625 15.3953 6.64364 15.7767 6.80593C16.158 6.96011 16.4664 7.16703 16.7017 7.42669C16.9451 7.68635 17.1196 7.98253 17.2251 8.31522C17.3387 8.64791 17.3955 8.99277 17.3955 9.34981C17.3955 9.69873 17.3387 10.0436 17.2251 10.3844C17.1196 10.7171 16.9451 11.0133 16.7017 11.2729C16.4664 11.5326 16.158 11.7436 15.7767 11.9059C15.3953 12.06 14.9328 12.1371 14.3891 12.1371H12.3808V15.2531H10.4698V6.5625Z" fill="white"/>
<path d="M28.988 12.1021H31.208L30.128 8.95806H30.104L28.988 12.1021ZM29.168 6.84606H31.1L34.304 15.4141H32.348L31.7 13.5061H28.496L27.824 15.4141H25.928L29.168 6.84606ZM39.0868 11.3941C38.9748 10.6821 38.5548 10.3261 37.8268 10.3261C37.5548 10.3261 37.3268 10.3901 37.1428 10.5181C36.9588 10.6381 36.8068 10.7981 36.6868 10.9981C36.5748 11.1901 36.4948 11.4061 36.4468 11.6461C36.3988 11.8781 36.3748 12.1101 36.3748 12.3421C36.3748 12.5661 36.3988 12.7941 36.4468 13.0261C36.4948 13.2581 36.5708 13.4701 36.6748 13.6621C36.7868 13.8461 36.9348 13.9981 37.1188 14.1181C37.3028 14.2381 37.5268 14.2981 37.7908 14.2981C38.1988 14.2981 38.5108 14.1861 38.7268 13.9621C38.9508 13.7301 39.0908 13.4221 39.1468 13.0381H40.7908C40.6788 13.8621 40.3588 14.4901 39.8308 14.9221C39.3028 15.3541 38.6268 15.5701 37.8028 15.5701C37.3388 15.5701 36.9108 15.4941 36.5188 15.3421C36.1348 15.1821 35.8068 14.9621 35.5348 14.6821C35.2628 14.4021 35.0508 14.0701 34.8988 13.6861C34.7468 13.2941 34.6708 12.8661 34.6708 12.4021C34.6708 11.9221 34.7388 11.4781 34.8748 11.0701C35.0188 10.6541 35.2268 10.2981 35.4988 10.0021C35.7708 9.69806 36.1028 9.46206 36.4948 9.29406C36.8868 9.12606 37.3348 9.04206 37.8388 9.04206C38.2068 9.04206 38.5588 9.09006 38.8948 9.18606C39.2388 9.28206 39.5428 9.43006 39.8068 9.63006C40.0788 9.82206 40.2988 10.0661 40.4668 10.3621C40.6348 10.6501 40.7308 10.9941 40.7548 11.3941H39.0868ZM41.7535 9.21006H43.3735V10.3621H43.3975C43.4775 10.1701 43.5855 9.99406 43.7215 9.83406C43.8575 9.66606 44.0135 9.52606 44.1895 9.41406C44.3655 9.29406 44.5535 9.20206 44.7535 9.13806C44.9535 9.07406 45.1615 9.04206 45.3775 9.04206C45.4895 9.04206 45.6135 9.06206 45.7495 9.10206V10.6861C45.6695 10.6701 45.5735 10.6581 45.4615 10.6501C45.3495 10.6341 45.2415 10.6261 45.1375 10.6261C44.8255 10.6261 44.5615 10.6781 44.3455 10.7821C44.1295 10.8861 43.9535 11.0301 43.8175 11.2141C43.6895 11.3901 43.5975 11.5981 43.5415 11.8381C43.4855 12.0781 43.4575 12.3381 43.4575 12.6181V15.4141H41.7535V9.21006ZM50.3826 11.6461C50.3026 11.2141 50.1586 10.8861 49.9506 10.6621C49.7506 10.4381 49.4426 10.3261 49.0266 10.3261C48.7546 10.3261 48.5266 10.3741 48.3426 10.4701C48.1666 10.5581 48.0226 10.6701 47.9106 10.8061C47.8066 10.9421 47.7306 11.0861 47.6826 11.2381C47.6426 11.3901 47.6186 11.5261 47.6106 11.6461H50.3826ZM47.6106 12.7261C47.6346 13.2781 47.7746 13.6781 48.0306 13.9261C48.2866 14.1741 48.6546 14.2981 49.1346 14.2981C49.4786 14.2981 49.7746 14.2141 50.0226 14.0461C50.2706 13.8701 50.4226 13.6861 50.4786 13.4941H51.9786C51.7386 14.2381 51.3706 14.7701 50.8746 15.0901C50.3786 15.4101 49.7786 15.5701 49.0746 15.5701C48.5866 15.5701 48.1466 15.4941 47.7546 15.3421C47.3626 15.1821 47.0306 14.9581 46.7586 14.6701C46.4866 14.3821 46.2746 14.0381 46.1226 13.6381C45.9786 13.2381 45.9066 12.7981 45.9066 12.3181C45.9066 11.8541 45.9826 11.4221 46.1346 11.0221C46.2866 10.6221 46.5026 10.2781 46.7826 9.99006C47.0626 9.69406 47.3946 9.46206 47.7786 9.29406C48.1706 9.12606 48.6026 9.04206 49.0746 9.04206C49.6026 9.04206 50.0626 9.14606 50.4546 9.35406C50.8466 9.55406 51.1666 9.82606 51.4146 10.1701C51.6706 10.5141 51.8546 10.9061 51.9666 11.3461C52.0786 11.7861 52.1186 12.2461 52.0866 12.7261H47.6106ZM57.5012 12.2941C57.5012 12.0381 57.4772 11.7941 57.4292 11.5621C57.3812 11.3221 57.2972 11.1141 57.1772 10.9381C57.0652 10.7541 56.9172 10.6061 56.7332 10.4941C56.5492 10.3821 56.3172 10.3261 56.0372 10.3261C55.7572 10.3261 55.5212 10.3821 55.3292 10.4941C55.1372 10.6061 54.9812 10.7541 54.8612 10.9381C54.7492 11.1221 54.6652 11.3341 54.6092 11.5741C54.5612 11.8061 54.5372 12.0501 54.5372 12.3061C54.5372 12.5461 54.5652 12.7861 54.6212 13.0261C54.6772 13.2661 54.7652 13.4821 54.8852 13.6741C55.0132 13.8581 55.1692 14.0101 55.3532 14.1301C55.5452 14.2421 55.7732 14.2981 56.0372 14.2981C56.3172 14.2981 56.5492 14.2421 56.7332 14.1301C56.9252 14.0181 57.0772 13.8701 57.1892 13.6861C57.3012 13.4941 57.3812 13.2781 57.4292 13.0381C57.4772 12.7981 57.5012 12.5501 57.5012 12.2941ZM57.5252 14.6221H57.5012C57.3012 14.9581 57.0372 15.2021 56.7092 15.3541C56.3892 15.4981 56.0252 15.5701 55.6172 15.5701C55.1532 15.5701 54.7452 15.4821 54.3932 15.3061C54.0412 15.1221 53.7492 14.8781 53.5172 14.5741C53.2932 14.2621 53.1212 13.9061 53.0012 13.5061C52.8892 13.1061 52.8332 12.6901 52.8332 12.2581C52.8332 11.8421 52.8892 11.4421 53.0012 11.0581C53.1212 10.6661 53.2932 10.3221 53.5172 10.0261C53.7492 9.73006 54.0372 9.49406 54.3812 9.31806C54.7252 9.13406 55.1252 9.04206 55.5812 9.04206C55.9492 9.04206 56.2972 9.12206 56.6252 9.28206C56.9612 9.43406 57.2252 9.66206 57.4172 9.96606H57.4412V6.84606H59.1452V15.4141H57.5252V14.6221ZM62.1852 8.25006H60.4812V6.84606H62.1852V8.25006ZM60.4812 9.21006H62.1852V15.4141H60.4812V9.21006ZM65.6869 9.21006H66.9349V10.3501H65.6869V13.4221C65.6869 13.7101 65.7349 13.9021 65.8309 13.9981C65.9269 14.0941 66.1189 14.1421 66.4069 14.1421C66.5029 14.1421 66.5949 14.1381 66.6829 14.1301C66.7709 14.1221 66.8549 14.1101 66.9349 14.0941V15.4141C66.7909 15.4381 66.6309 15.4541 66.4549 15.4621C66.2789 15.4701 66.1069 15.4741 65.9389 15.4741C65.6749 15.4741 65.4229 15.4541 65.1829 15.4141C64.9509 15.3821 64.7429 15.3141 64.5589 15.2101C64.3829 15.1061 64.2429 14.9581 64.1389 14.7661C64.0349 14.5741 63.9829 14.3221 63.9829 14.0101V10.3501H62.9509V9.21006H63.9829V7.35006H65.6869V9.21006ZM67.6737 11.1181C67.6977 10.7181 67.7977 10.3861 67.9737 10.1221C68.1497 9.85806 68.3737 9.64606 68.6457 9.48606C68.9177 9.32606 69.2217 9.21406 69.5577 9.15006C69.9017 9.07806 70.2457 9.04206 70.5897 9.04206C70.9017 9.04206 71.2177 9.06606 71.5377 9.11406C71.8577 9.15406 72.1497 9.23806 72.4137 9.36606C72.6777 9.49406 72.8937 9.67406 73.0617 9.90606C73.2297 10.1301 73.3137 10.4301 73.3137 10.8061V14.0341C73.3137 14.3141 73.3297 14.5821 73.3617 14.8381C73.3937 15.0941 73.4497 15.2861 73.5297 15.4141H71.8017C71.7697 15.3181 71.7417 15.2221 71.7177 15.1261C71.7017 15.0221 71.6897 14.9181 71.6817 14.8141C71.4097 15.0941 71.0897 15.2901 70.7217 15.4021C70.3537 15.5141 69.9777 15.5701 69.5937 15.5701C69.2977 15.5701 69.0217 15.5341 68.7657 15.4621C68.5097 15.3901 68.2857 15.2781 68.0937 15.1261C67.9017 14.9741 67.7497 14.7821 67.6377 14.5501C67.5337 14.3181 67.4817 14.0421 67.4817 13.7221C67.4817 13.3701 67.5417 13.0821 67.6617 12.8581C67.7897 12.6261 67.9497 12.4421 68.1417 12.3061C68.3417 12.1701 68.5657 12.0701 68.8137 12.0061C69.0697 11.9341 69.3257 11.8781 69.5817 11.8381C69.8377 11.7981 70.0897 11.7661 70.3377 11.7421C70.5857 11.7181 70.8057 11.6821 70.9977 11.6341C71.1897 11.5861 71.3417 11.5181 71.4537 11.4301C71.5657 11.3341 71.6177 11.1981 71.6097 11.0221C71.6097 10.8381 71.5777 10.6941 71.5137 10.5901C71.4577 10.4781 71.3777 10.3941 71.2737 10.3381C71.1777 10.2741 71.0617 10.2341 70.9257 10.2181C70.7977 10.1941 70.6577 10.1821 70.5057 10.1821C70.1697 10.1821 69.9057 10.2541 69.7137 10.3981C69.5217 10.5421 69.4097 10.7821 69.3777 11.1181H67.6737ZM71.6097 12.3781C71.5377 12.4421 71.4457 12.4941 71.3337 12.5341C71.2297 12.5661 71.1137 12.5941 70.9857 12.6181C70.8657 12.6421 70.7377 12.6621 70.6017 12.6781C70.4657 12.6941 70.3297 12.7141 70.1937 12.7381C70.0657 12.7621 69.9377 12.7941 69.8097 12.8341C69.6897 12.8741 69.5817 12.9301 69.4857 13.0021C69.3977 13.0661 69.3257 13.1501 69.2697 13.2541C69.2137 13.3581 69.1857 13.4901 69.1857 13.6501C69.1857 13.8021 69.2137 13.9301 69.2697 14.0341C69.3257 14.1381 69.4017 14.2221 69.4977 14.2861C69.5937 14.3421 69.7057 14.3821 69.8337 14.4061C69.9617 14.4301 70.0937 14.4421 70.2297 14.4421C70.5657 14.4421 70.8257 14.3861 71.0097 14.2741C71.1937 14.1621 71.3297 14.0301 71.4177 13.8781C71.5057 13.7181 71.5577 13.5581 71.5737 13.3981C71.5977 13.2381 71.6097 13.1101 71.6097 13.0141V12.3781ZM76.7963 9.21006H78.0443V10.3501H76.7963V13.4221C76.7963 13.7101 76.8443 13.9021 76.9403 13.9981C77.0363 14.0941 77.2283 14.1421 77.5163 14.1421C77.6123 14.1421 77.7043 14.1381 77.7923 14.1301C77.8803 14.1221 77.9643 14.1101 78.0443 14.0941V15.4141C77.9003 15.4381 77.7403 15.4541 77.5643 15.4621C77.3883 15.4701 77.2163 15.4741 77.0483 15.4741C76.7843 15.4741 76.5323 15.4541 76.2923 15.4141C76.0603 15.3821 75.8523 15.3141 75.6683 15.2101C75.4923 15.1061 75.3523 14.9581 75.2483 14.7661C75.1443 14.5741 75.0923 14.3221 75.0923 14.0101V10.3501H74.0603V9.21006H75.0923V7.35006H76.7963V9.21006ZM80.607 8.25006H78.903V6.84606H80.607V8.25006ZM78.903 9.21006H80.607V15.4141H78.903V9.21006ZM83.4608 12.3181C83.4608 12.5661 83.4848 12.8101 83.5328 13.0501C83.5808 13.2821 83.6608 13.4941 83.7728 13.6861C83.8928 13.8701 84.0488 14.0181 84.2408 14.1301C84.4328 14.2421 84.6728 14.2981 84.9608 14.2981C85.2488 14.2981 85.4888 14.2421 85.6808 14.1301C85.8808 14.0181 86.0368 13.8701 86.1488 13.6861C86.2688 13.4941 86.3528 13.2821 86.4008 13.0501C86.4488 12.8101 86.4728 12.5661 86.4728 12.3181C86.4728 12.0701 86.4488 11.8261 86.4008 11.5861C86.3528 11.3461 86.2688 11.1341 86.1488 10.9501C86.0368 10.7661 85.8808 10.6181 85.6808 10.5061C85.4888 10.3861 85.2488 10.3261 84.9608 10.3261C84.6728 10.3261 84.4328 10.3861 84.2408 10.5061C84.0488 10.6181 83.8928 10.7661 83.7728 10.9501C83.6608 11.1341 83.5808 11.3461 83.5328 11.5861C83.4848 11.8261 83.4608 12.0701 83.4608 12.3181ZM81.7568 12.3181C81.7568 11.8221 81.8328 11.3741 81.9848 10.9741C82.1368 10.5661 82.3528 10.2221 82.6328 9.94206C82.9128 9.65406 83.2488 9.43406 83.6408 9.28206C84.0328 9.12206 84.4728 9.04206 84.9608 9.04206C85.4488 9.04206 85.8888 9.12206 86.2808 9.28206C86.6808 9.43406 87.0208 9.65406 87.3008 9.94206C87.5808 10.2221 87.7968 10.5661 87.9488 10.9741C88.1008 11.3741 88.1768 11.8221 88.1768 12.3181C88.1768 12.8141 88.1008 13.2621 87.9488 13.6621C87.7968 14.0621 87.5808 14.4061 87.3008 14.6941C87.0208 14.9741 86.6808 15.1901 86.2808 15.3421C85.8888 15.4941 85.4488 15.5701 84.9608 15.5701C84.4728 15.5701 84.0328 15.4941 83.6408 15.3421C83.2488 15.1901 82.9128 14.9741 82.6328 14.6941C82.3528 14.4061 82.1368 14.0621 81.9848 13.6621C81.8328 13.2621 81.7568 12.8141 81.7568 12.3181ZM89.2847 9.21006H90.9047V10.0741H90.9407C91.1567 9.71406 91.4367 9.45406 91.7807 9.29406C92.1247 9.12606 92.4767 9.04206 92.8367 9.04206C93.2927 9.04206 93.6647 9.10606 93.9527 9.23406C94.2487 9.35406 94.4807 9.52606 94.6487 9.75006C94.8167 9.96606 94.9327 10.2341 94.9967 10.5541C95.0687 10.8661 95.1047 11.2141 95.1047 11.5981V15.4141H93.4007V11.9101C93.4007 11.3981 93.3207 11.0181 93.1607 10.7701C93.0007 10.5141 92.7167 10.3861 92.3087 10.3861C91.8447 10.3861 91.5087 10.5261 91.3007 10.8061C91.0927 11.0781 90.9887 11.5301 90.9887 12.1621V15.4141H89.2847V9.21006Z" fill="white"/>
</svg>
