<svg width="21" height="20" viewBox="0 0 21 20" fill="none" xmlns="http://www.w3.org/2000/svg">
<path d="M3.43634 7.54758V13.75C3.43634 15.1307 4.55563 16.25 5.93634 16.25H15.9363C17.3171 16.25 18.4363 15.1307 18.4363 13.75V6.25C18.4363 4.86929 17.3171 3.75 15.9363 3.75H5.93634C4.55563 3.75 3.43634 4.86929 3.43634 6.25V7.54758C3.43634 7.54762 3.43634 7.54755 3.43634 7.54758ZM5.93634 5H15.9363C16.6267 5 17.1863 5.55964 17.1863 6.25V7.17483L10.9365 10.5402L4.68634 7.1747V6.25C4.68634 5.55964 5.24598 5 5.93634 5ZM4.68634 8.5944L10.6401 11.8003C10.8251 11.8999 11.0478 11.8999 11.2328 11.8003L17.1863 8.59453V13.75C17.1863 14.4404 16.6267 15 15.9363 15H5.93634C5.24598 15 4.68634 14.4404 4.68634 13.75V8.5944Z" fill="#485566"/>
</svg>
