<svg xmlns="http://www.w3.org/2000/svg" width="20" height="20" viewBox="0 0 20 20" fill="none">
  <mask id="mask0_248_25256" style="mask-type:alpha" maskUnits="userSpaceOnUse" x="0" y="0" width="20" height="20">
    <rect width="20" height="20" fill="#D9D9D9"/>
  </mask>
  <g mask="url(#mask0_248_25256)">
    <path d="M10.0013 11.5836C9.41903 11.5836 8.92625 11.382 8.52293 10.9787C8.11962 10.5753 7.91797 10.0826 7.91797 9.50031V4.50031C7.91797 3.91806 8.11962 3.42527 8.52293 3.02195C8.92625 2.61865 9.41903 2.41699 10.0013 2.41699C10.5835 2.41699 11.0763 2.61865 11.4796 3.02195C11.8829 3.42527 12.0846 3.91806 12.0846 4.50031V9.50031C12.0846 10.0826 11.8829 10.5753 11.4796 10.9787C11.0763 11.382 10.5835 11.5836 10.0013 11.5836ZM9.45964 16.792V14.5451C8.15686 14.4005 7.07422 13.8521 6.21172 12.8998C5.34922 11.9476 4.91797 10.8144 4.91797 9.50031H6.00128C6.00128 10.607 6.39174 11.5503 7.17266 12.3303C7.95357 13.1103 8.89802 13.5003 10.006 13.5003C11.114 13.5003 12.0568 13.1103 12.8346 12.3303C13.6124 11.5503 14.0013 10.607 14.0013 9.50031H15.0846C15.0846 10.8144 14.6533 11.9476 13.7908 12.8998C12.9283 13.8521 11.8457 14.4005 10.5429 14.5451V16.792H9.45964ZM10.0013 10.5003C10.2846 10.5003 10.5221 10.4045 10.7138 10.2128C10.9054 10.0211 11.0013 9.78364 11.0013 9.50031V4.50031C11.0013 4.21697 10.9054 3.97947 10.7138 3.7878C10.5221 3.59614 10.2846 3.50031 10.0013 3.50031C9.71795 3.50031 9.48045 3.59614 9.28878 3.7878C9.09711 3.97947 9.00128 4.21697 9.00128 4.50031V9.50031C9.00128 9.78364 9.09711 10.0211 9.28878 10.2128C9.48045 10.4045 9.71795 10.5003 10.0013 10.5003Z" fill="#485566"/>
  </g>
</svg>