<svg width="17" height="16" viewBox="0 0 17 16" fill="none" xmlns="http://www.w3.org/2000/svg">
<g clip-path="url(#clip0_277_58438)">
<path d="M6.43003 5.99961C6.43003 5.7787 6.60912 5.59961 6.83003 5.59961H10.83C11.0509 5.59961 11.23 5.7787 11.23 5.99961C11.23 6.22052 11.0509 6.39961 10.83 6.39961H6.83003C6.60912 6.39961 6.43003 6.22052 6.43003 5.99961ZM6.83003 7.99961C6.60912 7.99961 6.43003 8.1787 6.43003 8.39961C6.43003 8.62052 6.60912 8.79961 6.83003 8.79961H10.83C11.0509 8.79961 11.23 8.62052 11.23 8.39961C11.23 8.1787 11.0509 7.99961 10.83 7.99961H6.83003ZM6.43003 10.7996C6.43003 10.5787 6.60912 10.3996 6.83003 10.3996H8.43003C8.65094 10.3996 8.83003 10.5787 8.83003 10.7996C8.83003 11.0205 8.65094 11.1996 8.43003 11.1996H6.83003C6.60912 11.1996 6.43003 11.0205 6.43003 10.7996ZM5.63003 1.99961C5.63003 1.7787 5.80912 1.59961 6.03003 1.59961C6.25094 1.59961 6.43003 1.7787 6.43003 1.99961V2.39961H8.43003V1.99961C8.43003 1.7787 8.60912 1.59961 8.83003 1.59961C9.05094 1.59961 9.23003 1.7787 9.23003 1.99961V2.39961H11.23V1.99961C11.23 1.7787 11.4091 1.59961 11.63 1.59961C11.8509 1.59961 12.03 1.7787 12.03 1.99961V2.39961H12.43C13.0928 2.39961 13.63 2.93687 13.63 3.59961V7.38491C13.3691 7.49672 13.1246 7.65913 12.9116 7.87213L12.83 7.95373V3.59961C12.83 3.3787 12.6509 3.19961 12.43 3.19961H5.23003C5.00912 3.19961 4.83003 3.3787 4.83003 3.59961V13.1996C4.83003 13.4205 5.00912 13.5996 5.23003 13.5996H8.20641L8.07576 14.1222C8.05239 14.2157 8.03815 14.3084 8.03231 14.3996H5.23003C4.56729 14.3996 4.03003 13.8624 4.03003 13.1996V3.59961C4.03003 2.93687 4.56729 2.39961 5.23003 2.39961H5.63003V1.99961ZM13.4774 8.43782L9.61383 12.3014C9.38857 12.5266 9.22877 12.8089 9.1515 13.1179L8.85192 14.3162C8.72164 14.8374 9.19368 15.3094 9.7148 15.1791L10.9131 14.8795C11.2222 14.8023 11.5044 14.6425 11.7297 14.4172L15.5932 10.5537C16.1775 9.9694 16.1775 9.0221 15.5932 8.43782C15.009 7.85354 14.0617 7.85354 13.4774 8.43782Z" fill="#485566"/>
</g>
<defs>
<clipPath id="clip0_277_58438">
<rect width="16" height="16" fill="white" transform="translate(0.830078)"/>
</clipPath>
</defs>
</svg>
