<svg width="52" height="15" viewBox="0 0 52 15" fill="none" xmlns="http://www.w3.org/2000/svg">
<g id="International">
<path id="Fill 1" fill-rule="evenodd" clip-rule="evenodd" d="M6.30128 0.166504H2.25664C1.97983 0.166504 1.74444 0.368424 1.7012 0.642862L0.0653578 11.0562C0.0328894 11.2618 0.191421 11.4469 0.398987 11.4469H2.32986C2.60667 11.4469 2.84207 11.2452 2.8853 10.9702L3.32644 8.16147C3.36902 7.88653 3.60491 7.68461 3.88122 7.68461H5.16157C7.8258 7.68461 9.36341 6.39009 9.76512 3.82501C9.94602 2.70264 9.77274 1.82095 9.24927 1.20338C8.67445 0.525269 7.65484 0.166504 6.30128 0.166504ZM6.76757 3.97062C6.54642 5.42781 5.43753 5.42781 4.36541 5.42781H3.75497L4.18319 2.70638C4.2087 2.54188 4.3505 2.4208 4.51616 2.4208H4.79595C5.52632 2.4208 6.21528 2.4208 6.57127 2.83877C6.78364 3.0881 6.84858 3.45867 6.76757 3.97062Z" fill="#28356A"/>
<path id="Fill 2" fill-rule="evenodd" clip-rule="evenodd" d="M18.4946 3.84409H16.5578C16.3928 3.84409 16.2502 3.96518 16.2248 4.12967L16.139 4.67356L16.0037 4.47646C15.5844 3.86538 14.6493 3.66113 13.7161 3.66113C11.5757 3.66113 9.74769 5.2888 9.3917 7.57196C9.20667 8.7108 9.46973 9.7999 10.1133 10.5593C10.7035 11.2576 11.548 11.5487 12.5527 11.5487C14.2774 11.5487 15.2335 10.4353 15.2335 10.4353L15.1472 10.9757C15.1148 11.1822 15.2733 11.3675 15.4797 11.3675H17.2242C17.5017 11.3675 17.7359 11.1656 17.7796 10.8907L18.8264 4.23479C18.8595 4.02988 18.7015 3.84409 18.4946 3.84409ZM15.7947 7.62956C15.6079 8.74046 14.7297 9.48626 13.6096 9.48626C13.0472 9.48626 12.5977 9.30513 12.309 8.962C12.0227 8.6212 11.9141 8.13603 12.005 7.59563C12.1796 6.49422 13.0725 5.72397 14.1756 5.72397C14.7256 5.72397 15.1727 5.90759 15.4672 6.25355C15.7622 6.60333 15.8794 7.0915 15.7947 7.62956Z" fill="#28356A"/>
<path id="Fill 3" fill-rule="evenodd" clip-rule="evenodd" d="M28.6608 4.00977H26.7143C26.5286 4.00977 26.3542 4.10241 26.249 4.25743L23.5646 8.22746L22.4267 4.41227C22.3551 4.1736 22.1358 4.00977 21.8873 4.00977H19.9748C19.7423 4.00977 19.5809 4.2378 19.6548 4.45752L21.7987 10.7742L19.7832 13.6311C19.6246 13.8561 19.7843 14.1655 20.0582 14.1655H22.0021C22.1867 14.1655 22.3593 14.0752 22.464 13.9233L28.9374 4.54118C29.0925 4.3168 28.9333 4.00977 28.6608 4.00977Z" fill="#28356A"/>
<path id="Fill 4" fill-rule="evenodd" clip-rule="evenodd" d="M35.1495 0.166504H31.1043C30.8282 0.166504 30.5928 0.368424 30.5496 0.642862L28.9137 11.0562C28.8812 11.2618 29.0398 11.4469 29.2462 11.4469H31.322C31.5147 11.4469 31.6797 11.3057 31.7098 11.1133L32.1741 8.16147C32.2167 7.88653 32.4528 7.68461 32.7289 7.68461H34.0088C36.6735 7.68461 38.2106 6.39009 38.6128 3.82501C38.7944 2.70264 38.6199 1.82095 38.0965 1.20338C37.5221 0.525269 36.5032 0.166504 35.1495 0.166504ZM35.6161 3.97056C35.3955 5.42775 34.2866 5.42775 33.2138 5.42775H32.6042L33.0329 2.70632C33.0583 2.54182 33.1991 2.42074 33.3652 2.42074H33.645C34.3747 2.42074 35.0643 2.42074 35.4203 2.83872C35.6327 3.08804 35.6971 3.45861 35.6161 3.97056Z" fill="#298FC2"/>
<path id="Fill 5" fill-rule="evenodd" clip-rule="evenodd" d="M47.3402 3.84409H45.4045C45.2383 3.84409 45.097 3.96518 45.0722 4.12967L44.9864 4.67356L44.8504 4.47646C44.4311 3.86538 43.4966 3.66113 42.5633 3.66113C40.4231 3.66113 38.5957 5.2888 38.2397 7.57196C38.0552 8.7108 38.3171 9.7999 38.9605 10.5593C39.5521 11.2576 40.3952 11.5487 41.4001 11.5487C43.1246 11.5487 44.0809 10.4353 44.0809 10.4353L43.9946 10.9757C43.9621 11.1822 44.1205 11.3675 44.3282 11.3675H46.0722C46.3484 11.3675 46.5838 11.1656 46.627 10.8907L47.6743 4.23479C47.7063 4.02988 47.5477 3.84409 47.3402 3.84409ZM44.6403 7.62956C44.4546 8.74046 43.5752 9.48626 42.455 9.48626C41.8938 9.48626 41.4432 9.30513 41.1545 8.962C40.8684 8.6212 40.7607 8.13603 40.8505 7.59563C41.0262 6.49422 41.918 5.72397 43.0211 5.72397C43.571 5.72397 44.0181 5.90759 44.3127 6.25355C44.6089 6.60333 44.726 7.0915 44.6403 7.62956Z" fill="#298FC2"/>
<path id="Fill 6" fill-rule="evenodd" clip-rule="evenodd" d="M49.4622 0.452751L47.8022 11.0567C47.7697 11.2623 47.9281 11.4474 48.1345 11.4474H49.8035C50.081 11.4474 50.3162 11.2457 50.3588 10.9707L51.9958 0.557869C52.0284 0.35229 51.8699 0.166504 51.6635 0.166504H49.7947C49.6297 0.167003 49.4878 0.288255 49.4622 0.452751Z" fill="#298FC2"/>
</g>
</svg>
