<svg xmlns="http://www.w3.org/2000/svg" width="16" height="16" viewBox="0 0 16 16" fill="none">
  <path d="M2.66536 9.33267L8.66536 9.33333C9.00175 9.33323 9.32574 9.46027 9.5724 9.689C9.81905 9.91773 9.97013 10.2312 9.99536 10.5667L9.9987 10.6667V11.6667C9.99803 14 7.52136 14.6667 5.66536 14.6667C3.8507 14.6667 1.44203 14.0293 1.33536 11.82L1.33203 11.6667V10.666C1.33203 9.96333 1.87603 9.38733 2.56536 9.336L2.66536 9.33333V9.33267ZM10.1454 9.33333H13.332C14.0347 9.33333 14.6107 9.87733 14.6614 10.5667L14.6654 10.6667V11.3333C14.6647 13.3747 12.76 14 11.332 14C10.8483 14.0011 10.3673 13.9288 9.90536 13.7853C10.1294 13.528 10.31 13.234 10.44 12.9007C10.7329 12.9661 11.032 12.9994 11.332 13L11.51 12.996C12.1667 12.9673 13.5674 12.754 13.6607 11.47L13.6654 11.3333V10.6667C13.6653 10.5887 13.6379 10.5132 13.5879 10.4533C13.538 10.3934 13.4687 10.3528 13.392 10.3387L13.332 10.3333H10.6314C10.5762 10.007 10.4398 9.69976 10.2347 9.44L10.1454 9.33333ZM2.66536 10.3327L2.5987 10.3393C2.53471 10.3527 2.47592 10.3841 2.42936 10.43C2.38348 10.4763 2.35199 10.5349 2.3387 10.5987L2.33203 10.666V11.6667C2.33203 12.3393 2.63203 12.8147 3.2767 13.1613C3.82736 13.458 4.61203 13.6373 5.45403 13.6633L5.66536 13.6667L5.8767 13.6633C6.7187 13.6373 7.5027 13.458 8.05403 13.1613C8.65803 12.836 8.96003 12.398 8.99536 11.79L8.9987 11.666V10.6667C8.99859 10.5887 8.97121 10.5132 8.92128 10.4533C8.87136 10.3934 8.80205 10.3528 8.72536 10.3387L8.66536 10.3333L2.66536 10.3327ZM5.66536 2C6.46101 2 7.22408 2.31607 7.78668 2.87868C8.34929 3.44129 8.66536 4.20435 8.66536 5C8.66536 5.79565 8.34929 6.55871 7.78668 7.12132C7.22408 7.68393 6.46101 8 5.66536 8C4.86971 8 4.10665 7.68393 3.54404 7.12132C2.98143 6.55871 2.66536 5.79565 2.66536 5C2.66536 4.20435 2.98143 3.44129 3.54404 2.87868C4.10665 2.31607 4.86971 2 5.66536 2ZM11.6654 3.33333C12.2842 3.33333 12.8777 3.57917 13.3153 4.01675C13.7529 4.45434 13.9987 5.04783 13.9987 5.66667C13.9987 6.28551 13.7529 6.879 13.3153 7.31658C12.8777 7.75417 12.2842 8 11.6654 8C11.0465 8 10.453 7.75417 10.0154 7.31658C9.57786 6.879 9.33203 6.28551 9.33203 5.66667C9.33203 5.04783 9.57786 4.45434 10.0154 4.01675C10.453 3.57917 11.0465 3.33333 11.6654 3.33333ZM5.66536 3C4.5627 3 3.66536 3.89733 3.66536 5C3.66536 6.10267 4.5627 7 5.66536 7C6.76803 7 7.66536 6.10267 7.66536 5C7.66536 3.89733 6.76803 3 5.66536 3ZM11.6654 4.33333C10.93 4.33333 10.332 4.93133 10.332 5.66667C10.332 6.402 10.93 7 11.6654 7C12.4007 7 12.9987 6.402 12.9987 5.66667C12.9987 4.93133 12.4007 4.33333 11.6654 4.33333Z" fill="#485566"/>
</svg>