<svg width="21" height="20" viewBox="0 0 21 20" fill="none" xmlns="http://www.w3.org/2000/svg">
<path d="M5.57814 6.57265C5.33993 5.00228 6.44819 3.58834 8.14256 3.07015C8.76655 2.87931 9.43132 3.20683 9.66024 3.81788L10.2035 5.26785C10.3822 5.74508 10.2534 6.28307 9.87785 6.62755L8.26221 8.10951C8.10042 8.25791 8.02858 8.48137 8.07259 8.69645L8.08695 8.76174C8.09588 8.80073 8.10902 8.8559 8.12674 8.92489C8.16215 9.06273 8.21607 9.25656 8.29155 9.48735C8.44171 9.94647 8.68115 10.564 9.0374 11.181C9.39365 11.798 9.8087 12.3141 10.1312 12.6738C10.2933 12.8545 10.4343 12.9981 10.5359 13.0977C10.5868 13.1476 10.628 13.1865 10.6573 13.2138L10.7075 13.2595C10.8717 13.4052 11.1004 13.454 11.3098 13.3881L13.401 12.7299C13.8871 12.5769 14.4175 12.7343 14.7414 13.1278L15.7307 14.3295C16.1425 14.8297 16.0941 15.564 15.6202 16.0058C14.3238 17.2145 12.5413 17.462 11.3006 16.4651C10.1045 15.504 8.69681 14.0757 7.52086 12.0542C6.34217 10.028 5.80852 8.09141 5.57814 6.57265ZM9.38194 8.77864L10.7228 7.54872C11.4739 6.85976 11.7316 5.78378 11.374 4.82932L10.8308 3.37935C10.3702 2.14983 9.03255 1.49081 7.77698 1.8748C5.6737 2.51805 3.98489 4.40411 4.34227 6.76011C4.59186 8.40546 5.16913 10.4974 6.44038 12.6828C7.70647 14.8592 9.22399 16.4 10.5176 17.4395C12.3769 18.9335 14.8603 18.4233 16.4726 16.9201C17.4296 16.0279 17.5273 14.5452 16.6958 13.5351L15.7064 12.3333C15.0586 11.5464 13.998 11.2315 13.0258 11.5375L11.2902 12.0838C11.2234 12.0152 11.1461 11.9332 11.0618 11.8391C10.7766 11.5212 10.4199 11.0756 10.1199 10.556C9.81994 10.0364 9.61238 9.50469 9.47962 9.09877C9.44035 8.97872 9.40798 8.87074 9.38194 8.77864Z" fill="#485566"/>
</svg>
