<svg xmlns="http://www.w3.org/2000/svg" width="16" height="16" viewBox="0 0 16 16" fill="none">
  <path d="M11.8346 9.33327C12.0316 9.33318 12.2266 9.3719 12.4086 9.44721C12.5906 9.52252 12.756 9.63294 12.8953 9.77218C13.0346 9.91141 13.1451 10.0767 13.2204 10.2587C13.2958 10.4406 13.3346 10.6357 13.3346 10.8326V11.2159C13.3346 11.8119 13.1213 12.3893 12.7333 12.8413C11.6866 14.0639 10.0953 14.6673 7.99863 14.6673C5.9013 14.6673 4.31064 14.0639 3.26664 12.8406C2.88023 12.388 2.66795 11.8124 2.66797 11.2173V10.8326C2.66788 10.6357 2.7066 10.4406 2.78191 10.2586C2.85722 10.0766 2.96764 9.91128 3.10688 9.77198C3.24611 9.63269 3.41143 9.52219 3.59338 9.4468C3.77533 9.37141 3.97035 9.3326 4.1673 9.3326H11.8346V9.33327ZM11.8346 10.3333H4.1673C4.10167 10.3332 4.03667 10.346 3.97601 10.3711C3.91535 10.3961 3.86023 10.4329 3.81379 10.4793C3.76735 10.5257 3.73051 10.5807 3.70538 10.6414C3.68024 10.702 3.6673 10.767 3.6673 10.8326V11.2173C3.6673 11.5746 3.7953 11.9199 4.0273 12.1913C4.86264 13.1699 6.1733 13.6673 7.99863 13.6673C9.82397 13.6673 11.136 13.1699 11.9733 12.1913C12.206 11.9196 12.3339 11.5737 12.334 11.2159V10.8326C12.3341 10.767 12.3212 10.702 12.2962 10.6413C12.2711 10.5807 12.2343 10.5255 12.188 10.4791C12.1416 10.4327 12.0865 10.3958 12.0259 10.3707C11.9653 10.3455 11.9003 10.3326 11.8346 10.3326V10.3333ZM7.99863 1.33594C8.88269 1.33594 9.73054 1.68713 10.3557 2.31225C10.9808 2.93737 11.332 3.78522 11.332 4.66927C11.332 5.55333 10.9808 6.40117 10.3557 7.02629C9.73054 7.65141 8.88269 8.0026 7.99863 8.0026C7.11458 8.0026 6.26673 7.65141 5.64161 7.02629C5.01649 6.40117 4.6653 5.55333 4.6653 4.66927C4.6653 3.78522 5.01649 2.93737 5.64161 2.31225C6.26673 1.68713 7.11458 1.33594 7.99863 1.33594ZM7.99863 2.33594C7.69222 2.33594 7.3888 2.39629 7.10571 2.51355C6.82261 2.63081 6.56539 2.80268 6.34872 3.01935C6.13205 3.23602 5.96018 3.49325 5.84292 3.77634C5.72566 4.05944 5.6653 4.36285 5.6653 4.66927C5.6653 4.97569 5.72566 5.27911 5.84292 5.5622C5.96018 5.84529 6.13205 6.10252 6.34872 6.31919C6.56539 6.53586 6.82261 6.70773 7.10571 6.82499C7.3888 6.94225 7.69222 7.0026 7.99863 7.0026C8.61747 7.0026 9.21097 6.75677 9.64855 6.31919C10.0861 5.8816 10.332 5.28811 10.332 4.66927C10.332 4.05043 10.0861 3.45694 9.64855 3.01935C9.21097 2.58177 8.61747 2.33594 7.99863 2.33594Z" fill="#485566"/>
</svg>