<svg xmlns="http://www.w3.org/2000/svg" width="40" height="40" viewBox="0 0 40 40" fill="none">
  <path d="M20 0C8.97129 0 0 8.97048 0 20C0 31.0279 8.97048 40 20 40C31.0279 40 40 31.0279 40 20C39.9992 8.97048 31.0271 0 20 0Z" fill="#67768E"/>
  <path d="M20.873 28.5613C21.2052 28.2531 21.3742 27.8978 21.3742 27.5068V26.8305C21.3742 26.4406 21.2052 26.0853 20.873 25.7771C20.5446 25.4733 20.1049 25.3184 19.5656 25.3184C19.0101 25.3184 18.5519 25.4711 18.2057 25.7726C17.8521 26.0809 17.672 26.4372 17.672 26.8305V27.5068C17.672 27.9001 17.851 28.2564 18.2057 28.5647C18.5519 28.8673 19.0101 29.02 19.5656 29.02C20.1049 29.02 20.5446 28.8662 20.873 28.5613Z" fill="white"/>
  <path d="M24.2742 18.4891C24.6054 18.1747 24.8834 17.7999 25.101 17.3736C25.3225 16.94 25.435 16.4092 25.435 15.8C25.435 15.1991 25.3432 14.6073 25.1631 14.04C24.9807 13.4672 24.6859 12.9475 24.2859 12.4949C23.8848 12.0418 23.3472 11.672 22.6894 11.3946C22.0349 11.1188 21.2349 10.9795 20.313 10.9795C19.3776 10.9795 18.5564 11.1054 17.87 11.3532C17.1892 11.6004 16.6113 11.9008 16.156 12.2443C15.6984 12.5895 15.3387 12.9537 15.0864 13.3285C14.8285 13.7105 14.6769 14.0233 14.6221 14.2767C14.5477 14.5743 14.5477 14.868 14.6232 15.1477C14.7037 15.4526 14.9393 15.7037 15.3247 15.8962C15.7538 16.1015 16.1649 16.1373 16.5353 16.0036C16.8961 15.8738 17.1752 15.6741 17.3632 15.4095C17.5724 15.1197 17.776 14.8752 17.9696 14.6817C18.1542 14.4971 18.3562 14.3483 18.571 14.242C18.7886 14.1335 19.0314 14.0551 19.2948 14.0087C19.5645 13.9606 19.899 13.9366 20.2884 13.9366C20.873 13.9366 21.3417 14.0814 21.6796 14.3679C22.0142 14.6498 22.1758 15.0772 22.1758 15.6735C22.1758 16.0349 22.0858 16.3297 21.9023 16.5731C21.702 16.8354 21.4553 17.0911 21.1683 17.3305C20.8713 17.5772 20.5379 17.8362 20.1765 18.0975C19.7983 18.3727 19.4492 18.7039 19.1393 19.0832C18.8283 19.463 18.5626 19.9256 18.3472 20.4588C18.1302 20.9963 18.0205 21.6682 18.0205 22.457C18.0205 22.7943 18.171 23.107 18.4686 23.3845C18.7461 23.6446 19.1186 23.7755 19.5762 23.7755L19.6697 23.7733C20.1205 23.7548 20.4903 23.5909 20.7667 23.286C21.0397 22.9834 21.1778 22.6886 21.1778 22.4066V21.9815C21.1778 21.5535 21.2735 21.1871 21.4615 20.8945C21.6589 20.5874 21.9112 20.3032 22.2127 20.0487C22.5204 19.7897 22.8589 19.5413 23.2186 19.3131C23.5945 19.0731 23.9492 18.7962 24.2742 18.4891Z" fill="white"/>
</svg>