<svg xmlns="http://www.w3.org/2000/svg" width="18" height="18" viewBox="0 0 18 18" fill="none">
  <path d="M9 6V1.5H4.5C4.10218 1.5 3.72064 1.65804 3.43934 1.93934C3.15804 2.22064 3 2.60218 3 3V15C3 15.3978 3.15804 15.7794 3.43934 16.0607C3.72064 16.342 4.10218 16.5 4.5 16.5H13.5C13.8978 16.5 14.2794 16.342 14.5607 16.0607C14.842 15.7794 15 15.3978 15 15V7.5H10.5C10.1022 7.5 9.72064 7.34196 9.43934 7.06066C9.15804 6.77936 9 6.39782 9 6ZM6.1875 8.625H11.8125C11.9617 8.625 12.1048 8.68426 12.2102 8.78975C12.3157 8.89524 12.375 9.03832 12.375 9.1875C12.375 9.33668 12.3157 9.47976 12.2102 9.58525C12.1048 9.69074 11.9617 9.75 11.8125 9.75H6.1875C6.03832 9.75 5.89524 9.69074 5.78975 9.58525C5.68426 9.47976 5.625 9.33668 5.625 9.1875C5.625 9.03832 5.68426 8.89524 5.78975 8.78975C5.89524 8.68426 6.03832 8.625 6.1875 8.625ZM6.1875 10.6875H11.8125C11.9617 10.6875 12.1048 10.7468 12.2102 10.8523C12.3157 10.9577 12.375 11.1008 12.375 11.25C12.375 11.3992 12.3157 11.5423 12.2102 11.6477C12.1048 11.7532 11.9617 11.8125 11.8125 11.8125H6.1875C6.03832 11.8125 5.89524 11.7532 5.78975 11.6477C5.68426 11.5423 5.625 11.3992 5.625 11.25C5.625 11.1008 5.68426 10.9577 5.78975 10.8523C5.89524 10.7468 6.03832 10.6875 6.1875 10.6875ZM6.1875 12.75H11.8125C11.9617 12.75 12.1048 12.8093 12.2102 12.9148C12.3157 13.0202 12.375 13.1633 12.375 13.3125C12.375 13.4617 12.3157 13.6048 12.2102 13.7102C12.1048 13.8157 11.9617 13.875 11.8125 13.875H6.1875C6.03832 13.875 5.89524 13.8157 5.78975 13.7102C5.68426 13.6048 5.625 13.4617 5.625 13.3125C5.625 13.1633 5.68426 13.0202 5.78975 12.9148C5.89524 12.8093 6.03832 12.75 6.1875 12.75ZM10.125 6V1.875L14.625 6.375H10.5C10.4005 6.375 10.3052 6.33549 10.2348 6.26517C10.1645 6.19484 10.125 6.09946 10.125 6Z" fill="#E9EFFA"/>
</svg>