<svg xmlns="http://www.w3.org/2000/svg" width="16" height="12" viewBox="0 0 16 12" fill="none">
  <path d="M5.288 8.9415L13.763 0.466504C13.963 0.266504 14.2005 0.166504 14.4755 0.166504C14.7505 0.166504 14.988 0.266504 15.188 0.466504C15.388 0.666504 15.488 0.904004 15.488 1.179C15.488 1.454 15.388 1.6915 15.188 1.8915L5.988 11.0915C5.788 11.2915 5.55467 11.3915 5.288 11.3915C5.02133 11.3915 4.788 11.2915 4.588 11.0915L0.288 6.7915C0.088 6.5915 -0.00783333 6.354 0.0005 6.079C0.00883333 5.804 0.113 5.5665 0.313 5.3665C0.513 5.1665 0.7505 5.0665 1.0255 5.0665C1.3005 5.0665 1.538 5.1665 1.738 5.3665L5.288 8.9415Z" fill="#09863F"/>
</svg>