<svg xmlns="http://www.w3.org/2000/svg" width="20" height="20" viewBox="0 0 20 20" fill="none">
  <path d="M14.7917 2.5C15.51 2.5 16.1988 2.78534 16.7067 3.29325C17.2147 3.80116 17.5 4.49004 17.5 5.20833V10.0183C17.1104 9.76857 16.6903 9.56999 16.25 9.4275V7.08333H3.75V14.7917C3.75 15.5967 4.40333 16.25 5.20833 16.25H9.4275C9.57167 16.695 9.77083 17.1142 10.0183 17.5H5.20833C4.49004 17.5 3.80116 17.2147 3.29325 16.7067C2.78534 16.1988 2.5 15.51 2.5 14.7917V5.20833C2.5 4.49004 2.78534 3.80116 3.29325 3.29325C3.80116 2.78534 4.49004 2.5 5.20833 2.5H14.7917ZM14.7917 3.75H5.20833C4.82156 3.75 4.45063 3.90365 4.17714 4.17714C3.90365 4.45063 3.75 4.82156 3.75 5.20833V5.83333H16.25V5.20833C16.25 4.82156 16.0964 4.45063 15.8229 4.17714C15.5494 3.90365 15.1784 3.75 14.7917 3.75ZM10 14.5833C10 15.7989 10.4829 16.9647 11.3424 17.8242C12.202 18.6838 13.3678 19.1667 14.5833 19.1667C15.7989 19.1667 16.9647 18.6838 17.8242 17.8242C18.6838 16.9647 19.1667 15.7989 19.1667 14.5833C19.1667 13.3678 18.6838 12.202 17.8242 11.3424C16.9647 10.4829 15.7989 10 14.5833 10C13.3678 10 12.202 10.4829 11.3424 11.3424C10.4829 12.202 10 13.3678 10 14.5833ZM17.0833 11.6667C17.1938 11.6667 17.2998 11.7106 17.378 11.7887C17.4561 11.8668 17.5 11.9728 17.5 12.0833V13.75C17.5 13.8605 17.4561 13.9665 17.378 14.0446C17.2998 14.1228 17.1938 14.1667 17.0833 14.1667H15.4167C15.3062 14.1667 15.2002 14.1228 15.122 14.0446C15.0439 13.9665 15 13.8605 15 13.75C15 13.6395 15.0439 13.5335 15.122 13.4554C15.2002 13.3772 15.3062 13.3333 15.4167 13.3333H16.25C16.0561 13.0744 15.8045 12.8643 15.5152 12.7196C15.2259 12.5749 14.9068 12.4997 14.5833 12.5C13.8892 12.5 13.2733 12.8392 12.8942 13.3633C12.8284 13.4501 12.7312 13.5077 12.6235 13.5237C12.5158 13.5398 12.4061 13.513 12.3179 13.4492C12.2297 13.3853 12.17 13.2895 12.1515 13.1822C12.1331 13.0749 12.1573 12.9646 12.2192 12.875C12.4893 12.5007 12.8446 12.1959 13.2556 11.9859C13.6666 11.7758 14.1217 11.6664 14.5833 11.6667C15.4 11.6667 16.1375 12.0025 16.6667 12.5417V12.0833C16.6667 11.9728 16.7106 11.8668 16.7887 11.7887C16.8668 11.7106 16.9728 11.6667 17.0833 11.6667ZM12.5 16.625V17.0833C12.5 17.1938 12.4561 17.2998 12.378 17.378C12.2998 17.4561 12.1938 17.5 12.0833 17.5C11.9728 17.5 11.8668 17.4561 11.7887 17.378C11.7106 17.2998 11.6667 17.1938 11.6667 17.0833V15.4167C11.6667 15.3062 11.7106 15.2002 11.7887 15.122C11.8668 15.0439 11.9728 15 12.0833 15H13.75C13.8605 15 13.9665 15.0439 14.0446 15.122C14.1228 15.2002 14.1667 15.3062 14.1667 15.4167C14.1667 15.5272 14.1228 15.6332 14.0446 15.7113C13.9665 15.7894 13.8605 15.8333 13.75 15.8333H12.9167C13.2967 16.34 13.9025 16.6667 14.5833 16.6667C15.2217 16.6667 15.7933 16.38 16.1758 15.9267C16.2477 15.8443 16.3491 15.7936 16.4581 15.7853C16.5671 15.777 16.6749 15.8118 16.7585 15.8824C16.842 15.9529 16.8944 16.0534 16.9046 16.1622C16.9147 16.271 16.8816 16.3795 16.8125 16.4642C16.539 16.789 16.1977 17.05 15.8126 17.2289C15.4275 17.4079 15.008 17.5004 14.5833 17.5C14.1953 17.5005 13.811 17.4234 13.4532 17.2731C13.0954 17.1228 12.7713 16.9025 12.5 16.625Z" fill="#485566"/>
</svg>