<svg xmlns="http://www.w3.org/2000/svg" width="18" height="18" viewBox="0 0 18 18" fill="none">
  <path d="M7.4997 1.875C8.54819 1.87496 9.57581 2.16796 10.4666 2.72094C11.3574 3.27392 12.0759 4.06487 12.5411 5.00453C13.0062 5.94418 13.1995 6.99514 13.0991 8.03881C12.9986 9.08247 12.6085 10.0773 11.9727 10.911L15.53 14.4697C15.6645 14.6047 15.7426 14.7858 15.7484 14.9763C15.7542 15.1667 15.6873 15.3523 15.5613 15.4952C15.4352 15.6381 15.2595 15.7277 15.0698 15.7458C14.8802 15.7639 14.6907 15.7091 14.54 15.5925L14.4695 15.5303L10.9107 11.973C10.2005 12.5146 9.37145 12.8792 8.49228 13.0368C7.61312 13.1943 6.70908 13.1403 5.85495 12.8791C5.00083 12.6179 4.22119 12.157 3.58054 11.5347C2.9399 10.9123 2.45666 10.1463 2.17082 9.30014C1.88499 8.45394 1.80477 7.55184 1.9368 6.66848C2.06883 5.78513 2.40932 4.94591 2.9301 4.22027C3.45087 3.49463 4.13696 2.90344 4.93159 2.49561C5.72621 2.08779 6.60653 1.87505 7.4997 1.875ZM7.4997 3.375C6.40569 3.375 5.35648 3.8096 4.58289 4.58318C3.8093 5.35677 3.3747 6.40598 3.3747 7.5C3.3747 8.59402 3.8093 9.64323 4.58289 10.4168C5.35648 11.1904 6.40569 11.625 7.4997 11.625C8.59372 11.625 9.64293 11.1904 10.4165 10.4168C11.1901 9.64323 11.6247 8.59402 11.6247 7.5C11.6247 6.40598 11.1901 5.35677 10.4165 4.58318C9.64293 3.8096 8.59372 3.375 7.4997 3.375Z" fill="white"/>
</svg>