<svg xmlns="http://www.w3.org/2000/svg" width="20" height="20" viewBox="0 0 20 20" fill="none">
  <mask id="mask0_245_29560" style="mask-type:alpha" maskUnits="userSpaceOnUse" x="0" y="0" width="20" height="20">
    <rect width="20" height="20" fill="#D9D9D9"/>
  </mask>
  <g mask="url(#mask0_245_29560)">
    <path d="M4.82056 17.2628C4.24186 17.2628 3.74997 17.0603 3.34487 16.6552C2.93979 16.2501 2.73724 15.7582 2.73724 15.1795C2.73724 14.7127 2.88522 14.296 3.18116 13.9296C3.47709 13.5631 3.843 13.304 4.27889 13.1523V6.80616C3.843 6.65445 3.47709 6.39885 3.18116 6.03935C2.88522 5.67985 2.73724 5.2736 2.73724 4.82062C2.73724 4.22803 2.93979 3.73266 3.34487 3.33451C3.74997 2.93637 4.24186 2.7373 4.82056 2.7373C5.28743 2.7373 5.70062 2.8818 6.06012 3.1708C6.41962 3.45979 6.67522 3.82917 6.82693 4.27895H13.1939C13.3371 3.81528 13.5925 3.44243 13.9601 3.16039C14.3278 2.87833 14.7342 2.7373 15.1795 2.7373C15.7721 2.7373 16.2674 2.93637 16.6656 3.33451C17.0637 3.73266 17.2628 4.22803 17.2628 4.82062C17.2628 5.26588 17.1218 5.67233 16.8397 6.03997C16.5577 6.40761 16.1848 6.66301 15.7211 6.80616V13.1732C16.1709 13.3249 16.5403 13.5805 16.8293 13.94C17.1183 14.2995 17.2628 14.7127 17.2628 15.1795C17.2628 15.7582 17.0637 16.2501 16.6656 16.6552C16.2674 17.0603 15.7721 17.2628 15.1795 17.2628C14.7265 17.2628 14.3168 17.1149 13.9503 16.8189C13.5839 16.523 13.3248 16.1571 13.1731 15.7212H6.82693C6.67522 16.1571 6.41962 16.523 6.06012 16.8189C5.70062 17.1149 5.28743 17.2628 4.82056 17.2628ZM4.82056 5.82062C5.10389 5.82062 5.34139 5.72478 5.53306 5.53312C5.72472 5.34145 5.82056 5.10395 5.82056 4.82062C5.82056 4.53728 5.72472 4.29978 5.53306 4.10812C5.34139 3.91645 5.10389 3.82062 4.82056 3.82062C4.53722 3.82062 4.29972 3.91645 4.10806 4.10812C3.91639 4.29978 3.82056 4.53728 3.82056 4.82062C3.82056 5.10395 3.91639 5.34145 4.10806 5.53312C4.29972 5.72478 4.53722 5.82062 4.82056 5.82062ZM15.1795 5.82062C15.4628 5.82062 15.7003 5.72478 15.892 5.53312C16.0836 5.34145 16.1795 5.10395 16.1795 4.82062C16.1795 4.53728 16.0836 4.29978 15.892 4.10812C15.7003 3.91645 15.4628 3.82062 15.1795 3.82062C14.8961 3.82062 14.6586 3.91645 14.467 4.10812C14.2753 4.29978 14.1795 4.53728 14.1795 4.82062C14.1795 5.10395 14.2753 5.34145 14.467 5.53312C14.6586 5.72478 14.8961 5.82062 15.1795 5.82062ZM6.82693 14.6379H13.1939C13.3055 14.2806 13.4884 13.9731 13.7424 13.7153C13.9964 13.4575 14.2949 13.2698 14.6378 13.1523V6.80616C14.2949 6.69398 13.9923 6.51178 13.73 6.25957C13.4676 6.00735 13.282 5.70825 13.1731 5.36226H6.82693C6.71532 5.70825 6.53251 6.00601 6.27849 6.25555C6.02447 6.50511 5.71904 6.68865 5.3622 6.80616V13.1732C5.71599 13.2854 6.02051 13.4691 6.27576 13.7243C6.53101 13.9796 6.71474 14.2841 6.82693 14.6379ZM15.1795 16.1795C15.4628 16.1795 15.7003 16.0837 15.892 15.892C16.0836 15.7004 16.1795 15.4629 16.1795 15.1795C16.1795 14.8962 16.0836 14.6587 15.892 14.467C15.7003 14.2754 15.4628 14.1795 15.1795 14.1795C14.8961 14.1795 14.6586 14.2754 14.467 14.467C14.2753 14.6587 14.1795 14.8962 14.1795 15.1795C14.1795 15.4629 14.2753 15.7004 14.467 15.892C14.6586 16.0837 14.8961 16.1795 15.1795 16.1795ZM4.82056 16.1795C5.10389 16.1795 5.34139 16.0837 5.53306 15.892C5.72472 15.7004 5.82056 15.4629 5.82056 15.1795C5.82056 14.8962 5.72472 14.6587 5.53306 14.467C5.34139 14.2754 5.10389 14.1795 4.82056 14.1795C4.53722 14.1795 4.29972 14.2754 4.10806 14.467C3.91639 14.6587 3.82056 14.8962 3.82056 15.1795C3.82056 15.4629 3.91639 15.7004 4.10806 15.892C4.29972 16.0837 4.53722 16.1795 4.82056 16.1795Z" fill="#485566"/>
  </g>
</svg>