<svg xmlns="http://www.w3.org/2000/svg" width="18" height="18" viewBox="0 0 18 18" fill="none">
  <path d="M9.00989 1.6875C9.56039 1.6935 10.1086 1.75725 10.6464 1.87725C10.7608 1.90279 10.8644 1.96343 10.9426 2.0507C11.0209 2.13796 11.0699 2.2475 11.0829 2.364L11.2104 3.50925C11.2284 3.67071 11.284 3.8257 11.3729 3.96173C11.4617 4.09776 11.5812 4.21105 11.7218 4.29247C11.8624 4.37389 12.0201 4.42117 12.1823 4.43051C12.3445 4.43985 12.5066 4.41099 12.6556 4.34625L13.7064 3.885C13.8131 3.83801 13.9317 3.82533 14.0459 3.84871C14.1601 3.87209 14.2643 3.93037 14.3439 4.0155C15.1028 4.82632 15.668 5.79871 15.9969 6.8595C16.0314 6.97098 16.0303 7.09042 15.9939 7.20128C15.9575 7.31214 15.8875 7.40894 15.7936 7.47825L14.8621 8.16525C14.7311 8.26147 14.6246 8.38718 14.5512 8.53219C14.4778 8.6772 14.4396 8.83746 14.4396 9C14.4396 9.16254 14.4778 9.3228 14.5512 9.46781C14.6246 9.61282 14.7311 9.73853 14.8621 9.83475L15.7944 10.521C15.8885 10.5903 15.9588 10.6871 15.9953 10.7982C16.0319 10.9092 16.033 11.0288 15.9984 11.1405C15.6694 12.2012 15.1042 13.1736 14.3454 13.9845C14.266 14.0694 14.1621 14.1277 14.0482 14.1512C13.9344 14.1747 13.816 14.1623 13.7094 14.1157L12.6541 13.653C12.5053 13.5878 12.3433 13.5585 12.181 13.5675C12.0188 13.5765 11.861 13.6236 11.7203 13.705C11.5797 13.7863 11.4601 13.8996 11.3714 14.0358C11.2827 14.1719 11.2273 14.327 11.2096 14.4885L11.0829 15.633C11.0701 15.7482 11.022 15.8567 10.9452 15.9436C10.8685 16.0304 10.7667 16.0914 10.6539 16.1182C9.56756 16.3767 8.43573 16.3767 7.34939 16.1182C7.2366 16.0914 7.13484 16.0304 7.05804 15.9436C6.98125 15.8567 6.93317 15.7482 6.92039 15.633L6.79439 14.49C6.77602 14.3289 6.7201 14.1743 6.63113 14.0388C6.54216 13.9032 6.42262 13.7904 6.28213 13.7094C6.14163 13.6284 5.98409 13.5816 5.82219 13.5725C5.66028 13.5635 5.49851 13.5926 5.34989 13.6575L4.29539 14.1195C4.18873 14.1662 4.07019 14.1787 3.95614 14.1552C3.84208 14.1317 3.73814 14.0733 3.65864 13.9882C2.89943 13.1765 2.33424 12.203 2.00564 11.1412C1.97107 11.0296 1.97213 10.9099 2.00869 10.7989C2.04525 10.6879 2.11549 10.591 2.20964 10.5218L3.14189 9.83475C3.27303 9.73862 3.37967 9.61296 3.45318 9.46793C3.52669 9.3229 3.565 9.16259 3.565 9C3.565 8.83741 3.52669 8.6771 3.45318 8.53207C3.37967 8.38704 3.27303 8.26138 3.14189 8.16525L2.20964 7.47975C2.11562 7.41039 2.04553 7.31347 2.00911 7.20245C1.97269 7.09143 1.97174 6.97183 2.00639 6.86025C2.33529 5.79947 2.90046 4.82708 3.65939 4.01625C3.73903 3.93112 3.84315 3.87284 3.95736 3.84946C4.07156 3.82608 4.19021 3.83876 4.29689 3.88575L5.34689 4.347C5.49616 4.4117 5.65852 4.4405 5.82093 4.43107C5.98334 4.42163 6.14128 4.37424 6.28205 4.2927C6.42282 4.21115 6.5425 4.09772 6.63148 3.96153C6.72047 3.82534 6.77626 3.67017 6.79439 3.5085L6.92189 2.364C6.93476 2.24727 6.98385 2.13749 7.06226 2.05006C7.14068 1.96263 7.24449 1.90194 7.35914 1.8765C7.89689 1.75725 8.44664 1.69425 9.00989 1.6875ZM9.00089 6.75C8.40416 6.75 7.83186 6.98705 7.4099 7.40901C6.98795 7.83097 6.75089 8.40326 6.75089 9C6.75089 9.59674 6.98795 10.169 7.4099 10.591C7.83186 11.0129 8.40416 11.25 9.00089 11.25C9.59763 11.25 10.1699 11.0129 10.5919 10.591C11.0138 10.169 11.2509 9.59674 11.2509 9C11.2509 8.40326 11.0138 7.83097 10.5919 7.40901C10.1699 6.98705 9.59763 6.75 9.00089 6.75Z" fill="white"/>
</svg>