<svg xmlns="http://www.w3.org/2000/svg" width="25" height="24" viewBox="0 0 25 24" fill="none">
  <g clip-path="url(#clip0_1298_24595)">
    <path d="M10.336 5.17969C10.3801 6.36575 10.179 7.54816 9.74527 8.65295C9.31154 9.75774 8.6545 10.7611 7.81524 11.6004C6.97599 12.4397 5.97259 13.0967 4.86779 13.5304C3.763 13.9642 2.58059 14.1653 1.39453 14.1211C2.58059 14.077 3.763 14.2781 4.86779 14.7118C5.97259 15.1456 6.97599 15.8026 7.81524 16.6419C8.6545 17.4811 9.31154 18.4845 9.74527 19.5893C10.179 20.6941 10.3801 21.8765 10.336 23.0626C10.2918 21.8765 10.4929 20.6941 10.9267 19.5893C11.3604 18.4845 12.0174 17.4811 12.8567 16.6419C13.6959 15.8026 14.6993 15.1456 15.8041 14.7118C16.9089 14.2781 18.0913 14.077 19.2774 14.1211C18.0913 14.1653 16.9089 13.9642 15.8041 13.5304C14.6993 13.0967 13.6959 12.4397 12.8567 11.6004C12.0174 10.7611 11.3604 9.75774 10.9267 8.65295C10.4929 7.54816 10.2918 6.36575 10.336 5.17969Z" fill="url(#paint0_linear_1298_24595)"/>
    <path d="M19.4159 1.10547C19.439 1.72647 19.3337 2.34555 19.1067 2.924C18.8796 3.50244 18.5355 4.02781 18.0961 4.46722C17.6567 4.90664 17.1314 5.25065 16.5529 5.47775C15.9745 5.70484 15.3554 5.81013 14.7344 5.78702C15.3554 5.76392 15.9745 5.8692 16.5529 6.09629C17.1314 6.32339 17.6567 6.6674 18.0961 7.10682C18.5355 7.54623 18.8796 8.07159 19.1067 8.65004C19.3337 9.22848 19.439 9.84757 19.4159 10.4686C19.3928 9.84757 19.4981 9.22849 19.7252 8.65004C19.9523 8.0716 20.2963 7.54623 20.7357 7.10682C21.1751 6.6674 21.7005 6.32339 22.2789 6.0963C22.8574 5.8692 23.4765 5.76392 24.0975 5.78702C23.4765 5.81013 22.8574 5.70484 22.2789 5.47774C21.7005 5.25065 21.1751 4.90663 20.7357 4.46722C20.2963 4.0278 19.9523 3.50244 19.7252 2.924C19.4981 2.34555 19.3928 1.72647 19.4159 1.10547Z" fill="url(#paint1_linear_1298_24595)"/>
  </g>
  <defs>
    <linearGradient id="paint0_linear_1298_24595" x1="10.0674" y1="25.2227" x2="7.55347" y2="5.09029" gradientUnits="userSpaceOnUse">
      <stop stop-color="#D01EBE" stop-opacity="0"/>
      <stop offset="1" stop-color="#5C95EF"/>
    </linearGradient>
    <linearGradient id="paint1_linear_1298_24595" x1="19.2753" y1="11.5995" x2="17.9591" y2="1.05866" gradientUnits="userSpaceOnUse">
      <stop stop-color="#D01EBE" stop-opacity="0"/>
      <stop offset="1" stop-color="#5C95EF"/>
    </linearGradient>
    <clipPath id="clip0_1298_24595">
      <rect width="24" height="24" fill="white" transform="translate(0.5)"/>
    </clipPath>
  </defs>
</svg>