<svg xmlns="http://www.w3.org/2000/svg" width="18" height="18" viewBox="0 0 18 18" fill="none">
  <path d="M9 1.5V6C9 6.39782 9.15804 6.77936 9.43934 7.06066C9.72064 7.34196 10.1022 7.5 10.5 7.5H15V15C15 15.3978 14.842 15.7794 14.5607 16.0607C14.2794 16.342 13.8978 16.5 13.5 16.5H8.3925C9.16876 15.6919 9.64297 14.6411 9.7353 13.5244C9.82764 12.4077 9.53246 11.2933 8.89946 10.3687C8.26646 9.44414 7.33428 8.76584 6.2598 8.44798C5.18532 8.13012 4.03414 8.1921 3 8.6235V3C3 2.60218 3.15804 2.22064 3.43934 1.93934C3.72064 1.65804 4.10218 1.5 4.5 1.5H9ZM10.125 1.875V6C10.125 6.09946 10.1645 6.19484 10.2348 6.26517C10.3052 6.33549 10.4005 6.375 10.5 6.375H14.625L10.125 1.875ZM9 13.125C9 13.6667 8.8933 14.2031 8.686 14.7036C8.4787 15.204 8.17486 15.6588 7.79182 16.0418C7.40877 16.4249 6.95404 16.7287 6.45357 16.936C5.9531 17.1433 5.4167 17.25 4.875 17.25C4.3333 17.25 3.7969 17.1433 3.29643 16.936C2.79596 16.7287 2.34123 16.4249 1.95818 16.0418C1.57514 15.6588 1.2713 15.204 1.064 14.7036C0.856696 14.2031 0.75 13.6667 0.75 13.125C0.75 12.031 1.1846 10.9818 1.95818 10.2082C2.73177 9.4346 3.78098 9 4.875 9C5.96902 9 7.01823 9.4346 7.79182 10.2082C8.5654 10.9818 9 12.031 9 13.125ZM7.3905 11.3595C7.35567 11.3246 7.31428 11.2969 7.26872 11.278C7.22317 11.2591 7.17433 11.2493 7.125 11.2493C7.07567 11.2493 7.02683 11.2591 6.98128 11.278C6.93572 11.2969 6.89433 11.3246 6.8595 11.3595L4.125 14.0947L2.8905 12.8595C2.82009 12.7891 2.72458 12.7495 2.625 12.7495C2.52542 12.7495 2.42991 12.7891 2.3595 12.8595C2.28908 12.9299 2.24953 13.0254 2.24953 13.125C2.24953 13.2246 2.28908 13.3201 2.3595 13.3905L3.8595 14.8905C3.89433 14.9254 3.93572 14.9531 3.98127 14.972C4.02683 14.9909 4.07567 15.0007 4.125 15.0007C4.17433 15.0007 4.22317 14.9909 4.26873 14.972C4.31428 14.9531 4.35567 14.9254 4.3905 14.8905L7.3905 11.8905C7.42542 11.8557 7.45313 11.8143 7.47203 11.7687C7.49094 11.7232 7.50067 11.6743 7.50067 11.625C7.50067 11.5757 7.49094 11.5268 7.47203 11.4813C7.45313 11.4357 7.42542 11.3943 7.3905 11.3595Z" fill="#E9EFFA"/>
</svg>