<svg xmlns="http://www.w3.org/2000/svg" width="16" height="16" viewBox="0 0 16 16" fill="none">
  <path d="M12.1667 2.33934C12.2993 2.33934 12.4265 2.28666 12.5202 2.19289C12.614 2.09912 12.6667 1.97194 12.6667 1.83934C12.6667 1.70673 12.614 1.57955 12.5202 1.48578C12.4265 1.39201 12.2993 1.33934 12.1667 1.33934L3.5 1.33667C3.36739 1.33667 3.24021 1.38935 3.14645 1.48312C3.05268 1.57688 3 1.70406 3 1.83667C3 1.96928 3.05268 2.09646 3.14645 2.19022C3.24021 2.28399 3.36739 2.33667 3.5 2.33667L12.1667 2.33934ZM7.76533 14.6647L7.83333 14.6693C7.95426 14.6693 8.07108 14.6255 8.16215 14.5459C8.25322 14.4664 8.31238 14.3565 8.32867 14.2367L8.33333 14.1693L8.33267 5.046L10.814 7.526C10.8987 7.61058 11.011 7.66194 11.1304 7.67075C11.2498 7.67956 11.3684 7.64523 11.4647 7.574L11.5213 7.526C11.6061 7.44122 11.6576 7.32881 11.6664 7.20926C11.6752 7.0897 11.6407 6.97096 11.5693 6.87467L11.5207 6.81867L8.18933 3.488C8.10467 3.40332 7.99244 3.35184 7.87303 3.34291C7.75363 3.33398 7.63498 3.36819 7.53867 3.43934L7.482 3.48734L4.14667 6.81867C4.05697 6.90777 4.00437 7.02755 3.99944 7.15388C3.9945 7.28021 4.03761 7.40373 4.12009 7.49955C4.20256 7.59538 4.31828 7.6564 4.44393 7.67034C4.56959 7.68427 4.69587 7.65009 4.79733 7.57467L4.85333 7.526L7.33267 5.05067L7.33333 14.1693C7.33333 14.4227 7.52133 14.6313 7.76533 14.6647Z" fill="#485566"/>
</svg>