<svg xmlns="http://www.w3.org/2000/svg" width="16" height="16" viewBox="0 0 16 16" fill="none">
  <path d="M11.8354 9.33333C12.0323 9.33324 12.2274 9.37196 12.4093 9.44727C12.5913 9.52258 12.7567 9.63301 12.896 9.77224C13.0353 9.91148 13.1458 10.0768 13.2212 10.2587C13.2966 10.4407 13.3354 10.6357 13.3354 10.8327V11.216C13.3354 11.812 13.122 12.3893 12.734 12.8413C11.6874 14.064 10.096 14.6673 7.99937 14.6673C5.90203 14.6673 4.31137 14.064 3.26737 12.8407C2.88096 12.3881 2.66868 11.8125 2.6687 11.2173V10.8327C2.66861 10.6357 2.70733 10.4407 2.78264 10.2587C2.85795 10.0767 2.96838 9.91134 3.10761 9.77205C3.24684 9.63275 3.41216 9.52225 3.59411 9.44686C3.77606 9.37147 3.97108 9.33266 4.16803 9.33266H11.8354V9.33333ZM11.8354 10.3333H4.16803C4.1024 10.3332 4.0374 10.3461 3.97674 10.3712C3.91608 10.3962 3.86096 10.433 3.81452 10.4793C3.76808 10.5257 3.73124 10.5808 3.70611 10.6414C3.68097 10.702 3.66803 10.767 3.66803 10.8327V11.2173C3.66803 11.5747 3.79603 11.92 4.02803 12.1913C4.86337 13.17 6.17403 13.6673 7.99937 13.6673C9.8247 13.6673 11.1367 13.17 11.974 12.1913C12.2067 11.9196 12.3346 11.5737 12.3347 11.216V10.8327C12.3348 10.767 12.3219 10.702 12.2969 10.6414C12.2718 10.5807 12.2351 10.5256 12.1887 10.4792C12.1423 10.4327 12.0872 10.3959 12.0266 10.3707C11.966 10.3456 11.901 10.3327 11.8354 10.3327V10.3333ZM7.99937 1.336C8.88342 1.336 9.73127 1.68719 10.3564 2.31231C10.9815 2.93743 11.3327 3.78528 11.3327 4.66933C11.3327 5.55339 10.9815 6.40123 10.3564 7.02635C9.73127 7.65148 8.88342 8.00266 7.99937 8.00266C7.11531 8.00266 6.26747 7.65148 5.64235 7.02635C5.01722 6.40123 4.66603 5.55339 4.66603 4.66933C4.66603 3.78528 5.01722 2.93743 5.64235 2.31231C6.26747 1.68719 7.11531 1.336 7.99937 1.336ZM7.99937 2.336C7.69295 2.336 7.38953 2.39635 7.10644 2.51361C6.82335 2.63087 6.56612 2.80275 6.34945 3.01942C6.13278 3.23609 5.96091 3.49331 5.84365 3.7764C5.72639 4.0595 5.66603 4.36291 5.66603 4.66933C5.66603 4.97575 5.72639 5.27917 5.84365 5.56226C5.96091 5.84535 6.13278 6.10258 6.34945 6.31925C6.56612 6.53592 6.82335 6.70779 7.10644 6.82505C7.38953 6.94231 7.69295 7.00267 7.99937 7.00267C8.61821 7.00267 9.2117 6.75683 9.64928 6.31925C10.0869 5.88166 10.3327 5.28817 10.3327 4.66933C10.3327 4.05049 10.0869 3.457 9.64928 3.01942C9.2117 2.58183 8.61821 2.336 7.99937 2.336Z" fill="#485566"/>
</svg>