<svg width="99" height="19" viewBox="0 0 99 19" fill="none" xmlns="http://www.w3.org/2000/svg">
<path fill-rule="evenodd" clip-rule="evenodd" d="M34.0404 16.0579H30.3525L27.587 5.19711C27.4557 4.69752 27.177 4.25584 26.7671 4.04768C25.7439 3.52455 24.6165 3.10822 23.3866 2.89824V2.4801H29.3276C30.1475 2.4801 30.7625 3.10822 30.865 3.8377L32.2998 11.672L35.986 2.4801H39.5714L34.0404 16.0579ZM41.6212 16.0579H38.1383L41.0062 2.4801H44.4892L41.6212 16.0579ZM48.9953 6.24111C49.0978 5.50982 49.7128 5.09168 50.4302 5.09168C51.5576 4.98669 52.7857 5.19667 53.8106 5.71799L54.4256 2.79462C53.4007 2.37648 52.2733 2.1665 51.2501 2.1665C47.8697 2.1665 45.4099 4.04723 45.4099 6.65744C45.4099 8.64316 47.1523 9.6858 48.3822 10.3139C49.7128 10.9402 50.2252 11.3584 50.1227 11.9847C50.1227 12.9241 49.0978 13.3423 48.0747 13.3423C46.8448 13.3423 45.6149 13.0291 44.4893 12.506L43.8743 15.4312C45.1042 15.9525 46.4348 16.1625 47.6647 16.1625C51.4551 16.2656 53.8106 14.3867 53.8106 11.5665C53.8106 8.01504 48.9953 7.80688 48.9953 6.24111ZM65.9999 16.0579L63.2344 2.4801H60.264C59.649 2.4801 59.0341 2.89824 58.8291 3.52455L53.7081 16.0579H57.2935L58.0091 14.074H62.4145L62.8245 16.0579H65.9999ZM60.7764 6.13647L61.7996 11.2537H58.9316L60.7764 6.13647Z" fill="#172B85"/>
<path fill-rule="evenodd" clip-rule="evenodd" d="M82.4971 16.2138V17.1659V18.1181H82.0867V17.8869C81.9566 18.0584 81.7591 18.166 81.4907 18.166C80.9615 18.166 80.5466 17.7478 80.5466 17.1659C80.5466 16.5845 80.9615 16.1659 81.4907 16.1659C81.7591 16.1659 81.9566 16.2735 82.0867 16.445V16.2138H82.4971ZM81.5416 16.5563C81.1864 16.5563 80.9691 16.8313 80.9691 17.1661C80.9691 17.5008 81.1864 17.7758 81.5416 17.7758C81.881 17.7758 82.1102 17.5126 82.1102 17.1661C82.1102 16.8195 81.881 16.5563 81.5416 16.5563ZM96.3635 17.1661C96.3635 16.8313 96.5809 16.5563 96.9361 16.5563C97.2759 16.5563 97.5046 16.8195 97.5046 17.1661C97.5046 17.5126 97.2759 17.7758 96.9361 17.7758C96.5809 17.7758 96.3635 17.5008 96.3635 17.1661ZM97.8919 15.449V17.1659V18.1181H97.4811V17.8869C97.351 18.0584 97.1535 18.166 96.885 18.166C96.3559 18.166 95.941 17.7478 95.941 17.1659C95.941 16.5845 96.3559 16.1659 96.885 16.1659C97.1535 16.1659 97.351 16.2735 97.4811 16.445V15.449H97.8919ZM87.5905 16.536C87.8549 16.536 88.0248 16.7033 88.0682 16.9979H87.0889C87.1328 16.7229 87.2982 16.536 87.5905 16.536ZM86.6587 17.1659C86.6587 16.5722 87.0456 16.1659 87.5987 16.1659C88.1274 16.1659 88.4908 16.5722 88.4948 17.1659C88.4948 17.2216 88.4908 17.2736 88.4867 17.3251H87.0853C87.1445 17.668 87.3854 17.7916 87.6498 17.7916C87.8391 17.7916 88.0407 17.7196 88.1988 17.5923L88.3999 17.8992C88.1708 18.0944 87.9105 18.166 87.6263 18.166C87.0614 18.166 86.6587 17.7716 86.6587 17.1659ZM92.5534 17.1661C92.5534 16.8313 92.7708 16.5563 93.126 16.5563C93.4654 16.5563 93.6945 16.8195 93.6945 17.1661C93.6945 17.5126 93.4654 17.7758 93.126 17.7758C92.7708 17.7758 92.5534 17.5008 92.5534 17.1661ZM94.0814 16.2138V17.1659V18.1181H93.671V17.8869C93.5404 18.0584 93.3434 18.166 93.075 18.166C92.5458 18.166 92.1309 17.7478 92.1309 17.1659C92.1309 16.5845 92.5458 16.1659 93.075 16.1659C93.3434 16.1659 93.5404 16.2735 93.671 16.445V16.2138H94.0814ZM90.236 17.1659C90.236 17.7437 90.6346 18.166 91.2429 18.166C91.5272 18.166 91.7165 18.1022 91.9217 17.9389L91.7246 17.6042C91.5705 17.7159 91.4088 17.7757 91.2307 17.7757C90.9031 17.7716 90.6622 17.5326 90.6622 17.1659C90.6622 16.7993 90.9031 16.5603 91.2307 16.5562C91.4088 16.5562 91.5705 16.616 91.7246 16.7277L91.9217 16.393C91.7165 16.2297 91.5272 16.1659 91.2429 16.1659C90.6346 16.1659 90.236 16.5882 90.236 17.1659ZM95.029 16.4454C95.1356 16.278 95.2897 16.1663 95.5265 16.1663C95.6097 16.1663 95.7281 16.1822 95.8189 16.2183L95.6924 16.6086C95.6056 16.5726 95.5188 16.5608 95.4357 16.5608C95.1672 16.5608 95.033 16.7359 95.033 17.051V18.1185H94.6222V16.2142H95.029V16.4454ZM84.5266 16.3652C84.3291 16.2338 84.057 16.1659 83.757 16.1659C83.2789 16.1659 82.9711 16.3971 82.9711 16.7756C82.9711 17.0861 83.2002 17.2777 83.6223 17.3374L83.8162 17.3652C84.0412 17.3972 84.1474 17.4569 84.1474 17.5645C84.1474 17.7118 83.9974 17.7957 83.7172 17.7957C83.433 17.7957 83.2278 17.7041 83.0895 17.5964L82.8961 17.9188C83.1211 18.0862 83.4054 18.166 83.7131 18.166C84.2581 18.166 84.574 17.907 84.574 17.5445C84.574 17.2097 84.3255 17.0346 83.9147 16.9749L83.7213 16.9466C83.5437 16.9229 83.4013 16.8873 83.4013 16.7596C83.4013 16.6201 83.5355 16.5366 83.7606 16.5366C84.0015 16.5366 84.2347 16.6283 84.349 16.6999L84.5266 16.3652ZM89.3242 16.4454C89.4304 16.278 89.5845 16.1663 89.8213 16.1663C89.9044 16.1663 90.0228 16.1822 90.1137 16.2183L89.9871 16.6086C89.9003 16.5726 89.8136 16.5608 89.7304 16.5608C89.462 16.5608 89.3278 16.7359 89.3278 17.051V18.1185H88.9174V16.2142H89.3242V16.4454ZM86.3193 16.2138H85.6482V15.636H85.2333V16.2138H84.8506V16.5923H85.2333V17.461C85.2333 17.9029 85.4033 18.166 85.8886 18.166C86.0667 18.166 86.2718 18.1104 86.402 18.0187L86.2836 17.6639C86.1611 17.7355 86.0269 17.7716 85.9202 17.7716C85.7151 17.7716 85.6482 17.6439 85.6482 17.4528V16.5923H86.3193V16.2138ZM80.1837 16.9233V18.1185H79.7689V17.0587C79.7689 16.7359 79.6347 16.5566 79.3545 16.5566C79.082 16.5566 78.8926 16.7322 78.8926 17.0628V18.1185H78.4778V17.0587C78.4778 16.7359 78.3399 16.5566 78.0674 16.5566C77.7868 16.5566 77.6051 16.7322 77.6051 17.0628V18.1185H77.1907V16.2142H77.6015V16.449C77.7556 16.226 77.9527 16.1663 78.1542 16.1663C78.4425 16.1663 78.6477 16.294 78.7778 16.5051C78.9518 16.2379 79.2004 16.1622 79.4412 16.1663C79.8995 16.1704 80.1837 16.4732 80.1837 16.9233Z" fill="#231F20"/>
<path d="M90.6097 12.9767H84.3905V1.69824H90.6097V12.9767Z" fill="#FF5F00"/>
<path d="M84.785 7.33986C84.785 5.05197 85.8465 3.01399 87.4996 1.70063C86.2908 0.740242 84.7651 0.167017 83.1071 0.167017C79.1818 0.167017 75.9999 3.37836 75.9999 7.33986C75.9999 11.3014 79.1818 14.5127 83.1071 14.5127C84.7651 14.5127 86.2908 13.9395 87.4996 12.9791C85.8465 11.6657 84.785 9.62774 84.785 7.33986Z" fill="#EB001B"/>
<path d="M98.9998 7.33986C98.9998 11.3014 95.8179 14.5127 91.8926 14.5127C90.2346 14.5127 88.7089 13.9395 87.4996 12.9791C89.1531 11.6657 90.2147 9.62774 90.2147 7.33986C90.2147 5.05197 89.1531 3.01399 87.4996 1.70063C88.7089 0.740242 90.2346 0.167017 91.8926 0.167017C95.8179 0.167017 98.9998 3.37836 98.9998 7.33986Z" fill="#F79E1B"/>
</svg>
